SplineFontDB: 3.2
FontName: KawkabMono-Regular
FullName: Kawkab Mono Regular
FamilyName: Kawkab Mono Light
Weight: Regular
Copyright: Copyright \\(c\\) 2015, Abdullah Arif \\(abdullah.a@gmail.com\\).  Copyright 2010, 2012, 2014 Adobe Systems Incorporated \\(http://www.adobe.com/\\), with Reserved Font Name 'Source'. All Rights Reserved. Source is a trademark of Adobe Systems Incorporated in the United States and/or other countries.
Version: 000.501
ItalicAngle: 0
UnderlinePosition: -100
UnderlineWidth: 50
Ascent: 800
Descent: 200
InvalidEm: 0
sfntRevision: 0x00010000
LayerCount: 2
Layer: 0 0 "Back" 1
Layer: 1 0 "Fore" 0
XUID: [1021 503 -925390817 4572220]
StyleMap: 0x0020
FSType: 8
OS2Version: 3
OS2_WeightWidthSlopeOnly: 0
OS2_UseTypoMetrics: 0
CreationTime: 1452892837
ModificationTime: 1643340691
PfmFamily: 81
TTFWeight: 400
TTFWidth: 5
LineGap: 0
VLineGap: 0
Panose: 0 0 5 9 0 0 0 0 0 0
OS2TypoAscent: 1300
OS2TypoAOffset: 0
OS2TypoDescent: -650
OS2TypoDOffset: 0
OS2TypoLinegap: 0
OS2WinAscent: 1300
OS2WinAOffset: 0
OS2WinDescent: 650
OS2WinDOffset: 0
HheadAscent: 1300
HheadAOffset: 0
HheadDescent: -650
HheadDOffset: 0
OS2SubXSize: 650
OS2SubYSize: 600
OS2SubXOff: 0
OS2SubYOff: 75
OS2SupXSize: 650
OS2SupYSize: 600
OS2SupXOff: 0
OS2SupYOff: 350
OS2StrikeYSize: 50
OS2StrikeYPos: 258
OS2CapHeight: 890
OS2XHeight: 430
OS2Vendor: 'ADBE'
OS2CodePages: 600001df.00000000
OS2UnicodeRanges: 200022d7.02001802.00000008.00000000
Lookup: 1 0 0 "'aalt' Access All Alternates lookup 0" { "'aalt' Access All Alternates lookup 0 subtable"  } ['aalt' ('DFLT' <'dflt' > 'arab' <'URD ' 'dflt' > 'cyrl' <'SRB ' 'dflt' > 'grek' <'dflt' > 'latn' <'NSM ' 'SKS ' 'dflt' > ) ]
Lookup: 3 0 0 "'aalt' Access All Alternates lookup 1" { "'aalt' Access All Alternates lookup 1 subtable"  } ['aalt' ('DFLT' <'dflt' > 'arab' <'URD ' 'dflt' > 'cyrl' <'SRB ' 'dflt' > 'grek' <'dflt' > 'latn' <'NSM ' 'SKS ' 'dflt' > ) ]

StartChar: .notdef
Encoding: 1114112 -1 0
Width: 525
VWidth: 750
Flags: HMW
HStem: 0 52.5<150.75 371.25 150.75 472.5> 523.5 54<161.25 363 161.25 161.25>
VStem: 53.25 58.5<98.25 498 98.25 577.5> 411.75 60.75<98.25 498 498 498>
LayerCount: 2
Fore
SplineSet
53.25 577.5 m 1
 472.5 577.5 l 1
 472.5 0 l 1
 53.25 0 l 1
 53.25 577.5 l 1
264 339.75 m 1
 306.75 421.5 l 1
 363 523.5 l 1
 161.25 523.5 l 1
 217.5 421.5 l 1
 260.25 339.75 l 1
 264 339.75 l 1
221.25 297 m 1
 111.75 498 l 1
 111.75 98.25 l 1
 221.25 297 l 1
411.75 98.25 m 1
 411.75 498 l 1
 303 297 l 1
 411.75 98.25 l 1
371.25 52.5 m 1
 309 165.75 l 1
 264 254.25 l 1
 260.25 254.25 l 1
 213.75 165.75 l 1
 150.75 52.5 l 1
 371.25 52.5 l 1
EndSplineSet
Validated: 524289
EndChar

StartChar: uni0621
Encoding: 1569 1569 1
Width: 525
VWidth: 750
GlyphClass: 2
Flags: HMW
HStem: -6.1875 15.75G 264.75 60<279 301.125>
VStem: 190.5 43.5<199.125 225>
AnchorPoint: "Anchor-1" 270 480 basechar 0
AnchorPoint: "Anchor-0" 330 -60 basechar 0
LayerCount: 2
Fore
SplineSet
187.5 -3.75 m 0
 175.5 -8.25 170.25 -7.5 165.75 1.5 c 0
 162.75 6.75 160.5 15 160.5 19.5 c 0
 160.5 36.75 206.25 62.25 273 87 c 1
 221.25 99 190.5 130.5 190.5 187.5 c 0
 190.5 262.5 243 324.75 315 324.75 c 0
 370.5 324.75 393 288 393 263.25 c 0
 393 245.25 381 236.25 372 236.25 c 0
 357 236.25 324.75 264.75 277.5 264.75 c 0
 243 264.75 234 249 234 222.75 c 0
 234 175.5 263.25 116.25 333 116.25 c 0
 344.25 116.25 378.75 117.75 399 117.75 c 0
 429.75 117.75 456 113.25 456 93.75 c 0
 456 81.75 446.25 77.25 428.25 72.75 c 0
 357.75 53.25 306.75 45 187.5 -3.75 c 0
EndSplineSet
Validated: 524289
EndChar

StartChar: uni0627
Encoding: 1575 1575 2
Width: 525
VWidth: 750
GlyphClass: 2
Flags: HMW
HStem: 636.75 15G<282 282>
VStem: 210 75
AnchorPoint: "Anchor-1" 238.5 708 basechar 0
AnchorPoint: "Anchor-0" 300 -92.25 basechar 0
LayerCount: 2
Fore
SplineSet
240 -30 m 1
 210 571.5 l 1
 282 651.75 l 1
 288 82.5 l 1
 255 -30 l 1
 240 -30 l 1
EndSplineSet
Validated: 524289
Substitution2: "'fina' Terminal Forms lookup 31 subtable" uniFE8E
Substitution2: "'aalt' Access All Alternates lookup 0 subtable" uniFE8E
EndChar

StartChar: uniFE8E
Encoding: 65166 65166 3
Width: 525
VWidth: 750
GlyphClass: 2
Flags: HMW
HStem: 0 73.5<304.5 333.75 333.75 525>
VStem: 144.75 66.75<567 567>
AnchorPoint: "Anchor-1" 189 679.5 basechar 0
AnchorPoint: "Anchor-0" 288.75 -112.5 basechar 0
LayerCount: 2
Fore
SplineSet
333.75 0 m 2
 227.25 0 166.5 21.75 160.5 168.75 c 0
 156 306.75 156.75 384 144.75 567 c 1
 211.5 624.75 l 1
 211.5 203.25 l 2
 211.5 99 228.75 73.5 304.5 73.5 c 2
 525 73.5 l 1
 525 0 l 1
 333.75 0 l 2
EndSplineSet
Validated: 524289
EndChar

StartChar: uni0627.short
Encoding: 1114203 -1 4
Width: 525
VWidth: 750
GlyphClass: 2
Flags: HMW
HStem: 636.75 15G<282 282>
VStem: 210 75
AnchorPoint: "Anchor-1" 247.5 712.5 basechar 0
AnchorPoint: "Anchor-0" 285 -82.5 basechar 0
LayerCount: 2
Fore
SplineSet
240 -30 m 1
 210 571.5 l 1
 282 651.75 l 1
 288 82.5 l 1
 255 -30 l 1
 240 -30 l 1
EndSplineSet
Validated: 524289
EndChar

StartChar: uniFE8E.short
Encoding: 1114204 -1 5
Width: 525
VWidth: 750
GlyphClass: 2
Flags: HMW
HStem: 0 73.5<304.5 333.75 333.75 525>
VStem: 150.75 47.25
AnchorPoint: "Anchor-1" 180 600 basechar 0
AnchorPoint: "Anchor-0" 288.75 -112.5 basechar 0
LayerCount: 2
Fore
SplineSet
333.75 0 m 2
 226.5 0 156 22.5 150.75 137.25 c 0
 146.25 217.5 141.75 316.5 131.25 420 c 1
 198 477.75 l 1
 198 171.75 l 2
 198 100.5 215.25 73.5 304.5 73.5 c 2
 525 73.5 l 1
 525 0 l 1
 333.75 0 l 2
EndSplineSet
Validated: 524289
EndChar

StartChar: uni0623
Encoding: 1571 1571 6
Width: 525
VWidth: 750
GlyphClass: 2
Flags: HMW
HStem: 636.75 15G<282 282> 906.75 42<227.25 240.75>
VStem: 164.25 27.75<861.375 868.875> 210 75
AnchorPoint: "Anchor-1" 232.5 1072.5 basechar 0
AnchorPoint: "Anchor-0" 285 -82.5 basechar 0
LayerCount: 2
Fore
SplineSet
159 711 m 0
 154.5 709.5 152.25 714 150.75 717.75 c 0
 148.5 726 146.25 730.5 146.25 735 c 0
 146.25 739.5 152.25 744.75 160.5 750 c 2
 207 776.25 l 1
 176.25 789 164.25 812.25 164.25 839.25 c 0
 164.25 898.5 200.25 948.75 254.25 948.75 c 0
 285.75 948.75 297.75 926.25 300 902.25 c 0
 301.5 891.75 294.75 886.5 289.5 886.5 c 0
 285.75 886.5 252.75 906.75 228.75 906.75 c 0
 199.5 906.75 192 895.5 192 873 c 0
 192 849.75 197.25 798 262.5 798 c 0
 273 798 294.75 798.75 309.75 798.75 c 0
 324.75 798.75 336 800.25 342 789.75 c 2
 346.5 783 l 2
 350.25 775.5 339.75 769.5 330.75 767.25 c 0
 216.75 741 210 739.5 159 711 c 0
240 -30 m 1xf0
 210 571.5 l 1
 282 651.75 l 1
 288 82.5 l 1
 255 -30 l 1
 240 -30 l 1xf0
EndSplineSet
Validated: 524321
Substitution2: "'fina' Terminal Forms lookup 31 subtable" uniFE84
Substitution2: "'aalt' Access All Alternates lookup 0 subtable" uniFE84
EndChar

StartChar: uniFE84
Encoding: 65156 65156 7
Width: 525
VWidth: 750
GlyphClass: 2
Flags: HMW
HStem: 0 73.5<304.5 333.75 333.75 525> 861.75 42<152.25 165.75>
VStem: 89.25 27.75<816.375 823.875> 144.75 66.75<567 567>
AnchorPoint: "Anchor-1" 172.5 997.5 basechar 0
AnchorPoint: "Anchor-0" 315 -90 basechar 0
LayerCount: 2
Fore
SplineSet
84 666 m 0
 79.5 664.5 77.25 669 75.75 672.75 c 0
 73.5 681 71.25 685.5 71.25 690 c 0
 71.25 694.5 77.25 699.75 85.5 705 c 2
 132 731.25 l 1
 101.25 744 89.25 767.25 89.25 794.25 c 0
 89.25 853.5 125.25 903.75 179.25 903.75 c 0
 210.75 903.75 222.75 881.25 225 857.25 c 0
 226.5 846.75 219.75 841.5 214.5 841.5 c 0
 210.75 841.5 177.75 861.75 153.75 861.75 c 0
 124.5 861.75 117 850.5 117 828 c 0
 117 804.75 122.25 753 187.5 753 c 0
 198 753 219.75 753.75 234.75 753.75 c 0
 249.75 753.75 261 755.25 267 744.75 c 2
 271.5 738 l 2
 275.25 730.5 264.75 724.5 255.75 722.25 c 0
 141.75 696 135 694.5 84 666 c 0
333.75 0 m 2
 227.25 0 166.5 21.75 160.5 168.75 c 0
 156 306.75 156.75 384 144.75 567 c 1
 211.5 624.75 l 1
 211.5 203.25 l 2
 211.5 99 228.75 73.5 304.5 73.5 c 2
 525 73.5 l 1
 525 0 l 1
 333.75 0 l 2
EndSplineSet
Validated: 524321
EndChar

StartChar: uni0625
Encoding: 1573 1573 8
Width: 525
VWidth: 750
GlyphClass: 2
Flags: HMW
HStem: -145.5 42.75<250.5 264> 636.75 15G<282 282>
VStem: 187.5 27.75<-190.125 -183> 210 75
AnchorPoint: "Anchor-1" 228 783.75 basechar 0
AnchorPoint: "Anchor-0" 300 -375 basechar 0
LayerCount: 2
Fore
SplineSet
240 -30 m 1xd0
 210 571.5 l 1
 282 651.75 l 1
 288 82.5 l 1
 255 -30 l 1
 240 -30 l 1xd0
182.25 -340.5 m 0
 177.75 -342.75 175.5 -337.5 174 -334.5 c 0
 171.75 -326.25 169.5 -321.75 169.5 -316.5 c 0
 169.5 -312 175.5 -307.5 183.75 -302.25 c 2
 230.25 -276 l 1
 199.5 -262.5 187.5 -239.25 187.5 -212.25 c 0
 187.5 -153.75 223.5 -102.75 277.5 -102.75 c 0
 309 -102.75 321 -126 323.25 -149.25 c 0
 324.75 -160.5 318 -165.75 312.75 -165.75 c 0
 309 -165.75 276 -145.5 252 -145.5 c 0
 222.75 -145.5 215.25 -156 215.25 -178.5 c 0
 215.25 -201.75 220.5 -254.25 285.75 -254.25 c 0xe0
 296.25 -254.25 318 -252.75 333 -252.75 c 0
 348 -252.75 359.25 -251.25 365.25 -262.5 c 2
 369.75 -269.25 l 2
 373.5 -276.75 363 -282.75 354 -284.25 c 0
 240 -310.5 233.25 -312 182.25 -340.5 c 0
EndSplineSet
Validated: 524321
Substitution2: "'fina' Terminal Forms lookup 31 subtable" uniFE88
Substitution2: "'aalt' Access All Alternates lookup 0 subtable" uniFE88
EndChar

StartChar: uniFE88
Encoding: 65160 65160 9
Width: 525
VWidth: 750
GlyphClass: 2
Flags: HMW
HStem: -163.5 42.75<239.25 252.75> 0 73.5<304.5 333.75 333.75 525>
VStem: 144.75 66.75<567 567> 176.25 27.75<-208.125 -201>
AnchorPoint: "Anchor-1" 193.5 750 basechar 0
AnchorPoint: "Anchor-0" 307.5 -375 basechar 0
LayerCount: 2
Fore
SplineSet
333.75 0 m 2xe0
 227.25 0 166.5 21.75 160.5 168.75 c 0
 156 306.75 156.75 384 144.75 567 c 1
 211.5 624.75 l 1
 211.5 203.25 l 2
 211.5 99 228.75 73.5 304.5 73.5 c 2
 525 73.5 l 1
 525 0 l 1
 333.75 0 l 2xe0
171 -358.5 m 0
 166.5 -360.75 164.25 -355.5 162.75 -352.5 c 0
 160.5 -344.25 158.25 -339.75 158.25 -334.5 c 0
 158.25 -330 164.25 -325.5 172.5 -320.25 c 2
 219 -294 l 1
 188.25 -280.5 176.25 -257.25 176.25 -230.25 c 0
 176.25 -171.75 212.25 -120.75 266.25 -120.75 c 0
 297.75 -120.75 309.75 -144 312 -167.25 c 0
 313.5 -178.5 306.75 -183.75 301.5 -183.75 c 0
 297.75 -183.75 264.75 -163.5 240.75 -163.5 c 0
 211.5 -163.5 204 -174 204 -196.5 c 0
 204 -219.75 209.25 -272.25 274.5 -272.25 c 0xd0
 285 -272.25 306.75 -270.75 321.75 -270.75 c 0
 336.75 -270.75 348 -269.25 354 -280.5 c 2
 358.5 -287.25 l 2
 362.25 -294.75 351.75 -300.75 342.75 -302.25 c 0
 228.75 -328.5 222 -330 171 -358.5 c 0
EndSplineSet
Validated: 524321
EndChar

StartChar: uni0622
Encoding: 1570 1570 10
Width: 525
VWidth: 750
GlyphClass: 2
Flags: HMW
HStem: 636.75 15G<282 282> 735.75 51.75<269.25 302.625 259.5 313.875>
VStem: 210 75
AnchorPoint: "Anchor-1" 262.5 960 basechar 0
AnchorPoint: "Anchor-0" 285 -82.5 basechar 0
LayerCount: 2
Fore
SplineSet
120 723 m 1
 100.5 745.5 l 1
 119.25 809.25 159 836.25 188.25 836.25 c 0
 221.25 836.25 229.5 787.5 289.5 787.5 c 0
 315.75 787.5 345.75 798 417.75 834 c 1
 431.25 834 436.5 809.25 415.5 786.75 c 0
 398.25 768 336 735.75 291.75 735.75 c 0
 246.75 735.75 198 770.25 174.75 811.5 c 1
 155.25 801.75 138 771 120 723 c 1
240 -30 m 1
 210 571.5 l 1
 282 651.75 l 1
 288 82.5 l 1
 255 -30 l 1
 240 -30 l 1
EndSplineSet
Validated: 524321
Substitution2: "'fina' Terminal Forms lookup 31 subtable" uniFE82
Substitution2: "'aalt' Access All Alternates lookup 0 subtable" uniFE82
EndChar

StartChar: uniFE82
Encoding: 65154 65154 11
Width: 525
VWidth: 750
GlyphClass: 2
Flags: HMW
HStem: 0 73.5<304.5 333.75 333.75 525> 698.25 51.75<186.75 220.125 177 231.375>
VStem: 144.75 66.75<567 567>
AnchorPoint: "Anchor-1" 217.5 915 basechar 0
AnchorPoint: "Anchor-0" 315 -90 basechar 0
LayerCount: 2
Fore
SplineSet
37.5 685.5 m 1
 18 708 l 1
 36.75 771.75 76.5 798.75 105.75 798.75 c 0
 138.75 798.75 147 750 207 750 c 0
 233.25 750 263.25 760.5 335.25 796.5 c 1
 348.75 796.5 354 771.75 333 749.25 c 0
 315.75 730.5 253.5 698.25 209.25 698.25 c 0
 164.25 698.25 115.5 732.75 92.25 774 c 1
 72.75 764.25 55.5 733.5 37.5 685.5 c 1
333.75 0 m 2
 227.25 0 166.5 21.75 160.5 168.75 c 0
 156 306.75 156.75 384 144.75 567 c 1
 211.5 624.75 l 1
 211.5 203.25 l 2
 211.5 99 228.75 73.5 304.5 73.5 c 2
 525 73.5 l 1
 525 0 l 1
 333.75 0 l 2
EndSplineSet
Validated: 524321
EndChar

StartChar: uni0671
Encoding: 1649 1649 12
Width: 525
VWidth: 750
GlyphClass: 2
Flags: HMW
HStem: 678.75 24<96 96> 678.75 34.5<286.5 320.625 286.5 322.125> 806.25 38.25<321.75 353.625>
VStem: 182.25 21<736.5 792 775.5 792> 210 75 389.25 22.5<740.25 762>
AnchorPoint: "Anchor-1" 262.5 937.5 basechar 0
AnchorPoint: "Anchor-0" 285 -82.5 basechar 0
LayerCount: 2
Fore
SplineSet
96 678.75 m 1xb4
 96 702.75 l 1
 153 708.75 182.25 720 182.25 736.5 c 2
 182.25 775.5 l 1xb4
 203.25 792 l 1
 200.25 775.5 200.25 744 201.75 732.75 c 0
 202.5 726 204 723 205.5 723 c 0
 216.75 723 289.5 844.5 354 844.5 c 0
 389.25 844.5 411.75 807.75 411.75 761.25 c 0
 411.75 690.75 362.25 678.75 282 678.75 c 0x74
 225.75 678.75 199.5 684.75 189.75 705.75 c 1
 162.75 679.5 145.5 678 96 678.75 c 1xb4
293.25 713.25 m 0x7c
 348 713.25 389.25 727.5 389.25 753 c 0
 389.25 771 368.25 806.25 339 806.25 c 0
 303 806.25 258 751.5 233.25 722.25 c 1
 255 714 279.75 713.25 293.25 713.25 c 0x7c
240 -27.75 m 1
 210 525.75 l 1
 282 599.25 l 1
 288 75.75 l 1
 255 -27.75 l 1
 240 -27.75 l 1
EndSplineSet
Validated: 524321
Substitution2: "'fina' Terminal Forms lookup 31 subtable" uniFB51
Substitution2: "'aalt' Access All Alternates lookup 0 subtable" uniFB51
EndChar

StartChar: uniFB51
Encoding: 64337 64337 13
Width: 525
VWidth: 750
GlyphClass: 2
Flags: HMW
HStem: 0 73.5<304.5 333.75 333.75 525> 693.75 24<59.25 59.25> 693.75 34.5<249.75 283.875 249.75 285.375> 821.25 38.25<285 316.875>
VStem: 144.75 66.75<567 567> 145.5 21<751.5 807 790.5 807> 352.5 22.5<755.25 777>
AnchorPoint: "Anchor-1" 225 937.5 basechar 0
AnchorPoint: "Anchor-0" 315 -90 basechar 0
LayerCount: 2
Fore
SplineSet
59.25 693.75 m 1xda
 59.25 717.75 l 1
 116.25 723.75 145.5 735 145.5 751.5 c 2
 145.5 790.5 l 1xd6
 166.5 807 l 1
 163.5 790.5 163.5 759 165 747.75 c 0
 165.75 741 167.25 738 168.75 738 c 0
 180 738 252.75 859.5 317.25 859.5 c 0
 352.5 859.5 375 822.75 375 776.25 c 0
 375 705.75 325.5 693.75 245.25 693.75 c 0xb6
 189 693.75 162.75 699.75 153 720.75 c 1
 126 694.5 108.75 693 59.25 693.75 c 1xda
256.5 728.25 m 0xba
 311.25 728.25 352.5 742.5 352.5 768 c 0
 352.5 786 331.5 821.25 302.25 821.25 c 0
 266.25 821.25 221.25 766.5 196.5 737.25 c 1
 218.25 729 243 728.25 256.5 728.25 c 0xba
333.75 0 m 2
 227.25 0 166.5 21.75 160.5 168.75 c 0
 156 306.75 156.75 384 144.75 567 c 1
 211.5 624.75 l 1
 211.5 203.25 l 2
 211.5 99 228.75 73.5 304.5 73.5 c 2
 525 73.5 l 1
 525 0 l 1
 333.75 0 l 2
EndSplineSet
Validated: 524321
EndChar

StartChar: uni066E
Encoding: 1646 1646 14
Width: 525
VWidth: 750
GlyphClass: 2
Flags: HMW
HStem: 0 73.5<152.25 159.75 159.75 361.5>
VStem: 0 54.75<138.375 143.625> 464.25 60.75<129 160.5>
AnchorPoint: "Anchor-1" 262.5 487.5 basechar 0
AnchorPoint: "Anchor-0" 315 -82.5 basechar 0
LayerCount: 2
Fore
SplineSet
159.75 0 m 2
 63.75 0 0 51 0 127.5 c 0
 0 159.75 20.25 226.5 51 294.75 c 1
 76.5 270.75 l 1
 63.75 237.75 54.75 193.5 54.75 158.25 c 0
 54.75 118.5 86.25 73.5 152.25 73.5 c 2
 383.25 73.5 l 2
 442.5 73.5 464.25 117 464.25 141 c 0
 464.25 180 451.5 238.5 432.75 287.25 c 1
 481.5 367.5 l 1
 507.75 300 525 220.5 525 168.75 c 0
 525 67.5 459.75 0 361.5 0 c 2
 159.75 0 l 2
EndSplineSet
Validated: 524289
Substitution2: "'fina' Terminal Forms lookup 31 subtable" uni066E.fina
Substitution2: "'medi' Medial Forms lookup 30 subtable" uni066E.medi
Substitution2: "'init' Initial Forms lookup 29 subtable" uni066E.init
AlternateSubs2: "'aalt' Access All Alternates lookup 1 subtable" uni066E.init uni066E.medi uni066E.fina
EndChar

StartChar: uni066E.fina
Encoding: 1114205 -1 15
Width: 525
VWidth: 750
GlyphClass: 2
Flags: HMW
HStem: 0 73.5<135.75 159.75 159.75 286.5 506.625 521.25 521.25 525>
VStem: 0 52.56 449.25 19.9725
AnchorPoint: "Anchor-1" 262.5 487.5 basechar 0
AnchorPoint: "Anchor-0" 285 -82.5 basechar 0
LayerCount: 2
Fore
SplineSet
159.75 0 m 2
 64.5 0 0 48.75 0 124.5 c 0
 0 178.5 27.75 247.5 57 290.25 c 1
 78 288 l 1
 33 172.5 45 73.5 135.75 73.5 c 2
 327.75 73.5 l 2
 372.75 73.5 408.75 96.75 427.5 144 c 0
 437.25 169.5 442.5 197.25 443.25 207 c 1
 487.5 239.25 l 1
 477.75 186 477.75 191.25 471 159 c 0
 462 108.75 488.25 73.5 525 73.5 c 1
 525 0 l 1
 521.25 0 l 2
 489 0 462.75 33 449.25 105 c 1
 426.75 29.25 376.5 0 286.5 0 c 2
 159.75 0 l 2
EndSplineSet
Validated: 524321
EndChar

StartChar: uni066E.medi
Encoding: 1114206 -1 16
Width: 525
VWidth: 750
GlyphClass: 2
Flags: HMW
HStem: 0 73.5<0 172.5 172.5 179.25 0 172.5 483.75 525>
VStem: 317.25 62.25<126.75 174>
AnchorPoint: "Anchor-1" 262.5 532.5 basechar 0
AnchorPoint: "Anchor-0" 300 -82.5 basechar 0
LayerCount: 2
Fore
SplineSet
525 73.5 m 1
 525 0 l 1
 416.25 0 368.25 24.75 339 123 c 1
 310.5 35.25 273 0 179.25 0 c 2
 0 0 l 1
 0 73.5 l 1
 172.5 73.5 l 2
 258.75 73.5 317.25 90 317.25 162.75 c 0
 317.25 185.25 314.25 212.25 309.75 242.25 c 1
 379.5 304.5 l 1
 378 268.5 378 150 379.5 126.75 c 0
 382.5 88.5 442.5 73.5 525 73.5 c 1
EndSplineSet
Validated: 524321
EndChar

StartChar: uni066E.init
Encoding: 1114207 -1 17
Width: 525
VWidth: 750
GlyphClass: 2
Flags: HMW
HStem: 0 73.5<0 329.25 0 306.75>
VStem: 432 60.75<139.5 148.875>
AnchorPoint: "Anchor-1" 237 450 basechar 0
AnchorPoint: "Anchor-0" 337.5 -60 basechar 0
LayerCount: 2
Fore
SplineSet
0 0 m 1
 0 73.5 l 1
 329.25 73.5 l 2
 391.5 73.5 432.75 105 432 139.5 c 0
 432 158.25 417.75 230.25 402 284.25 c 1
 450.75 355.5 l 1
 464.25 312.75 492.75 211.5 492.75 159.75 c 0
 492.75 83.25 432 0 306.75 0 c 2
 0 0 l 1
EndSplineSet
Validated: 524321
EndChar

StartChar: uni0628
Encoding: 1576 1576 18
Width: 525
VWidth: 750
GlyphClass: 2
Flags: HMW
HStem: 0 73.5<152.25 159.75 159.75 361.5>
VStem: 0 54.75<138.375 143.625> 464.25 60.75<129 160.5>
AnchorPoint: "Anchor-1" 262.5 525 basechar 0
AnchorPoint: "Anchor-0" 315 -315 basechar 0
LayerCount: 2
Fore
SplineSet
159.75 0 m 2
 63.75 0 0 51 0 127.5 c 0
 0 159.75 20.25 226.5 51 294.75 c 1
 76.5 270.75 l 1
 63.75 237.75 54.75 193.5 54.75 158.25 c 0
 54.75 118.5 86.25 73.5 152.25 73.5 c 2
 383.25 73.5 l 2
 442.5 73.5 464.25 117 464.25 141 c 0
 464.25 180 451.5 238.5 432.75 287.25 c 1
 481.5 367.5 l 1
 507.75 300 525 220.5 525 168.75 c 0
 525 67.5 459.75 0 361.5 0 c 2
 159.75 0 l 2
263.25 -252 m 1
 211.5 -195 l 1
 263.25 -138.75 l 1
 314.25 -195 l 1
 263.25 -252 l 1
EndSplineSet
Validated: 524289
Substitution2: "'fina' Terminal Forms lookup 31 subtable" uniFE90
Substitution2: "'medi' Medial Forms lookup 30 subtable" uniFE92
Substitution2: "'init' Initial Forms lookup 29 subtable" uniFE91
AlternateSubs2: "'aalt' Access All Alternates lookup 1 subtable" uniFE91 uniFE92 uniFE90
EndChar

StartChar: uniFE90
Encoding: 65168 65168 19
Width: 525
VWidth: 750
GlyphClass: 2
Flags: HMW
HStem: 0 73.5<135.75 159.75 159.75 286.5 506.625 521.25 521.25 525>
VStem: 0 52.56 449.25 19.9725
AnchorPoint: "Anchor-1" 262.5 487.5 basechar 0
AnchorPoint: "Anchor-0" 285 -315 basechar 0
LayerCount: 2
Fore
SplineSet
159.75 0 m 2
 64.5 0 0 48.75 0 124.5 c 0
 0 178.5 27.75 247.5 57 290.25 c 1
 78 288 l 1
 33 172.5 45 73.5 135.75 73.5 c 2
 327.75 73.5 l 2
 372.75 73.5 408.75 96.75 427.5 144 c 0
 437.25 169.5 442.5 197.25 443.25 207 c 1
 487.5 239.25 l 1
 477.75 186 477.75 191.25 471 159 c 0
 462 108.75 488.25 73.5 525 73.5 c 1
 525 0 l 1
 521.25 0 l 2
 489 0 462.75 33 449.25 105 c 1
 426.75 29.25 376.5 0 286.5 0 c 2
 159.75 0 l 2
263.25 -252 m 1
 211.5 -195 l 1
 263.25 -138.75 l 1
 314.25 -195 l 1
 263.25 -252 l 1
EndSplineSet
Validated: 524321
EndChar

StartChar: uniFE92
Encoding: 65170 65170 20
Width: 525
VWidth: 750
GlyphClass: 2
Flags: HMW
HStem: 0 73.5<0 172.5 172.5 179.25 0 172.5 483.75 525>
VStem: 317.25 62.25<126.75 174>
AnchorPoint: "Anchor-1" 262.5 532.5 basechar 0
AnchorPoint: "Anchor-0" 345 -337.5 basechar 0
LayerCount: 2
Fore
SplineSet
525 73.5 m 1
 525 0 l 1
 416.25 0 368.25 24.75 339 123 c 1
 310.5 35.25 273 0 179.25 0 c 2
 0 0 l 1
 0 73.5 l 1
 172.5 73.5 l 2
 258.75 73.5 317.25 90 317.25 162.75 c 0
 317.25 185.25 314.25 212.25 309.75 242.25 c 1
 379.5 304.5 l 1
 378 268.5 378 150 379.5 126.75 c 0
 382.5 88.5 442.5 73.5 525 73.5 c 1
288.75 -252 m 1
 237 -195 l 1
 288.75 -138.75 l 1
 339.75 -195 l 1
 288.75 -252 l 1
EndSplineSet
Validated: 524321
EndChar

StartChar: uniFE91
Encoding: 65169 65169 21
Width: 525
VWidth: 750
GlyphClass: 2
Flags: HMW
HStem: 0 73.5<0 329.25 0 306.75>
VStem: 432 60.75<139.5 148.875>
AnchorPoint: "Anchor-1" 240 510 basechar 0
AnchorPoint: "Anchor-0" 322.5 -337.5 basechar 0
LayerCount: 2
Fore
SplineSet
0 0 m 1
 0 73.5 l 1
 329.25 73.5 l 2
 391.5 73.5 432.75 105 432 139.5 c 0
 432 158.25 417.75 230.25 402 284.25 c 1
 450.75 355.5 l 1
 464.25 312.75 492.75 211.5 492.75 159.75 c 0
 492.75 83.25 432 0 306.75 0 c 2
 0 0 l 1
263.25 -252 m 1
 211.5 -195 l 1
 263.25 -138.75 l 1
 314.25 -195 l 1
 263.25 -252 l 1
EndSplineSet
Validated: 524321
EndChar

StartChar: uni067E
Encoding: 1662 1662 22
Width: 525
VWidth: 750
GlyphClass: 2
Flags: HMW
HStem: 0 73.5<152.25 159.75 159.75 361.5>
VStem: 0 54.75<138.375 143.625> 464.25 60.75<129 160.5>
AnchorPoint: "Anchor-1" 262.5 487.5 basechar 0
AnchorPoint: "Anchor-0" 300 -435 basechar 0
LayerCount: 2
Fore
SplineSet
159.75 0 m 2
 63.75 0 0 51 0 127.5 c 0
 0 159.75 20.25 226.5 51 294.75 c 1
 76.5 270.75 l 1
 63.75 237.75 54.75 193.5 54.75 158.25 c 0
 54.75 118.5 86.25 73.5 152.25 73.5 c 2
 383.25 73.5 l 2
 442.5 73.5 464.25 117 464.25 141 c 0
 464.25 180 451.5 238.5 432.75 287.25 c 1
 481.5 367.5 l 1
 507.75 300 525 220.5 525 168.75 c 0
 525 67.5 459.75 0 361.5 0 c 2
 159.75 0 l 2
327 -225 m 1
 276 -170.25 l 1
 325.5 -114.75 l 1
 375.75 -168.75 l 1
 327 -225 l 1
198 -226.5 m 1
 147 -171 l 1
 195.75 -116.25 l 1
 246 -170.25 l 1
 198 -226.5 l 1
261 -349.5 m 1
 210 -294.75 l 1
 258.75 -240 l 1
 309 -293.25 l 1
 261 -349.5 l 1
EndSplineSet
Validated: 524289
Substitution2: "'fina' Terminal Forms lookup 31 subtable" uniFB57
Substitution2: "'medi' Medial Forms lookup 30 subtable" uniFB59
Substitution2: "'init' Initial Forms lookup 29 subtable" uniFB58
AlternateSubs2: "'aalt' Access All Alternates lookup 1 subtable" uniFB58 uniFB59 uniFB57
EndChar

StartChar: uniFB57
Encoding: 64343 64343 23
Width: 525
VWidth: 750
GlyphClass: 2
Flags: HMW
HStem: 0 73.5<135.75 159.75 159.75 286.5 506.625 521.25 521.25 525>
VStem: 0 52.56 449.25 19.9725
AnchorPoint: "Anchor-1" 262.5 450 basechar 0
AnchorPoint: "Anchor-0" 285 -435 basechar 0
LayerCount: 2
Fore
SplineSet
159.75 0 m 2
 64.5 0 0 48.75 0 124.5 c 0
 0 178.5 27.75 247.5 57 290.25 c 1
 78 288 l 1
 33 172.5 45 73.5 135.75 73.5 c 2
 327.75 73.5 l 2
 372.75 73.5 408.75 96.75 427.5 144 c 0
 437.25 169.5 442.5 197.25 443.25 207 c 1
 487.5 239.25 l 1
 477.75 186 477.75 191.25 471 159 c 0
 462 108.75 488.25 73.5 525 73.5 c 1
 525 0 l 1
 521.25 0 l 2
 489 0 462.75 33 449.25 105 c 1
 426.75 29.25 376.5 0 286.5 0 c 2
 159.75 0 l 2
319.5 -225 m 1
 268.5 -170.25 l 1
 318 -114.75 l 1
 368.25 -168.75 l 1
 319.5 -225 l 1
190.5 -226.5 m 1
 139.5 -171 l 1
 188.25 -116.25 l 1
 238.5 -170.25 l 1
 190.5 -226.5 l 1
253.5 -349.5 m 1
 202.5 -294.75 l 1
 251.25 -240 l 1
 301.5 -293.25 l 1
 253.5 -349.5 l 1
EndSplineSet
Validated: 524321
EndChar

StartChar: uniFB59
Encoding: 64345 64345 24
Width: 525
VWidth: 750
GlyphClass: 2
Flags: HMW
HStem: 0 73.5<0 172.5 172.5 179.25 0 172.5 483.75 525>
VStem: 317.25 62.25<126.75 174>
AnchorPoint: "Anchor-1" 262.5 525 basechar 0
AnchorPoint: "Anchor-0" 262.5 -435 basechar 0
LayerCount: 2
Fore
SplineSet
525 73.5 m 1
 525 0 l 1
 416.25 0 368.25 24.75 339 123 c 1
 310.5 35.25 273 0 179.25 0 c 2
 0 0 l 1
 0 73.5 l 1
 172.5 73.5 l 2
 258.75 73.5 317.25 90 317.25 162.75 c 0
 317.25 185.25 314.25 212.25 309.75 242.25 c 1
 379.5 304.5 l 1
 378 268.5 378 150 379.5 126.75 c 0
 382.5 88.5 442.5 73.5 525 73.5 c 1
329.25 -225 m 1
 278.25 -170.25 l 1
 327.75 -114.75 l 1
 378 -168.75 l 1
 329.25 -225 l 1
200.25 -226.5 m 1
 149.25 -171 l 1
 198 -116.25 l 1
 248.25 -170.25 l 1
 200.25 -226.5 l 1
263.25 -349.5 m 1
 212.25 -294.75 l 1
 261 -240 l 1
 311.25 -293.25 l 1
 263.25 -349.5 l 1
EndSplineSet
Validated: 524321
EndChar

StartChar: uniFB58
Encoding: 64344 64344 25
Width: 525
VWidth: 750
GlyphClass: 2
Flags: HMW
HStem: 0 73.5<0 329.25 0 306.75>
VStem: 432 60.75<139.5 148.875>
AnchorPoint: "Anchor-1" 285 450 basechar 0
AnchorPoint: "Anchor-0" 322.5 -435 basechar 0
LayerCount: 2
Fore
SplineSet
0 0 m 1
 0 73.5 l 1
 329.25 73.5 l 2
 391.5 73.5 432.75 105 432 139.5 c 0
 432 158.25 417.75 230.25 402 284.25 c 1
 450.75 355.5 l 1
 464.25 312.75 492.75 211.5 492.75 159.75 c 0
 492.75 83.25 432 0 306.75 0 c 2
 0 0 l 1
345.75 -225 m 1
 294.75 -170.25 l 1
 344.25 -114.75 l 1
 394.5 -168.75 l 1
 345.75 -225 l 1
216.75 -226.5 m 1
 165.75 -171 l 1
 214.5 -116.25 l 1
 264.75 -170.25 l 1
 216.75 -226.5 l 1
279.75 -349.5 m 1
 228.75 -294.75 l 1
 277.5 -240 l 1
 327.75 -293.25 l 1
 279.75 -349.5 l 1
EndSplineSet
Validated: 524321
EndChar

StartChar: uni062A
Encoding: 1578 1578 26
Width: 525
VWidth: 750
GlyphClass: 2
Flags: HMW
HStem: 0 73.5<152.25 159.75 159.75 361.5>
VStem: 0 54.75<138.375 143.625> 464.25 60.75<129 160.5>
AnchorPoint: "Anchor-1" 255 675 basechar 0
AnchorPoint: "Anchor-0" 315 -82.5 basechar 0
LayerCount: 2
Fore
SplineSet
336.75 414 m 1
 284.25 469.5 l 1
 334.5 525.75 l 1
 386.25 471 l 1
 336.75 414 l 1
195.75 411.75 m 1
 143.25 467.25 l 1
 192.75 523.5 l 1
 244.5 469.5 l 1
 195.75 411.75 l 1
159.75 0 m 2
 63.75 0 0 51 0 127.5 c 0
 0 159.75 20.25 226.5 51 294.75 c 1
 76.5 270.75 l 1
 63.75 237.75 54.75 193.5 54.75 158.25 c 0
 54.75 118.5 86.25 73.5 152.25 73.5 c 2
 383.25 73.5 l 2
 442.5 73.5 464.25 117 464.25 141 c 0
 464.25 180 451.5 238.5 432.75 287.25 c 1
 481.5 367.5 l 1
 507.75 300 525 220.5 525 168.75 c 0
 525 67.5 459.75 0 361.5 0 c 2
 159.75 0 l 2
EndSplineSet
Validated: 524289
Substitution2: "'fina' Terminal Forms lookup 31 subtable" uniFE96
Substitution2: "'medi' Medial Forms lookup 30 subtable" uniFE98
Substitution2: "'init' Initial Forms lookup 29 subtable" uniFE97
AlternateSubs2: "'aalt' Access All Alternates lookup 1 subtable" uniFE97 uniFE98 uniFE96
EndChar

StartChar: uniFE96
Encoding: 65174 65174 27
Width: 525
VWidth: 750
GlyphClass: 2
Flags: HMW
HStem: 0 73.5<135.75 159.75 159.75 286.5 506.625 521.25 521.25 525>
VStem: 0 52.56 449.25 19.9725
AnchorPoint: "Anchor-1" 259.5 675 basechar 0
AnchorPoint: "Anchor-0" 285 -82.5 basechar 0
LayerCount: 2
Fore
SplineSet
353.25 414 m 1
 300.75 469.5 l 1
 351 525.75 l 1
 402.75 471 l 1
 353.25 414 l 1
212.25 411.75 m 1
 159.75 467.25 l 1
 209.25 523.5 l 1
 261 469.5 l 1
 212.25 411.75 l 1
159.75 0 m 2
 64.5 0 0 48.75 0 124.5 c 0
 0 178.5 27.75 247.5 57 290.25 c 1
 78 288 l 1
 33 172.5 45 73.5 135.75 73.5 c 2
 327.75 73.5 l 2
 372.75 73.5 408.75 96.75 427.5 144 c 0
 437.25 169.5 442.5 197.25 443.25 207 c 1
 487.5 239.25 l 1
 477.75 186 477.75 191.25 471 159 c 0
 462 108.75 488.25 73.5 525 73.5 c 1
 525 0 l 1
 521.25 0 l 2
 489 0 462.75 33 449.25 105 c 1
 426.75 29.25 376.5 0 286.5 0 c 2
 159.75 0 l 2
EndSplineSet
Validated: 524321
EndChar

StartChar: uniFE98
Encoding: 65176 65176 28
Width: 525
VWidth: 750
GlyphClass: 2
Flags: HMW
HStem: 0 73.5<0 172.5 172.5 179.25 0 172.5 483.75 525>
VStem: 317.25 62.25<126.75 174>
AnchorPoint: "Anchor-1" 236.25 675 basechar 0
AnchorPoint: "Anchor-0" 334.5 -82.5 basechar 0
LayerCount: 2
Fore
SplineSet
285 414 m 1
 232.5 469.5 l 1
 282.75 525.75 l 1
 334.5 471 l 1
 285 414 l 1
144 411.75 m 1
 91.5 467.25 l 1
 141 523.5 l 1
 192.75 469.5 l 1
 144 411.75 l 1
525 73.5 m 1
 525 0 l 1
 416.25 0 368.25 24.75 339 123 c 1
 310.5 35.25 273 0 179.25 0 c 2
 0 0 l 1
 0 73.5 l 1
 172.5 73.5 l 2
 258.75 73.5 317.25 90 317.25 162.75 c 0
 317.25 185.25 314.25 212.25 309.75 242.25 c 1
 379.5 304.5 l 1
 378 268.5 378 150 379.5 126.75 c 0
 382.5 88.5 442.5 73.5 525 73.5 c 1
EndSplineSet
Validated: 524321
EndChar

StartChar: uniFE97
Encoding: 65175 65175 29
Width: 525
VWidth: 750
GlyphClass: 2
Flags: HMW
HStem: 0 73.5<0 329.25 0 306.75>
VStem: 432 60.75<139.5 148.875>
AnchorPoint: "Anchor-1" 217.5 675 basechar 0
AnchorPoint: "Anchor-0" 337.5 -82.5 basechar 0
LayerCount: 2
Fore
SplineSet
285 414 m 1
 232.5 469.5 l 1
 282.75 525.75 l 1
 334.5 471 l 1
 285 414 l 1
144 411.75 m 1
 91.5 467.25 l 1
 141 523.5 l 1
 192.75 469.5 l 1
 144 411.75 l 1
0 0 m 1
 0 73.5 l 1
 329.25 73.5 l 2
 391.5 73.5 432.75 105 432 139.5 c 0
 432 158.25 417.75 230.25 402 284.25 c 1
 450.75 355.5 l 1
 464.25 312.75 492.75 211.5 492.75 159.75 c 0
 492.75 83.25 432 0 306.75 0 c 2
 0 0 l 1
EndSplineSet
Validated: 524321
EndChar

StartChar: uni062B
Encoding: 1579 1579 30
Width: 525
VWidth: 750
GlyphClass: 2
Flags: HMW
HStem: 0 73.5<152.25 159.75 159.75 361.5>
VStem: 0 54.75<138.375 143.625> 464.25 60.75<129 160.5>
AnchorPoint: "Anchor-1" 262.5 772.5 basechar 0
AnchorPoint: "Anchor-0" 315 -82.5 basechar 0
LayerCount: 2
Fore
SplineSet
261 519.75 m 1
 209.25 576.75 l 1
 261 633 l 1
 312 576.75 l 1
 261 519.75 l 1
210.75 392.25 m 1
 159 449.25 l 1
 210.75 505.5 l 1
 261.75 449.25 l 1
 210.75 392.25 l 1
335.25 392.25 m 1
 283.5 449.25 l 1
 335.25 505.5 l 1
 386.25 449.25 l 1
 335.25 392.25 l 1
159.75 0 m 2
 63.75 0 0 51 0 127.5 c 0
 0 159.75 20.25 226.5 51 294.75 c 1
 76.5 270.75 l 1
 63.75 237.75 54.75 193.5 54.75 158.25 c 0
 54.75 118.5 86.25 73.5 152.25 73.5 c 2
 383.25 73.5 l 2
 442.5 73.5 464.25 117 464.25 141 c 0
 464.25 180 451.5 238.5 432.75 287.25 c 1
 481.5 367.5 l 1
 507.75 300 525 220.5 525 168.75 c 0
 525 67.5 459.75 0 361.5 0 c 2
 159.75 0 l 2
EndSplineSet
Validated: 524289
Substitution2: "'fina' Terminal Forms lookup 31 subtable" uniFE9A
Substitution2: "'medi' Medial Forms lookup 30 subtable" uniFE9C
Substitution2: "'init' Initial Forms lookup 29 subtable" uniFE9B
AlternateSubs2: "'aalt' Access All Alternates lookup 1 subtable" uniFE9B uniFE9C uniFE9A
EndChar

StartChar: uniFE9A
Encoding: 65178 65178 31
Width: 525
VWidth: 750
GlyphClass: 2
Flags: HMW
HStem: 0 73.5<135.75 159.75 159.75 286.5 506.625 521.25 521.25 525>
VStem: 0 52.56 449.25 19.9725
AnchorPoint: "Anchor-1" 240 750 basechar 0
AnchorPoint: "Anchor-0" 285 -82.5 basechar 0
LayerCount: 2
Fore
SplineSet
264.75 478.5 m 1
 213 535.5 l 1
 264.75 591.75 l 1
 315.75 535.5 l 1
 264.75 478.5 l 1
214.5 351 m 1
 162.75 408 l 1
 214.5 464.25 l 1
 265.5 408 l 1
 214.5 351 l 1
339 351 m 1
 287.25 408 l 1
 339 464.25 l 1
 390 408 l 1
 339 351 l 1
159.75 0 m 2
 64.5 0 0 48.75 0 124.5 c 0
 0 178.5 27.75 247.5 57 290.25 c 1
 78 288 l 1
 33 172.5 45 73.5 135.75 73.5 c 2
 327.75 73.5 l 2
 372.75 73.5 408.75 96.75 427.5 144 c 0
 437.25 169.5 442.5 197.25 443.25 207 c 1
 487.5 239.25 l 1
 477.75 186 477.75 191.25 471 159 c 0
 462 108.75 488.25 73.5 525 73.5 c 1
 525 0 l 1
 521.25 0 l 2
 489 0 462.75 33 449.25 105 c 1
 426.75 29.25 376.5 0 286.5 0 c 2
 159.75 0 l 2
EndSplineSet
Validated: 524321
EndChar

StartChar: uniFE9C
Encoding: 65180 65180 32
Width: 525
VWidth: 750
GlyphClass: 2
Flags: HMW
HStem: 0 73.5<0 172.5 172.5 179.25 0 172.5 483.75 525>
VStem: 317.25 62.25<126.75 174>
AnchorPoint: "Anchor-1" 253.5 772.5 basechar 0
AnchorPoint: "Anchor-0" 330 -82.5 basechar 0
LayerCount: 2
Fore
SplineSet
216 519.75 m 1
 164.25 576.75 l 1
 216 633 l 1
 267 576.75 l 1
 216 519.75 l 1
165.75 392.25 m 1
 114 449.25 l 1
 165.75 505.5 l 1
 216.75 449.25 l 1
 165.75 392.25 l 1
290.25 392.25 m 1
 238.5 449.25 l 1
 290.25 505.5 l 1
 341.25 449.25 l 1
 290.25 392.25 l 1
525 73.5 m 1
 525 0 l 1
 416.25 0 368.25 24.75 339 123 c 1
 310.5 35.25 273 0 179.25 0 c 2
 0 0 l 1
 0 73.5 l 1
 172.5 73.5 l 2
 258.75 73.5 317.25 90 317.25 162.75 c 0
 317.25 185.25 314.25 212.25 309.75 242.25 c 1
 379.5 304.5 l 1
 378 268.5 378 150 379.5 126.75 c 0
 382.5 88.5 442.5 73.5 525 73.5 c 1
EndSplineSet
Validated: 524321
EndChar

StartChar: uniFE9B
Encoding: 65179 65179 33
Width: 525
VWidth: 750
GlyphClass: 2
Flags: HMW
HStem: 0 73.5<0 329.25 0 306.75>
VStem: 432 60.75<139.5 148.875>
AnchorPoint: "Anchor-1" 217.5 772.5 basechar 0
AnchorPoint: "Anchor-0" 337.5 -82.5 basechar 0
LayerCount: 2
Fore
SplineSet
182.25 519.75 m 1
 130.5 576.75 l 1
 182.25 633 l 1
 233.25 576.75 l 1
 182.25 519.75 l 1
132 392.25 m 1
 80.25 449.25 l 1
 132 505.5 l 1
 183 449.25 l 1
 132 392.25 l 1
256.5 392.25 m 1
 204.75 449.25 l 1
 256.5 505.5 l 1
 307.5 449.25 l 1
 256.5 392.25 l 1
0 0 m 1
 0 73.5 l 1
 329.25 73.5 l 2
 391.5 73.5 432.75 105 432 139.5 c 0
 432 158.25 417.75 230.25 402 284.25 c 1
 450.75 355.5 l 1
 464.25 312.75 492.75 211.5 492.75 159.75 c 0
 492.75 83.25 432 0 306.75 0 c 2
 0 0 l 1
EndSplineSet
Validated: 524321
EndChar

StartChar: uni0679
Encoding: 1657 1657 34
Width: 525
VWidth: 750
GlyphClass: 2
Flags: HMW
HStem: 0 73.5<152.25 159.75 159.75 361.5> 413.25 33.75 413.25 36.75<133.5 289.125> 525 33<279.375 294> 645.75 15G<198.75 198.75>
VStem: 0 54.75<138.375 143.625> 180 17.25 327 21<466.5 489.75> 464.25 60.75<129 160.5>
AnchorPoint: "Anchor-1" 270 772.5 basechar 0
AnchorPoint: "Anchor-0" 315 -60 basechar 0
LayerCount: 2
Fore
SplineSet
348 480 m 0xbf80
 348 432 317.25 413.25 253.5 413.25 c 2
 133.5 413.25 l 1xbf80
 133.5 437.25 145.5 446.25 153.75 447 c 0
 161.25 447.75 169.5 447.75 174.75 450.75 c 1
 179.25 464.25 180.75 475.5 180 501.75 c 0xdf80
 179.25 563.25 178.5 616.5 174 639 c 1
 198.75 660.75 l 1
 206.25 624.75 l 1
 198.75 601.5 198.75 533.25 197.25 481.5 c 1
 226.5 521.25 262.5 558 296.25 558 c 0
 333 558 348 513.75 348 480 c 0xbf80
283.5 525 m 0
 258.75 525 230.25 492 195 449.25 c 1
 271.5 450 l 2
 306.75 450 327 455.25 327 477.75 c 0
 327 501.75 304.5 525 283.5 525 c 0
481.5 367.5 m 1
 507.75 300 525 220.5 525 168.75 c 0
 525 67.5 459.75 0 361.5 0 c 2
 159.75 0 l 2
 63.75 0 0 51 0 127.5 c 0
 0 159.75 20.25 226.5 51 294.75 c 1
 76.5 270.75 l 1
 63.75 237.75 54.75 193.5 54.75 158.25 c 0
 54.75 118.5 86.25 73.5 152.25 73.5 c 2
 383.25 73.5 l 2
 442.5 73.5 464.25 117 464.25 141 c 0
 464.25 180 451.5 238.5 432.75 287.25 c 1
 481.5 367.5 l 1
EndSplineSet
Validated: 524321
Substitution2: "'fina' Terminal Forms lookup 31 subtable" uniFB67
Substitution2: "'medi' Medial Forms lookup 30 subtable" uniFB69
Substitution2: "'init' Initial Forms lookup 29 subtable" uniFB68
AlternateSubs2: "'aalt' Access All Alternates lookup 1 subtable" uniFB68 uniFB69 uniFB67
EndChar

StartChar: uniFB67
Encoding: 64359 64359 35
Width: 525
VWidth: 750
GlyphClass: 2
Flags: HMW
HStem: 0 73.5<135.75 159.75 159.75 286.5 506.625 521.25 521.25 525> 376.5 36.75<156 311.625> 488.25 33<301.875 316.5>
VStem: 0 52.56 202.5 17.25 349.5 21<429.75 453> 449.25 19.9725
AnchorPoint: "Anchor-1" 240 750 basechar 0
AnchorPoint: "Anchor-0" 285 -82.5 basechar 0
LayerCount: 2
Fore
SplineSet
370.5 443.25 m 0
 370.5 395.25 339.75 376.5 276 376.5 c 2
 156 376.5 l 1
 156 400.5 168 409.5 176.25 410.25 c 0
 183.75 411 192 411 197.25 414 c 1
 201.75 427.5 203.25 438.75 202.5 465 c 0
 201.75 526.5 201 579.75 196.5 602.25 c 1
 221.25 624 l 1
 228.75 588 l 1
 221.25 564.75 221.25 496.5 219.75 444.75 c 1
 249 484.5 285 521.25 318.75 521.25 c 0
 355.5 521.25 370.5 477 370.5 443.25 c 0
306 488.25 m 0
 281.25 488.25 252.75 455.25 217.5 412.5 c 1
 294 413.25 l 2
 329.25 413.25 349.5 418.5 349.5 441 c 0
 349.5 465 327 488.25 306 488.25 c 0
471 159 m 0
 462 108.75 488.25 73.5 525 73.5 c 1
 525 0 l 1
 521.25 0 l 2
 489 0 462.75 33 449.25 105 c 1
 426.75 29.25 376.5 0 286.5 0 c 2
 159.75 0 l 2
 64.5 0 0 48.75 0 124.5 c 0
 0 178.5 27.75 247.5 57 290.25 c 1
 78 288 l 1
 33 172.5 45 73.5 135.75 73.5 c 2
 327.75 73.5 l 2
 372.75 73.5 408.75 96.75 427.5 144 c 0
 437.25 169.5 442.5 197.25 443.25 207 c 1
 487.5 239.25 l 1
 477.75 186 477.75 191.25 471 159 c 0
EndSplineSet
Validated: 524321
EndChar

StartChar: uniFB69
Encoding: 64361 64361 36
Width: 525
VWidth: 750
GlyphClass: 2
Flags: HMW
HStem: 0 73.5<0 172.5 172.5 179.25 0 172.5 483.75 525> 391.5 36.75<88.5 244.125> 444.75 15G 503.25 33<234.375 249>
VStem: 135 17.25 282 21<444.75 468> 317.25 62.25<126.75 174>
AnchorPoint: "Anchor-1" 262.5 772.5 basechar 0
AnchorPoint: "Anchor-0" 330 -82.5 basechar 0
LayerCount: 2
Fore
SplineSet
303 458.25 m 0
 303 410.25 272.25 391.5 208.5 391.5 c 2
 88.5 391.5 l 1
 88.5 415.5 100.5 424.5 108.75 425.25 c 0
 116.25 426 124.5 426 129.75 429 c 1
 134.25 442.5 135.75 453.75 135 480 c 0
 134.25 541.5 133.5 594.75 129 617.25 c 1
 153.75 639 l 1
 161.25 603 l 1
 153.75 579.75 153.75 511.5 152.25 459.75 c 1
 181.5 499.5 217.5 536.25 251.25 536.25 c 0
 288 536.25 303 492 303 458.25 c 0
238.5 503.25 m 0
 213.75 503.25 185.25 470.25 150 427.5 c 1
 226.5 428.25 l 2
 261.75 428.25 282 433.5 282 456 c 0
 282 480 259.5 503.25 238.5 503.25 c 0
379.5 126.75 m 0xfa
 382.5 88.5 442.5 73.5 525 73.5 c 1
 525 0 l 1
 416.25 0 368.25 24.75 339 123 c 1
 310.5 35.25 273 0 179.25 0 c 2
 0 0 l 1
 0 73.5 l 1
 172.5 73.5 l 2
 258.75 73.5 317.25 90 317.25 162.75 c 0
 317.25 185.25 314.25 212.25 309.75 242.25 c 1
 379.5 304.5 l 1
 378 268.5 378 150 379.5 126.75 c 0xfa
EndSplineSet
Validated: 524321
EndChar

StartChar: uniFB68
Encoding: 64360 64360 37
Width: 525
VWidth: 750
GlyphClass: 2
Flags: HMW
HStem: 0 73.5<0 306.75 0 329.25> 414 33.75 414 36.75<118.5 274.125> 525.75 33<264.375 279>
VStem: 165 17.25 312 21<467.25 490.5> 432 60.75<139.5 148.875>
AnchorPoint: "Anchor-1" 217.5 772.5 basechar 0
AnchorPoint: "Anchor-0" 337.5 -82.5 basechar 0
LayerCount: 2
Fore
SplineSet
333 480.75 m 0xbe
 333 432.75 302.25 414 238.5 414 c 2
 118.5 414 l 1xbe
 118.5 438 130.5 447 138.75 447.75 c 0
 146.25 448.5 154.5 448.5 159.75 451.5 c 1
 164.25 465 165.75 476.25 165 502.5 c 0xde
 164.25 564 163.5 617.25 159 639.75 c 1
 183.75 661.5 l 1
 191.25 625.5 l 1
 183.75 602.25 183.75 534 182.25 482.25 c 1
 211.5 522 247.5 558.75 281.25 558.75 c 0
 318 558.75 333 514.5 333 480.75 c 0xbe
268.5 525.75 m 0
 243.75 525.75 215.25 492.75 180 450 c 1
 256.5 450.75 l 2
 291.75 450.75 312 456 312 478.5 c 0
 312 502.5 289.5 525.75 268.5 525.75 c 0
450.75 355.5 m 1
 464.25 312.75 492.75 211.5 492.75 159.75 c 0
 492.75 83.25 432 0 306.75 0 c 2
 0 0 l 1
 0 73.5 l 1
 329.25 73.5 l 2
 391.5 73.5 432.75 105 432 139.5 c 0
 432 158.25 417.75 230.25 402 284.25 c 1
 450.75 355.5 l 1
EndSplineSet
Validated: 524321
EndChar

StartChar: uni062C
Encoding: 1580 1580 38
Width: 525
VWidth: 750
GlyphClass: 2
Flags: HMW
HStem: -364.5 70.5<207.375 306.375> 274.5 74.25<210.375 255>
VStem: 24.75 57.75<-163.875 -47.25>
AnchorPoint: "Anchor-1" 262.5 507.75 basechar 0
AnchorPoint: "Anchor-0" 315 -420 basechar 0
LayerCount: 2
Fore
SplineSet
272.25 -294 m 0
 358.5 -294 423 -254.25 466.5 -211.5 c 1
 477.75 -225 l 1
 440.25 -293.25 367.5 -364.5 245.25 -364.5 c 0
 106.5 -364.5 24.75 -273.75 24.75 -135 c 0
 24.75 40.5 156.75 171 406.5 221.25 c 1
 332.25 252.75 284.25 274.5 225.75 274.5 c 0
 171.75 274.5 113.25 255.75 66 228 c 1
 60 232.5 l 1
 92.25 303.75 l 1
 135 336 186.75 348.75 234 348.75 c 0
 346.5 348.75 370.5 277.5 498 273 c 1
 499.5 255 474.75 207.75 468.75 192 c 1
 369.75 198 82.5 110.25 82.5 -112.5 c 0
 82.5 -215.25 142.5 -294 272.25 -294 c 0
327.75 -99.75 m 1
 276 -42.75 l 1
 327.75 13.5 l 1
 378.75 -42.75 l 1
 327.75 -99.75 l 1
EndSplineSet
Validated: 524321
Substitution2: "'fina' Terminal Forms lookup 31 subtable" uniFE9E
Substitution2: "'medi' Medial Forms lookup 30 subtable" uniFEA0
Substitution2: "'init' Initial Forms lookup 29 subtable" uniFE9F
AlternateSubs2: "'aalt' Access All Alternates lookup 1 subtable" uniFE9F uniFEA0 uniFE9E
EndChar

StartChar: uniFE9E
Encoding: 65182 65182 39
Width: 525
VWidth: 750
GlyphClass: 2
Flags: HMW
HStem: -351 70.5<207.375 306.375> 0 73.5<447 462 462 525> 288 74.25<210.375 255>
VStem: 24.75 57.75<-150.375 -33.75>
AnchorPoint: "Anchor-1" 262.5 585 basechar 0
AnchorPoint: "Anchor-0" 315 -420 basechar 0
LayerCount: 2
Fore
SplineSet
462 0 m 2
 384 0 330 57.75 327 179.25 c 1
 212.25 139.5 82.5 50.25 82.5 -99 c 0
 82.5 -201.75 142.5 -280.5 272.25 -280.5 c 0
 358.5 -280.5 423 -240.75 466.5 -198 c 1
 477.75 -211.5 l 1
 440.25 -279.75 367.5 -351 245.25 -351 c 0
 106.5 -351 24.75 -260.25 24.75 -121.5 c 0
 24.75 54 156.75 184.5 406.5 234.75 c 1
 332.25 266.25 284.25 288 225.75 288 c 0
 171.75 288 113.25 269.25 66 241.5 c 1
 60 246 l 1
 92.25 317.25 l 1
 135 349.5 186.75 362.25 234 362.25 c 0
 346.5 362.25 370.5 291 498 286.5 c 1
 499.5 268.5 474.75 221.25 468.75 205.5 c 1
 443.25 207 404.25 202.5 361.5 190.5 c 1
 372 93.75 405.75 73.5 447 73.5 c 2
 525 73.5 l 1
 525 0 l 1
 462 0 l 2
297 -155.25 m 1
 245.25 -98.25 l 1
 297 -42 l 1
 348 -98.25 l 1
 297 -155.25 l 1
EndSplineSet
Validated: 524321
EndChar

StartChar: uniFEA0
Encoding: 65184 65184 40
Width: 525
VWidth: 750
GlyphClass: 2
Flags: HMW
HStem: 0 73.5<0 138.75 138.75 145.5 0 138.75 508.5 525> 285 72.75<220.875 250.5>
VStem: 430.5 25.5
AnchorPoint: "Anchor-1" 285 585 basechar 0
AnchorPoint: "Anchor-0" 315 -375 basechar 0
LayerCount: 2
Fore
SplineSet
508.5 73.5 m 2
 525 73.5 l 1
 525 0 l 1
 508.5 0 l 2
 443.25 0 432 88.5 430.5 140.25 c 1
 416.25 120 397.5 98.25 370.5 75 c 0
 285.75 2.25 212.25 0 145.5 0 c 2
 0 0 l 1
 0 73.5 l 1
 138.75 73.5 l 2
 180.75 73.5 303 76.5 382.5 135.75 c 0
 414.75 159.75 429 185.25 448.5 231 c 1
 327.75 274.5 273.75 285 227.25 285 c 0
 172.5 285 136.5 270.75 95.25 237.75 c 1
 89.25 242.25 l 1
 108 312.75 l 1
 151.5 342.75 197.25 357.75 244.5 357.75 c 0
 343.5 357.75 423.75 291 509.25 277.5 c 1
 498.75 218.25 l 1
 480 217.5 470.25 202.5 456 179.25 c 1
 456 105.75 461.25 73.5 508.5 73.5 c 2
211.5 -195 m 1
 263.25 -138.75 l 1
 314.25 -195 l 1
 263.25 -252 l 1
 211.5 -195 l 1
EndSplineSet
Validated: 524289
EndChar

StartChar: uniFE9F
Encoding: 65183 65183 41
Width: 525
VWidth: 750
GlyphClass: 2
Flags: HMW
HStem: 0 73.5<0 138.75 0 138.75 138.75 145.5> 284.25 73.5<220.875 242.625>
VStem: 0 509.25<0 277.5 73.5 277.5>
AnchorPoint: "Anchor-1" 285 585 basechar 0
AnchorPoint: "Anchor-0" 315 -375 basechar 0
LayerCount: 2
Fore
SplineSet
0 0 m 1
 0 73.5 l 1
 138.75 73.5 l 2
 180.75 73.5 303 76.5 381.75 135 c 0
 414.75 159.75 429 185.25 448.5 231 c 1
 326.25 275.25 263.25 284.25 222 284.25 c 0
 172.5 284.25 129.75 271.5 90.75 237.75 c 1
 84.75 242.25 l 1
 108 312.75 l 1
 151.5 342.75 197.25 357.75 244.5 357.75 c 0
 343.5 357.75 423.75 291 509.25 277.5 c 1
 498.75 227.25 l 1
 456.75 224.25 468.75 152.25 375 70.5 c 0
 296.25 1.5 205.5 0 145.5 0 c 2
 0 0 l 1
263.25 -252 m 1
 211.5 -195 l 1
 263.25 -138.75 l 1
 314.25 -195 l 1
 263.25 -252 l 1
EndSplineSet
Validated: 524289
EndChar

StartChar: uni0686
Encoding: 1670 1670 42
Width: 525
VWidth: 750
GlyphClass: 2
Flags: HMW
HStem: -364.5 70.5<207.375 306.375> -10.5 15.75G<432.75 432.75> 274.5 74.25<210.375 255>
VStem: 24.75 57.75<-163.875 -47.25>
AnchorPoint: "Anchor-1" 262.5 507.75 basechar 0
AnchorPoint: "Anchor-0" 315 -420 basechar 0
LayerCount: 2
Fore
SplineSet
272.25 -294 m 0
 358.5 -294 423 -254.25 466.5 -211.5 c 1
 477.75 -225 l 1
 440.25 -293.25 367.5 -364.5 245.25 -364.5 c 0
 106.5 -364.5 24.75 -273.75 24.75 -135 c 0
 24.75 40.5 156.75 171 406.5 221.25 c 1
 332.25 252.75 284.25 274.5 225.75 274.5 c 0
 171.75 274.5 113.25 255.75 66 228 c 1
 60 232.5 l 1
 92.25 303.75 l 1
 135 336 186.75 348.75 234 348.75 c 0
 346.5 348.75 370.5 277.5 498 273 c 1
 499.5 255 474.75 207.75 468.75 192 c 1
 369.75 198 82.5 110.25 82.5 -112.5 c 0
 82.5 -215.25 142.5 -294 272.25 -294 c 0
432.75 -10.5 m 1
 385.5 -64.5 l 1
 336.75 -12 l 1
 384 41.25 l 1
 432.75 -10.5 l 1
213 -12.75 m 1
 260.25 39.75 l 1
 308.25 -12 l 1
 261.75 -66 l 1
 213 -12.75 l 1
369 -130.5 m 1
 322.5 -184.5 l 1
 273 -131.25 l 1
 320.25 -78.75 l 1
 369 -130.5 l 1
EndSplineSet
Validated: 524321
Substitution2: "'fina' Terminal Forms lookup 31 subtable" uniFB7B
Substitution2: "'medi' Medial Forms lookup 30 subtable" uniFB7D
Substitution2: "'init' Initial Forms lookup 29 subtable" uniFB7C
AlternateSubs2: "'aalt' Access All Alternates lookup 1 subtable" uniFB7C uniFB7D uniFB7B
EndChar

StartChar: uniFB7B
Encoding: 64379 64379 43
Width: 525
VWidth: 750
GlyphClass: 2
Flags: HMW
HStem: -351 70.5<207.375 306.375> 0 73.5<447 462 462 525> 288 74.25<210.375 255>
VStem: 24.75 57.75<-150.375 -33.75>
AnchorPoint: "Anchor-1" 262.5 525 basechar 0
AnchorPoint: "Anchor-0" 315 -397.5 basechar 0
LayerCount: 2
Fore
SplineSet
525 0 m 1
 462 0 l 2
 384 0 330 57.75 327 179.25 c 1
 212.25 139.5 82.5 50.25 82.5 -99 c 0
 82.5 -201.75 142.5 -280.5 272.25 -280.5 c 0
 358.5 -280.5 423 -240.75 466.5 -198 c 1
 477.75 -211.5 l 1
 440.25 -279.75 367.5 -351 245.25 -351 c 0
 106.5 -351 24.75 -260.25 24.75 -121.5 c 0
 24.75 54 156.75 184.5 406.5 234.75 c 1
 332.25 266.25 284.25 288 225.75 288 c 0
 171.75 288 113.25 269.25 66 241.5 c 1
 60 246 l 1
 92.25 317.25 l 1
 135 349.5 186.75 362.25 234 362.25 c 0
 346.5 362.25 370.5 291 498 286.5 c 1
 499.5 268.5 474.75 221.25 468.75 205.5 c 1
 443.25 207 404.25 202.5 361.5 190.5 c 1
 372 93.75 405.75 73.5 447 73.5 c 2
 525 73.5 l 1
 525 0 l 1
385.5 -51.75 m 1
 340.5 -103.5 l 1
 293.25 -52.5 l 1
 339 -2.25 l 1
 385.5 -51.75 l 1
174.75 -54 m 1
 219.75 -3.75 l 1
 266.25 -52.5 l 1
 222 -104.25 l 1
 174.75 -54 l 1
324 -166.5 m 1
 279.75 -218.25 l 1
 232.5 -168 l 1
 278.25 -117 l 1
 324 -166.5 l 1
EndSplineSet
Validated: 524321
EndChar

StartChar: uniFB7D
Encoding: 64381 64381 44
Width: 525
VWidth: 750
GlyphClass: 2
Flags: HMW
HStem: 0 73.5<0 138.75 138.75 145.5 0 138.75 508.5 525> 285 72.75<220.875 250.5>
VStem: 430.5 25.5
AnchorPoint: "Anchor-1" 285 585 basechar 0
AnchorPoint: "Anchor-0" 285 -435 basechar 0
LayerCount: 2
Fore
SplineSet
508.5 73.5 m 2
 525 73.5 l 1
 525 0 l 1
 508.5 0 l 2
 443.25 0 432 88.5 430.5 140.25 c 1
 416.25 120 397.5 98.25 370.5 75 c 0
 285.75 2.25 212.25 0 145.5 0 c 2
 0 0 l 1
 0 73.5 l 1
 138.75 73.5 l 2
 180.75 73.5 303 76.5 382.5 135.75 c 0
 414.75 159.75 429 185.25 448.5 231 c 1
 327.75 274.5 273.75 285 227.25 285 c 0
 172.5 285 136.5 270.75 95.25 237.75 c 1
 89.25 242.25 l 1
 108 312.75 l 1
 151.5 342.75 197.25 357.75 244.5 357.75 c 0
 343.5 357.75 423.75 291 509.25 277.5 c 1
 498.75 218.25 l 1
 480 217.5 470.25 202.5 456 179.25 c 1
 456 105.75 461.25 73.5 508.5 73.5 c 2
287.25 -170.25 m 1
 336.75 -114.75 l 1
 387 -168.75 l 1
 338.25 -225 l 1
 287.25 -170.25 l 1
207 -116.25 m 1
 257.25 -170.25 l 1
 209.25 -226.5 l 1
 158.25 -171 l 1
 207 -116.25 l 1
221.25 -294.75 m 1
 270 -240 l 1
 320.25 -293.25 l 1
 272.25 -349.5 l 1
 221.25 -294.75 l 1
EndSplineSet
Validated: 524289
EndChar

StartChar: uniFB7C
Encoding: 64380 64380 45
Width: 525
VWidth: 750
GlyphClass: 2
Flags: HMW
HStem: 0 73.5<0 138.75 0 138.75 138.75 145.5> 284.25 73.5<220.875 242.625>
VStem: 0 509.25<0 277.5 73.5 277.5>
AnchorPoint: "Anchor-1" 262.5 525 basechar 0
AnchorPoint: "Anchor-0" 345 -397.5 basechar 0
LayerCount: 2
Fore
SplineSet
0 0 m 1
 0 73.5 l 1
 138.75 73.5 l 2
 180.75 73.5 303 76.5 381.75 135 c 0
 414.75 159.75 429 185.25 448.5 231 c 1
 326.25 275.25 263.25 284.25 222 284.25 c 0
 172.5 284.25 129.75 271.5 90.75 237.75 c 1
 84.75 242.25 l 1
 108 312.75 l 1
 151.5 342.75 197.25 357.75 244.5 357.75 c 0
 343.5 357.75 423.75 291 509.25 277.5 c 1
 498.75 227.25 l 1
 456.75 224.25 468.75 152.25 375 70.5 c 0
 296.25 1.5 205.5 0 145.5 0 c 2
 0 0 l 1
338.25 -225 m 1
 287.25 -170.25 l 1
 336.75 -114.75 l 1
 387 -168.75 l 1
 338.25 -225 l 1
209.25 -226.5 m 1
 158.25 -171 l 1
 207 -116.25 l 1
 257.25 -170.25 l 1
 209.25 -226.5 l 1
272.25 -349.5 m 1
 221.25 -294.75 l 1
 270 -240 l 1
 320.25 -293.25 l 1
 272.25 -349.5 l 1
EndSplineSet
Validated: 524289
EndChar

StartChar: uni062D
Encoding: 1581 1581 46
Width: 525
VWidth: 750
GlyphClass: 2
Flags: HMW
HStem: -364.5 70.5<207.375 306.375> 274.5 74.25<210.375 255>
VStem: 24.75 57.75<-163.875 -47.25>
AnchorPoint: "Anchor-1" 262.5 525 basechar 0
AnchorPoint: "Anchor-0" 315 -397.5 basechar 0
LayerCount: 2
Fore
SplineSet
272.25 -294 m 0
 358.5 -294 423 -254.25 466.5 -211.5 c 1
 477.75 -225 l 1
 440.25 -293.25 367.5 -364.5 245.25 -364.5 c 0
 106.5 -364.5 24.75 -273.75 24.75 -135 c 0
 24.75 40.5 156.75 171 406.5 221.25 c 1
 332.25 252.75 284.25 274.5 225.75 274.5 c 0
 171.75 274.5 113.25 255.75 66 228 c 1
 60 232.5 l 1
 92.25 303.75 l 1
 135 336 186.75 348.75 234 348.75 c 0
 346.5 348.75 370.5 277.5 498 273 c 1
 499.5 255 474.75 207.75 468.75 192 c 1
 369.75 198 82.5 110.25 82.5 -112.5 c 0
 82.5 -215.25 142.5 -294 272.25 -294 c 0
EndSplineSet
Validated: 524321
Substitution2: "'fina' Terminal Forms lookup 31 subtable" uniFEA2
Substitution2: "'medi' Medial Forms lookup 30 subtable" uniFEA4
Substitution2: "'init' Initial Forms lookup 29 subtable" uniFEA3
AlternateSubs2: "'aalt' Access All Alternates lookup 1 subtable" uniFEA3 uniFEA4 uniFEA2
EndChar

StartChar: uniFEA2
Encoding: 65186 65186 47
Width: 525
VWidth: 750
GlyphClass: 2
Flags: HMW
HStem: -351 70.5<207.375 306.375> 0 73.5<447 462 462 525> 288 74.25<210.375 255>
VStem: 24.75 57.75<-150.375 -33.75>
AnchorPoint: "Anchor-1" 262.5 525 basechar 0
AnchorPoint: "Anchor-0" 315 -397.5 basechar 0
LayerCount: 2
Fore
SplineSet
327 179.25 m 1
 212.25 139.5 82.5 50.25 82.5 -99 c 0
 82.5 -201.75 142.5 -280.5 272.25 -280.5 c 0
 358.5 -280.5 423 -240.75 466.5 -198 c 1
 477.75 -211.5 l 1
 440.25 -279.75 367.5 -351 245.25 -351 c 0
 106.5 -351 24.75 -260.25 24.75 -121.5 c 0
 24.75 54 156.75 184.5 406.5 234.75 c 1
 332.25 266.25 284.25 288 225.75 288 c 0
 171.75 288 113.25 269.25 66 241.5 c 1
 60 246 l 1
 92.25 317.25 l 1
 135 349.5 186.75 362.25 234 362.25 c 0
 346.5 362.25 370.5 291 498 286.5 c 1
 499.5 268.5 474.75 221.25 468.75 205.5 c 1
 443.25 207 404.25 202.5 361.5 190.5 c 1
 372 93.75 405.75 73.5 447 73.5 c 2
 525 73.5 l 1
 525 0 l 1
 462 0 l 2
 384 0 330 57.75 327 179.25 c 1
EndSplineSet
Validated: 524321
EndChar

StartChar: uniFEA4
Encoding: 65188 65188 48
Width: 525
VWidth: 750
GlyphClass: 2
Flags: HMW
HStem: 0 73.5<0 138.75 138.75 145.5 0 138.75 508.5 525> 285 72.75<220.875 250.5>
VStem: 430.5 25.5
AnchorPoint: "Anchor-1" 242.25 494.25 basechar 0
AnchorPoint: "Anchor-0" 337.5 -82.5 basechar 0
LayerCount: 2
Fore
SplineSet
508.5 73.5 m 2
 525 73.5 l 1
 525 0 l 1
 508.5 0 l 2
 443.25 0 432 88.5 430.5 140.25 c 1
 416.25 120 397.5 98.25 370.5 75 c 0
 285.75 2.25 212.25 0 145.5 0 c 2
 0 0 l 1
 0 73.5 l 1
 138.75 73.5 l 2
 180.75 73.5 303 76.5 382.5 135.75 c 0
 414.75 159.75 429 185.25 448.5 231 c 1
 327.75 274.5 273.75 285 227.25 285 c 0
 172.5 285 136.5 270.75 95.25 237.75 c 1
 89.25 242.25 l 1
 108 312.75 l 1
 151.5 342.75 197.25 357.75 244.5 357.75 c 0
 343.5 357.75 423.75 291 509.25 277.5 c 1
 498.75 218.25 l 1
 480 217.5 470.25 202.5 456 179.25 c 1
 456 105.75 461.25 73.5 508.5 73.5 c 2
EndSplineSet
Validated: 524289
EndChar

StartChar: uniFEA3
Encoding: 65187 65187 49
Width: 525
VWidth: 750
GlyphClass: 2
Flags: HMW
HStem: 0 73.5<0 138.75 0 138.75 138.75 145.5> 284.25 73.5<220.875 242.625>
VStem: 0 509.25<0 277.5 73.5 277.5>
AnchorPoint: "Anchor-1" 312 549.75 basechar 0
AnchorPoint: "Anchor-0" 315 -82.5 basechar 0
LayerCount: 2
Fore
SplineSet
0 0 m 1
 0 73.5 l 1
 138.75 73.5 l 2
 180.75 73.5 303 76.5 381.75 135 c 0
 414.75 159.75 429 185.25 448.5 231 c 1
 326.25 275.25 263.25 284.25 222 284.25 c 0
 172.5 284.25 129.75 271.5 90.75 237.75 c 1
 84.75 242.25 l 1
 108 312.75 l 1
 151.5 342.75 197.25 357.75 244.5 357.75 c 0
 343.5 357.75 423.75 291 509.25 277.5 c 1
 498.75 227.25 l 1
 456.75 224.25 468.75 152.25 375 70.5 c 0
 296.25 1.5 205.5 0 145.5 0 c 2
 0 0 l 1
EndSplineSet
Validated: 524289
EndChar

StartChar: uni062E
Encoding: 1582 1582 50
Width: 525
VWidth: 750
GlyphClass: 2
Flags: HMW
HStem: -364.5 70.5<207.375 306.375> 274.5 74.25<210.375 255>
VStem: 24.75 57.75<-163.875 -47.25>
AnchorPoint: "Anchor-1" 262.5 682.5 basechar 0
AnchorPoint: "Anchor-0" 315 -397.5 basechar 0
LayerCount: 2
Fore
SplineSet
313.5 525 m 1
 262.5 468 l 1
 210.75 525 l 1
 262.5 581.25 l 1
 313.5 525 l 1
272.25 -294 m 0
 358.5 -294 423 -254.25 466.5 -211.5 c 1
 477.75 -225 l 1
 440.25 -293.25 367.5 -364.5 245.25 -364.5 c 0
 106.5 -364.5 24.75 -273.75 24.75 -135 c 0
 24.75 40.5 156.75 171 406.5 221.25 c 1
 332.25 252.75 284.25 274.5 225.75 274.5 c 0
 171.75 274.5 113.25 255.75 66 228 c 1
 60 232.5 l 1
 92.25 303.75 l 1
 135 336 186.75 348.75 234 348.75 c 0
 346.5 348.75 370.5 277.5 498 273 c 1
 499.5 255 474.75 207.75 468.75 192 c 1
 369.75 198 82.5 110.25 82.5 -112.5 c 0
 82.5 -215.25 142.5 -294 272.25 -294 c 0
EndSplineSet
Validated: 524321
Substitution2: "'fina' Terminal Forms lookup 31 subtable" uniFEA6
Substitution2: "'medi' Medial Forms lookup 30 subtable" uniFEA8
Substitution2: "'init' Initial Forms lookup 29 subtable" uniFEA7
AlternateSubs2: "'aalt' Access All Alternates lookup 1 subtable" uniFEA7 uniFEA8 uniFEA6
EndChar

StartChar: uniFEA6
Encoding: 65190 65190 51
Width: 525
VWidth: 750
GlyphClass: 2
Flags: HMW
HStem: -351 70.5<207.375 306.375> 0 73.5<447 462 462 525> 288 74.25<210.375 255>
VStem: 24.75 57.75<-150.375 -33.75>
AnchorPoint: "Anchor-1" 262.5 682.5 basechar 0
AnchorPoint: "Anchor-0" 315 -397.5 basechar 0
LayerCount: 2
Fore
SplineSet
313.5 525 m 1
 262.5 468 l 1
 210.75 525 l 1
 262.5 581.25 l 1
 313.5 525 l 1
327 179.25 m 1
 212.25 139.5 82.5 50.25 82.5 -99 c 0
 82.5 -201.75 142.5 -280.5 272.25 -280.5 c 0
 358.5 -280.5 423 -240.75 466.5 -198 c 1
 477.75 -211.5 l 1
 440.25 -279.75 367.5 -351 245.25 -351 c 0
 106.5 -351 24.75 -260.25 24.75 -121.5 c 0
 24.75 54 156.75 184.5 406.5 234.75 c 1
 332.25 266.25 284.25 288 225.75 288 c 0
 171.75 288 113.25 269.25 66 241.5 c 1
 60 246 l 1
 92.25 317.25 l 1
 135 349.5 186.75 362.25 234 362.25 c 0
 346.5 362.25 370.5 291 498 286.5 c 1
 499.5 268.5 474.75 221.25 468.75 205.5 c 1
 443.25 207 404.25 202.5 361.5 190.5 c 1
 372 93.75 405.75 73.5 447 73.5 c 2
 525 73.5 l 1
 525 0 l 1
 462 0 l 2
 384 0 330 57.75 327 179.25 c 1
EndSplineSet
Validated: 524321
EndChar

StartChar: uniFEA8
Encoding: 65192 65192 52
Width: 525
VWidth: 750
GlyphClass: 2
Flags: HMW
HStem: 0 73.5<0 138.75 138.75 145.5 0 138.75 508.5 525> 285 72.75<220.875 250.5>
VStem: 430.5 25.5
AnchorPoint: "Anchor-1" 285 690 basechar 0
AnchorPoint: "Anchor-0" 313.5 -102 basechar 0
LayerCount: 2
Fore
SplineSet
343.5 540 m 1
 292.5 483 l 1
 240.75 540 l 1
 292.5 596.25 l 1
 343.5 540 l 1
508.5 73.5 m 2
 525 73.5 l 1
 525 0 l 1
 508.5 0 l 2
 443.25 0 432 88.5 430.5 140.25 c 1
 416.25 120 397.5 98.25 370.5 75 c 0
 285.75 2.25 212.25 0 145.5 0 c 2
 0 0 l 1
 0 73.5 l 1
 138.75 73.5 l 2
 180.75 73.5 303 76.5 382.5 135.75 c 0
 414.75 159.75 429 185.25 448.5 231 c 1
 327.75 274.5 273.75 285 227.25 285 c 0
 172.5 285 136.5 270.75 95.25 237.75 c 1
 89.25 242.25 l 1
 108 312.75 l 1
 151.5 342.75 197.25 357.75 244.5 357.75 c 0
 343.5 357.75 423.75 291 509.25 277.5 c 1
 498.75 218.25 l 1
 480 217.5 470.25 202.5 456 179.25 c 1
 456 105.75 461.25 73.5 508.5 73.5 c 2
EndSplineSet
Validated: 524289
EndChar

StartChar: uniFEA7
Encoding: 65191 65191 53
Width: 525
VWidth: 750
GlyphClass: 2
Flags: HMW
HStem: 0 73.5<0 138.75 0 138.75 138.75 145.5> 284.25 73.5<220.875 242.625>
VStem: 0 509.25<0 277.5 73.5 277.5>
AnchorPoint: "Anchor-1" 285 690 basechar 0
AnchorPoint: "Anchor-0" 315 -82.5 basechar 0
LayerCount: 2
Fore
SplineSet
262.5 483 m 1
 210.75 540 l 1
 262.5 596.25 l 1
 313.5 540 l 1
 262.5 483 l 1
0 0 m 1
 0 73.5 l 1
 138.75 73.5 l 2
 180.75 73.5 303 76.5 381.75 135 c 0
 414.75 159.75 429 185.25 448.5 231 c 1
 326.25 275.25 263.25 284.25 222 284.25 c 0
 172.5 284.25 129.75 271.5 90.75 237.75 c 1
 84.75 242.25 l 1
 108 312.75 l 1
 151.5 342.75 197.25 357.75 244.5 357.75 c 0
 343.5 357.75 423.75 291 509.25 277.5 c 1
 498.75 227.25 l 1
 456.75 224.25 468.75 152.25 375 70.5 c 0
 296.25 1.5 205.5 0 145.5 0 c 2
 0 0 l 1
EndSplineSet
Validated: 524289
EndChar

StartChar: uni062F
Encoding: 1583 1583 54
Width: 525
VWidth: 750
GlyphClass: 2
Flags: HMW
HStem: 0 73.5
VStem: 390.75 44.25
AnchorPoint: "Anchor-1" 255 600 basechar 0
AnchorPoint: "Anchor-0" 337.5 -82.5 basechar 0
LayerCount: 2
Fore
SplineSet
192 0 m 2
 121.5 0 90.75 14.25 90.75 53.25 c 0
 90.75 69.75 96.75 93 111 93 c 0
 126.75 93 133.5 75 171.75 73.5 c 0
 207 72 348 75.75 366.75 81.75 c 0
 391.5 86.25 391.5 105.75 390.75 114 c 0
 382.5 198.75 342 276 238.5 359.25 c 1
 267 433.5 l 1
 394.5 338.25 435 213.75 435 122.25 c 0
 435 87.75 429 51.75 421.5 36.75 c 0
 411.75 18 382.5 0 322.5 0 c 2
 192 0 l 2
EndSplineSet
Validated: 524321
Substitution2: "'fina' Terminal Forms lookup 31 subtable" uniFEAA
Substitution2: "'aalt' Access All Alternates lookup 0 subtable" uniFEAA
EndChar

StartChar: uniFEAA
Encoding: 65194 65194 55
Width: 525
VWidth: 750
GlyphClass: 2
Flags: HMW
HStem: 0 73.5<462 525>
VStem: 304.5 15.75<106.875 159.75>
AnchorPoint: "Anchor-1" 262.5 600 basechar 0
AnchorPoint: "Anchor-0" 337.5 -90 basechar 0
LayerCount: 2
Fore
SplineSet
145.5 0 m 0
 106.5 1.5 69 3 69 52.5 c 0
 69 71.25 74.25 97.5 91.5 97.5 c 0
 108.75 97.5 126 73.5 171 73.5 c 2
 210 73.5 l 2
 269.25 73.5 304.5 74.25 304.5 139.5 c 0
 304.5 180 289.5 243 263.25 345.75 c 1
 315 416.25 l 1
 348 278.25 365.25 157.5 373.5 128.25 c 0
 384 88.5 422.25 73.5 462 73.5 c 2
 525 73.5 l 1
 525 0 l 1
 462 0 l 2
 433.5 0 333.75 0 320.25 105 c 1
 291.75 9 244.5 -3 145.5 0 c 0
EndSplineSet
Validated: 524321
EndChar

StartChar: uni0630
Encoding: 1584 1584 56
Width: 525
VWidth: 750
GlyphClass: 2
Flags: HMW
HStem: 0 73.5
VStem: 390.75 44.25
AnchorPoint: "Anchor-1" 255 750 basechar 0
AnchorPoint: "Anchor-0" 337.5 -82.5 basechar 0
LayerCount: 2
Fore
SplineSet
222.75 512.25 m 1
 171 569.25 l 1
 222.75 625.5 l 1
 273.75 569.25 l 1
 222.75 512.25 l 1
192 0 m 2
 121.5 0 90.75 14.25 90.75 53.25 c 0
 90.75 69.75 96.75 93 111 93 c 0
 126.75 93 133.5 75 171.75 73.5 c 0
 207 72 348 75.75 366.75 81.75 c 0
 391.5 86.25 391.5 105.75 390.75 114 c 0
 382.5 198.75 342 276 238.5 359.25 c 1
 267 433.5 l 1
 394.5 338.25 435 213.75 435 122.25 c 0
 435 87.75 429 51.75 421.5 36.75 c 0
 411.75 18 382.5 0 322.5 0 c 2
 192 0 l 2
EndSplineSet
Validated: 524321
Substitution2: "'fina' Terminal Forms lookup 31 subtable" uniFEAC
Substitution2: "'aalt' Access All Alternates lookup 0 subtable" uniFEAC
EndChar

StartChar: uniFEAC
Encoding: 65196 65196 57
Width: 525
VWidth: 750
GlyphClass: 2
Flags: HMW
HStem: 0 73.5<462 525>
VStem: 304.5 15.75<106.875 159.75>
AnchorPoint: "Anchor-1" 255 720 basechar 0
AnchorPoint: "Anchor-0" 337.5 -90 basechar 0
LayerCount: 2
Fore
SplineSet
258.75 508.5 m 1
 207 565.5 l 1
 258.75 621.75 l 1
 309.75 565.5 l 1
 258.75 508.5 l 1
145.5 0 m 0
 106.5 1.5 69 3 69 52.5 c 0
 69 71.25 74.25 97.5 91.5 97.5 c 0
 108.75 97.5 126 73.5 171 73.5 c 2
 210 73.5 l 2
 269.25 73.5 304.5 74.25 304.5 139.5 c 0
 304.5 180 289.5 243 263.25 345.75 c 1
 315 416.25 l 1
 348 278.25 365.25 157.5 373.5 128.25 c 0
 384 88.5 422.25 73.5 462 73.5 c 2
 525 73.5 l 1
 525 0 l 1
 462 0 l 2
 433.5 0 333.75 0 320.25 105 c 1
 291.75 9 244.5 -3 145.5 0 c 0
EndSplineSet
Validated: 524321
EndChar

StartChar: uni0688
Encoding: 1672 1672 58
Width: 525
VWidth: 750
GlyphClass: 2
Flags: HMW
HStem: 0 73.5 556.5 36.75<135 290.625> 668.25 33<280.875 295.5>
VStem: 181.5 17.25 328.5 21<609.75 633> 390.75 44.25
AnchorPoint: "Anchor-1" 262.5 855 basechar 0
AnchorPoint: "Anchor-0" 337.5 -82.5 basechar 0
LayerCount: 2
Fore
SplineSet
349.5 623.25 m 0
 349.5 575.25 318.75 556.5 255 556.5 c 2
 135 556.5 l 1
 135 580.5 147 589.5 155.25 590.25 c 0
 162.75 591 171 591 176.25 594 c 1
 180.75 607.5 182.25 618.75 181.5 645 c 0
 180.75 706.5 180 759.75 175.5 782.25 c 1
 200.25 804 l 1
 207.75 768 l 1
 200.25 744.75 200.25 676.5 198.75 624.75 c 1
 228 664.5 264 701.25 297.75 701.25 c 0
 334.5 701.25 349.5 657 349.5 623.25 c 0
285 668.25 m 0
 260.25 668.25 231.75 635.25 196.5 592.5 c 1
 273 593.25 l 2
 308.25 593.25 328.5 598.5 328.5 621 c 0
 328.5 645 306 668.25 285 668.25 c 0
267 433.5 m 1
 394.5 338.25 435 213.75 435 122.25 c 0
 435 87.75 429 51.75 421.5 36.75 c 0
 411.75 18 382.5 0 322.5 0 c 2
 192 0 l 2
 121.5 0 90.75 14.25 90.75 53.25 c 0
 90.75 69.75 96.75 93 111 93 c 0
 126.75 93 133.5 75 171.75 73.5 c 0
 207 72 348 75.75 366.75 81.75 c 0
 391.5 86.25 391.5 105.75 390.75 114 c 0
 382.5 198.75 342 276 238.5 359.25 c 1
 267 433.5 l 1
EndSplineSet
Validated: 524321
Substitution2: "'fina' Terminal Forms lookup 31 subtable" uniFB89
Substitution2: "'aalt' Access All Alternates lookup 0 subtable" uniFB89
EndChar

StartChar: uniFB89
Encoding: 64393 64393 59
Width: 525
VWidth: 750
GlyphClass: 2
Flags: HMW
HStem: 0 73.5<462 525> 541.5 36.75<150.75 306.375> 653.25 33<296.625 311.25>
VStem: 197.25 17.25 304.5 15.75<106.875 159.75> 344.25 21<594.75 618>
AnchorPoint: "Anchor-1" 262.5 840 basechar 0
AnchorPoint: "Anchor-0" 337.5 -90 basechar 0
LayerCount: 2
Fore
SplineSet
365.25 608.25 m 0
 365.25 560.25 334.5 541.5 270.75 541.5 c 2
 150.75 541.5 l 1
 150.75 565.5 162.75 574.5 171 575.25 c 0
 178.5 576 186.75 576 192 579 c 1
 196.5 592.5 198 603.75 197.25 630 c 0
 196.5 691.5 195.75 744.75 191.25 767.25 c 1
 216 789 l 1
 223.5 753 l 1
 216 729.75 216 661.5 214.5 609.75 c 1
 243.75 649.5 279.75 686.25 313.5 686.25 c 0
 350.25 686.25 365.25 642 365.25 608.25 c 0
300.75 653.25 m 0
 276 653.25 247.5 620.25 212.25 577.5 c 1
 288.75 578.25 l 2
 324 578.25 344.25 583.5 344.25 606 c 0
 344.25 630 321.75 653.25 300.75 653.25 c 0
462 73.5 m 2
 525 73.5 l 1
 525 0 l 1
 462 0 l 2
 433.5 0 333.75 0 320.25 105 c 1
 291.75 9 244.5 -3 145.5 0 c 0
 106.5 1.5 69 3 69 52.5 c 0
 69 71.25 74.25 97.5 91.5 97.5 c 0
 108.75 97.5 126 73.5 171 73.5 c 2
 210 73.5 l 2
 269.25 73.5 304.5 74.25 304.5 139.5 c 0
 304.5 180 289.5 243 263.25 345.75 c 1
 315 416.25 l 1
 348 278.25 365.25 157.5 373.5 128.25 c 0
 384 88.5 422.25 73.5 462 73.5 c 2
EndSplineSet
Validated: 524321
EndChar

StartChar: uni0631
Encoding: 1585 1585 60
Width: 525
VWidth: 750
GlyphClass: 2
Flags: HMW
HStem: -262.5 49.5<54.75 242.625>
VStem: 378 43.5<53.625 80.625>
AnchorPoint: "Anchor-1" 262.5 450 basechar 0
AnchorPoint: "Anchor-0" 337.5 -375 basechar 0
LayerCount: 2
Fore
SplineSet
149.25 -262.5 m 0
 133.5 -262.5 106.5 -261 54.75 -237.75 c 1
 54.75 -213 l 1
 100.5 -213 l 2
 132.75 -213 197.25 -207.75 255 -166.5 c 0
 349.5 -97.5 378 38.25 378 69 c 0
 378 92.25 356.25 155.25 300.75 238.5 c 1
 329.25 314.25 l 1
 393 223.5 421.5 170.25 421.5 70.5 c 0
 421.5 -104.25 336 -262.5 149.25 -262.5 c 0
EndSplineSet
Validated: 524289
Substitution2: "'fina' Terminal Forms lookup 31 subtable" uniFEAE
Substitution2: "'aalt' Access All Alternates lookup 0 subtable" uniFEAE
EndChar

StartChar: uniFEAE
Encoding: 65198 65198 61
Width: 525
VWidth: 750
GlyphClass: 2
Flags: HMW
HStem: -258.75 48<41.25 153.75> 0 73.5<477.75 492.75 492.75 525>
VStem: 343.5 32.9625
AnchorPoint: "Anchor-1" 262.5 487.5 basechar 0
AnchorPoint: "Anchor-0" 360 -337.5 basechar 0
LayerCount: 2
Fore
SplineSet
124.5 -258.75 m 0
 104.25 -258.75 69 -256.5 41.25 -237.75 c 1
 41.25 -210.75 l 1
 141 -210.75 198 -182.25 238.5 -146.25 c 0
 300 -92.25 343.5 -5.25 343.5 55.5 c 0
 343.5 112.5 306 186 285.75 245.25 c 1
 334.5 294 l 1
 357.75 227.25 391.5 73.5 477.75 73.5 c 2
 525 73.5 l 1
 525 0 l 1
 492.75 0 l 2
 450.75 0 414.75 11.25 374.25 59.25 c 1
 387 -30.75 343.5 -155.25 280.5 -209.25 c 0
 241.5 -242.25 183 -258.75 124.5 -258.75 c 0
EndSplineSet
Validated: 524321
Substitution2: "Single Substitution lookup 54 subtable" uniFEAE.rehAlef
Substitution2: "'aalt' Access All Alternates lookup 0 subtable" uniFEAE.rehAlef
EndChar

StartChar: uniFEAE.rehAlef
Encoding: 1114208 -1 62
Width: 525
VWidth: 750
GlyphClass: 2
Flags: HMW
HStem: -258.75 48<-108.75 3.75> 0 73.5<327.75 342.75 342.75 525>
VStem: 193.5 32.9625
AnchorPoint: "Anchor-1" 172.5 450 basechar 0
AnchorPoint: "Anchor-0" 277.5 -337.5 basechar 0
LayerCount: 2
Fore
SplineSet
525 73.5 m 1
 525 0 l 1
 342.75 0 l 2
 300.75 0 264.75 11.25 224.25 59.25 c 1
 237 -30.75 193.5 -155.25 130.5 -209.25 c 0
 91.5 -242.25 33 -258.75 -25.5 -258.75 c 0
 -45.75 -258.75 -81 -256.5 -108.75 -237.75 c 1
 -108.75 -210.75 l 1
 -9 -210.75 48 -182.25 88.5 -146.25 c 0
 150 -92.25 193.5 -5.25 193.5 55.5 c 0
 193.5 112.5 156 186 135.75 245.25 c 1
 184.5 294 l 1
 207.75 227.25 241.5 73.5 327.75 73.5 c 2
 525 73.5 l 1
EndSplineSet
Validated: 524321
EndChar

StartChar: uni0632
Encoding: 1586 1586 63
Width: 525
VWidth: 750
GlyphClass: 2
Flags: HMW
HStem: -262.5 49.5<54.75 242.625>
VStem: 378 43.5<53.625 80.625>
AnchorPoint: "Anchor-1" 262.5 675 basechar 0
AnchorPoint: "Anchor-0" 337.5 -375 basechar 0
LayerCount: 2
Fore
SplineSet
237 423 m 1
 185.25 480 l 1
 237 536.25 l 1
 288 480 l 1
 237 423 l 1
149.25 -262.5 m 0
 133.5 -262.5 106.5 -261 54.75 -237.75 c 1
 54.75 -213 l 1
 100.5 -213 l 2
 132.75 -213 197.25 -207.75 255 -166.5 c 0
 349.5 -97.5 378 38.25 378 69 c 0
 378 92.25 356.25 155.25 300.75 238.5 c 1
 329.25 314.25 l 1
 393 223.5 421.5 170.25 421.5 70.5 c 0
 421.5 -104.25 336 -262.5 149.25 -262.5 c 0
EndSplineSet
Validated: 524289
Substitution2: "'fina' Terminal Forms lookup 31 subtable" uniFEB0
Substitution2: "'aalt' Access All Alternates lookup 0 subtable" uniFEB0
EndChar

StartChar: uniFEB0
Encoding: 65200 65200 64
Width: 525
VWidth: 750
GlyphClass: 2
Flags: HMW
HStem: -258.75 48<41.25 153.75> 0 73.5<477.75 492.75 492.75 525> 442.5 15G<210.75 210.75 313.5 313.5>
VStem: 343.5 32.9625
AnchorPoint: "Anchor-1" 262.5 675 basechar 0
AnchorPoint: "Anchor-0" 360 -337.5 basechar 0
LayerCount: 2
Fore
SplineSet
262.5 400.5 m 1
 210.75 457.5 l 1
 262.5 513.75 l 1
 313.5 457.5 l 1
 262.5 400.5 l 1
124.5 -258.75 m 0
 104.25 -258.75 69 -256.5 41.25 -237.75 c 1
 41.25 -210.75 l 1
 141 -210.75 198 -182.25 238.5 -146.25 c 0
 300 -92.25 343.5 -5.25 343.5 55.5 c 0
 343.5 112.5 306 186 285.75 245.25 c 1
 334.5 294 l 1
 357.75 227.25 391.5 73.5 477.75 73.5 c 2
 525 73.5 l 1
 525 0 l 1
 492.75 0 l 2
 450.75 0 414.75 11.25 374.25 59.25 c 1
 387 -30.75 343.5 -155.25 280.5 -209.25 c 0
 241.5 -242.25 183 -258.75 124.5 -258.75 c 0
EndSplineSet
Validated: 524321
Substitution2: "Single Substitution lookup 54 subtable" uniFEB0.zainAlef
Substitution2: "'aalt' Access All Alternates lookup 0 subtable" uniFEB0.zainAlef
EndChar

StartChar: uniFEB0.zainAlef
Encoding: 1114209 -1 65
Width: 525
VWidth: 750
GlyphClass: 2
Flags: HMW
HStem: -258.75 48<-108.75 3.75> 0 73.5<327.75 342.75 342.75 525> 442.5 15G<39 39 141.75 141.75>
VStem: 193.5 32.9625
AnchorPoint: "Anchor-1" 75 675 basechar 0
AnchorPoint: "Anchor-0" 255 -337.5 basechar 0
LayerCount: 2
Fore
SplineSet
141.75 457.5 m 1
 90.75 400.5 l 1
 39 457.5 l 1
 90.75 513.75 l 1
 141.75 457.5 l 1
525 73.5 m 1
 525 0 l 1
 342.75 0 l 2
 300.75 0 264.75 11.25 224.25 59.25 c 1
 237 -30.75 193.5 -155.25 130.5 -209.25 c 0
 91.5 -242.25 33 -258.75 -25.5 -258.75 c 0
 -45.75 -258.75 -81 -256.5 -108.75 -237.75 c 1
 -108.75 -210.75 l 1
 -9 -210.75 48 -182.25 88.5 -146.25 c 0
 150 -92.25 193.5 -5.25 193.5 55.5 c 0
 193.5 112.5 156 186 135.75 245.25 c 1
 184.5 294 l 1
 207.75 227.25 241.5 73.5 327.75 73.5 c 2
 525 73.5 l 1
EndSplineSet
Validated: 524321
EndChar

StartChar: uni0691
Encoding: 1681 1681 66
Width: 525
VWidth: 750
GlyphClass: 2
Flags: HMW
HStem: -262.5 49.5<54.75 242.625> 453.75 36.75<193.5 349.125> 565.5 33<339.375 354>
VStem: 240 17.25 378 43.5<53.625 80.625> 387 21<507 530.25>
AnchorPoint: "Anchor-1" 277.5 787.5 basechar 0
AnchorPoint: "Anchor-0" 337.5 -375 basechar 0
LayerCount: 2
Fore
SplineSet
408 520.5 m 0xf4
 408 472.5 377.25 453.75 313.5 453.75 c 2
 193.5 453.75 l 1
 193.5 477.75 205.5 486.75 213.75 487.5 c 0
 221.25 488.25 229.5 488.25 234.75 491.25 c 1
 239.25 504.75 240.75 516 240 542.25 c 0
 239.25 603.75 238.5 657 234 679.5 c 1
 258.75 701.25 l 1
 266.25 665.25 l 1
 258.75 642 258.75 573.75 257.25 522 c 1
 286.5 561.75 322.5 598.5 356.25 598.5 c 0
 393 598.5 408 554.25 408 520.5 c 0xf4
343.5 565.5 m 0
 318.75 565.5 290.25 532.5 255 489.75 c 1
 331.5 490.5 l 2
 366.75 490.5 387 495.75 387 518.25 c 0
 387 542.25 364.5 565.5 343.5 565.5 c 0
329.25 314.25 m 1xf8
 393 223.5 421.5 170.25 421.5 70.5 c 0
 421.5 -104.25 336 -262.5 149.25 -262.5 c 0
 133.5 -262.5 106.5 -261 54.75 -237.75 c 1
 54.75 -213 l 1
 100.5 -213 l 2
 132.75 -213 197.25 -207.75 255 -166.5 c 0
 349.5 -97.5 378 38.25 378 69 c 0
 378 92.25 356.25 155.25 300.75 238.5 c 1
 329.25 314.25 l 1xf8
EndSplineSet
Validated: 524321
Substitution2: "'fina' Terminal Forms lookup 31 subtable" uniFB8D
Substitution2: "'aalt' Access All Alternates lookup 0 subtable" uniFB8D
EndChar

StartChar: uniFB8D
Encoding: 64397 64397 67
Width: 525
VWidth: 750
GlyphClass: 2
Flags: HMW
HStem: -258.75 48<41.25 153.75> 0 73.5<477.75 492.75 492.75 525> 453 36.75<192 347.625> 564.75 33<337.875 352.5>
VStem: 238.5 17.25 343.5 32.9625 385.5 21<506.25 529.5>
AnchorPoint: "Anchor-1" 262.5 787.5 basechar 0
AnchorPoint: "Anchor-0" 360 -337.5 basechar 0
LayerCount: 2
Fore
SplineSet
406.5 519.75 m 0
 406.5 471.75 375.75 453 312 453 c 2
 192 453 l 1
 192 477 204 486 212.25 486.75 c 0
 219.75 487.5 228 487.5 233.25 490.5 c 1
 237.75 504 239.25 515.25 238.5 541.5 c 0
 237.75 603 237 656.25 232.5 678.75 c 1
 257.25 700.5 l 1
 264.75 664.5 l 1
 257.25 641.25 257.25 573 255.75 521.25 c 1
 285 561 321 597.75 354.75 597.75 c 0
 391.5 597.75 406.5 553.5 406.5 519.75 c 0
342 564.75 m 0
 317.25 564.75 288.75 531.75 253.5 489 c 1
 330 489.75 l 2
 365.25 489.75 385.5 495 385.5 517.5 c 0
 385.5 541.5 363 564.75 342 564.75 c 0
477.75 73.5 m 2
 525 73.5 l 1
 525 0 l 1
 492.75 0 l 2
 450.75 0 414.75 11.25 374.25 59.25 c 1
 387 -30.75 343.5 -155.25 280.5 -209.25 c 0
 241.5 -242.25 183 -258.75 124.5 -258.75 c 0
 104.25 -258.75 69 -256.5 41.25 -237.75 c 1
 41.25 -210.75 l 1
 141 -210.75 198 -182.25 238.5 -146.25 c 0
 300 -92.25 343.5 -5.25 343.5 55.5 c 0
 343.5 112.5 306 186 285.75 245.25 c 1
 334.5 294 l 1xfc
 357.75 227.25 391.5 73.5 477.75 73.5 c 2
EndSplineSet
Validated: 524321
EndChar

StartChar: uni0698
Encoding: 1688 1688 68
Width: 525
VWidth: 750
GlyphClass: 2
Flags: HMW
HStem: -262.5 49.5<54.75 242.625> 439.5 15G<195 195 297.75 297.75 319.5 319.5 422.25 422.25>
VStem: 378 43.5<53.625 80.625>
AnchorPoint: "Anchor-1" 277.5 787.5 basechar 0
AnchorPoint: "Anchor-0" 337.5 -375 basechar 0
LayerCount: 2
Fore
SplineSet
297 525 m 1
 245.25 582 l 1
 297 638.25 l 1
 348 582 l 1
 297 525 l 1
246.75 397.5 m 1
 195 454.5 l 1
 246.75 510.75 l 1
 297.75 454.5 l 1
 246.75 397.5 l 1
371.25 397.5 m 1
 319.5 454.5 l 1
 371.25 510.75 l 1
 422.25 454.5 l 1
 371.25 397.5 l 1
149.25 -262.5 m 0
 133.5 -262.5 106.5 -261 54.75 -237.75 c 1
 54.75 -213 l 1
 100.5 -213 l 2
 132.75 -213 197.25 -207.75 255 -166.5 c 0
 349.5 -97.5 378 38.25 378 69 c 0
 378 92.25 356.25 155.25 300.75 238.5 c 1
 329.25 314.25 l 1
 393 223.5 421.5 170.25 421.5 70.5 c 0
 421.5 -104.25 336 -262.5 149.25 -262.5 c 0
EndSplineSet
Validated: 524289
Substitution2: "'fina' Terminal Forms lookup 31 subtable" uniFB8B
Substitution2: "'aalt' Access All Alternates lookup 0 subtable" uniFB8B
EndChar

StartChar: uniFB8B
Encoding: 64395 64395 69
Width: 525
VWidth: 750
GlyphClass: 2
Flags: HMW
HStem: -258.75 48<41.25 153.75> 0 73.5<477.75 492.75 492.75 525> 443.25 15G<186.75 186.75 289.5 289.5 311.25 311.25 414 414>
VStem: 343.5 32.9625
AnchorPoint: "Anchor-1" 262.5 787.5 basechar 0
AnchorPoint: "Anchor-0" 360 -337.5 basechar 0
LayerCount: 2
Fore
SplineSet
288.75 528.75 m 1
 237 585.75 l 1
 288.75 642 l 1
 339.75 585.75 l 1
 288.75 528.75 l 1
238.5 401.25 m 1
 186.75 458.25 l 1
 238.5 514.5 l 1
 289.5 458.25 l 1
 238.5 401.25 l 1
363 401.25 m 1
 311.25 458.25 l 1
 363 514.5 l 1
 414 458.25 l 1
 363 401.25 l 1
124.5 -258.75 m 0
 104.25 -258.75 69 -256.5 41.25 -237.75 c 1
 41.25 -210.75 l 1
 141 -210.75 198 -182.25 238.5 -146.25 c 0
 300 -92.25 343.5 -5.25 343.5 55.5 c 0
 343.5 112.5 306 186 285.75 245.25 c 1
 334.5 294 l 1
 357.75 227.25 391.5 73.5 477.75 73.5 c 2
 525 73.5 l 1
 525 0 l 1
 492.75 0 l 2
 450.75 0 414.75 11.25 374.25 59.25 c 1
 387 -30.75 343.5 -155.25 280.5 -209.25 c 0
 241.5 -242.25 183 -258.75 124.5 -258.75 c 0
EndSplineSet
Validated: 524321
EndChar

StartChar: uni0633
Encoding: 1587 1587 70
Width: 525
VWidth: 750
GlyphClass: 2
Flags: HMW
HStem: -285 73.5<29.625 102.375 29.625 131.25> 3.75 70.5<396.375 417.75> 310.5 15G<512.25 512.25>
VStem: -93.75 34.5<-106.875 -35.25> 198.75 57 323.25 52.5<93.375 123.75 93.375 195.75> 457.5 54.75<108 123.75 123.75 279 279 279>
AnchorPoint: "Anchor-1" 317.25 525 basechar 0
AnchorPoint: "Anchor-0" 375 -232.5 basechar 0
LayerCount: 2
Fore
SplineSet
457.5 279 m 1
 512.25 325.5 l 1
 512.25 123.75 l 2
 512.25 56.25 469.5 6.75 417.75 3.75 c 2
 404.25 3 l 2
 378 1.5 356.25 15.75 342 41.25 c 1
 321.75 19.5 291.75 6 257.25 3 c 1
 255 -187.5 189.75 -285 72.75 -285 c 0
 -34.5 -285 -93.75 -203.25 -93.75 -74.25 c 0
 -93.75 3.75 -72 52.5 -25.5 114 c 1
 -9 90 l 1
 -18.75 75 -59.25 23.25 -59.25 -59.25 c 0
 -59.25 -154.5 -6 -211.5 65.25 -211.5 c 0
 139.5 -211.5 198.75 -151.5 198.75 0.75 c 0
 198.75 62.25 187.5 115.5 176.25 157.5 c 1
 237 179.25 l 1
 247.5 145.5 253.5 109.5 255.75 67.5 c 1
 286.5 68.25 317.25 75.75 323.25 111 c 1
 323.25 123.75 l 1
 323.25 195.75 l 2
 323.25 214.5 333.75 229.5 348.75 229.5 c 0
 365.25 229.5 375 208.5 375 195.75 c 2
 375.75 104.25 l 2
 375.75 82.5 387 74.25 405.75 74.25 c 0
 429.75 74.25 457.5 84.75 457.5 108 c 2
 457.5 279 l 1
EndSplineSet
Validated: 524321
Substitution2: "'fina' Terminal Forms lookup 31 subtable" uniFEB2
Substitution2: "'medi' Medial Forms lookup 30 subtable" uniFEB4
Substitution2: "'init' Initial Forms lookup 29 subtable" uniFEB3
AlternateSubs2: "'aalt' Access All Alternates lookup 1 subtable" uniFEB3 uniFEB4 uniFEB2
EndChar

StartChar: uniFEB2
Encoding: 65202 65202 71
Width: 525
VWidth: 750
GlyphClass: 2
Flags: HMW
HStem: -285 73.5<29.625 102.375 29.625 131.25> 0 15.75G<514.5 525> 0 73.5<522.375 525 522.375 525> 3.375 70.875 310.5 15G<512.25 512.25>
VStem: -93.75 34.5<-106.875 -35.25> 198.75 57 323.25 52.5<93.375 123.75 93.375 195.75> 457.5 54.75<115.5 123.75 123.75 279 279 279>
AnchorPoint: "Anchor-1" 292.5 525 basechar 0
AnchorPoint: "Anchor-0" 375 -232.5 basechar 0
LayerCount: 2
Fore
SplineSet
504.75 77.25 m 1xad80
 511.5 74.25 519.75 73.5 525 73.5 c 1xad80
 525 0 l 1
 504 0 487.5 10.5 477 30.75 c 1xcd80
 460.5 15 440.25 5.25 417.75 3.75 c 2
 404.25 3 l 2
 378 1.5 356.25 15.75 342 41.25 c 1
 321.75 19.5 291.75 6 257.25 3 c 1
 255 -187.5 189.75 -285 72.75 -285 c 0
 -34.5 -285 -93.75 -203.25 -93.75 -74.25 c 0
 -93.75 3.75 -72 52.5 -25.5 114 c 1
 -9 90 l 1
 -18.75 75 -59.25 23.25 -59.25 -59.25 c 0
 -59.25 -154.5 -6 -211.5 65.25 -211.5 c 0
 139.5 -211.5 198.75 -151.5 198.75 0.75 c 0
 198.75 62.25 187.5 115.5 176.25 157.5 c 1
 237 179.25 l 1
 247.5 145.5 253.5 109.5 255.75 67.5 c 1
 286.5 68.25 317.25 75.75 323.25 111 c 1
 323.25 123.75 l 1
 323.25 195.75 l 2
 323.25 214.5 333.75 229.5 348.75 229.5 c 0
 365.25 229.5 375 208.5 375 195.75 c 2
 375.75 104.25 l 2
 375.75 82.5 387 74.25 405.75 74.25 c 0
 429.75 74.25 457.5 84.75 457.5 108 c 2x9f80
 457.5 279 l 1
 512.25 325.5 l 1
 512.25 123.75 l 2
 512.25 107.25 509.25 91.5 504.75 77.25 c 1xad80
EndSplineSet
Validated: 524321
EndChar

StartChar: uniFEB4
Encoding: 65204 65204 72
Width: 525
VWidth: 750
GlyphClass: 2
Flags: HMW
HStem: -3 75<172.875 194.625> 0 73.5<0 18 0 48 515.25 525>
VStem: 0 137.25<0 95.625 73.5 95.625> 279.045 47.955 426 47.25
AnchorPoint: "Anchor-1" 315 525 basechar 0
AnchorPoint: "Anchor-0" 315 -82.5 basechar 0
LayerCount: 2
Fore
SplineSet
462.75 95.25 m 1x58
 474 75.75 505.5 73.5 525 73.5 c 1
 525 0 l 1
 481.5 0 457.5 18.75 442.5 55.5 c 1
 420.75 24 388.5 0 346.5 0 c 0x58
 315 0 291 14.25 279 30 c 1
 244.5 -1.5 202.5 -3 186.75 -3 c 0xb8
 144.75 -3 114 9 105.75 57 c 1
 87.75 23.25 54.75 0 18 0 c 2
 0 0 l 1
 0 73.5 l 1
 48 73.5 l 2x78
 93.75 73.5 96 112.5 107.25 161.25 c 0
 111.75 182.25 117.75 197.25 130.5 197.25 c 0
 141.75 197.25 144 186 144 171 c 0
 144 145.5 137.25 99.75 137.25 91.5 c 0
 137.25 77.25 158.25 72 187.5 72 c 0xb8
 294 72 280.5 141 276 200.25 c 0
 275.25 220.5 282 234.75 300 236.25 c 0
 317.25 237 324.75 228.75 327 177.75 c 0
 327.75 147.75 327 115.5 313.5 80.25 c 1
 331.5 75 351 72.75 367.5 75 c 0
 398.25 78 424.5 96.75 429 120 c 0
 432 138.75 428.25 213.75 426 246 c 0
 424.5 276 466.5 289.5 473.25 247.5 c 0
 478.5 214.5 478.5 162 472.5 129.75 c 0
 470.25 118.5 467.25 106.5 462.75 95.25 c 1x58
EndSplineSet
Validated: 524321
Substitution2: "Single Substitution lookup 54 subtable" uniFEB4.seenYeh
Substitution2: "'aalt' Access All Alternates lookup 0 subtable" uniFEB4.seenYeh
EndChar

StartChar: uniFEB4.seenYeh
Encoding: 1114210 -1 73
Width: 525
VWidth: 750
GlyphClass: 2
Flags: HMW
HStem: -1.5 75<113.25 167.25> 0 77.25 172.5 63<0 18 18 23.25 0 18> 309 15G<453 453>
VStem: 240.9 50.1 399.75 53.25<153 162 162 276.75 276.75 276.75>
AnchorPoint: "Anchor-1" 315 525 basechar 0
AnchorPoint: "Anchor-0" 315 -82.5 basechar 0
LayerCount: 2
Fore
SplineSet
446.25 110.25 m 1xbc
 471.75 76.5 493.5 73.5 525 73.5 c 1xbc
 525 0 l 1
 485.25 0 456 22.5 429.75 68.25 c 1
 407.25 26.25 368.25 0 321.75 0 c 0x7c
 285.75 0 261 16.5 247.5 33.75 c 1
 224.25 12 191.25 -1.5 143.25 -1.5 c 0
 83.25 -1.5 51 17.25 40.5 64.5 c 0
 34.5 100.5 29.25 136.5 23.25 172.5 c 1
 0 172.5 l 1
 0 235.5 l 1
 18 235.5 l 2
 41.25 235.5 64.5 210.75 69 161.25 c 0
 76.5 81.75 73.5 73.5 135.75 73.5 c 0xbc
 253.5 73.5 243 127.5 238.5 206.25 c 0
 238.5 234.75 240 252.75 265.5 254.25 c 0
 285 255 288.75 248.25 291 192.75 c 0
 293.25 153.75 290.25 116.25 279 84.75 c 1
 299.25 77.25 320.25 74.25 339 77.25 c 0
 374.25 79.5 399.75 107.25 399.75 140.25 c 2x7c
 399.75 276.75 l 1
 453 324 l 1
 453 162 l 2
 453 144 450.75 126 446.25 110.25 c 1xbc
EndSplineSet
Validated: 524321
EndChar

StartChar: uniFEB3
Encoding: 65203 65203 74
Width: 525
VWidth: 750
GlyphClass: 2
Flags: HMW
HStem: -1.5 75<171.75 213.375> 0 73.5<0 28.5 0 39> 0 75.75 309 15G<492 492>
VStem: 282 50.25 439.5 52.5<140.25 162 162 276.75 276.75 276.75>
AnchorPoint: "Anchor-1" 315 525 basechar 0
AnchorPoint: "Anchor-0" 315 -82.5 basechar 0
LayerCount: 2
Fore
SplineSet
439.5 276.75 m 1x5c
 492 324 l 1
 492 162 l 2
 492 71.25 438 0 361.5 0 c 0x5c
 324.75 0 301.5 18 287.25 36 c 1
 264 12.75 233.25 -1.5 193.5 -1.5 c 0x9c
 144 -1.5 110.25 10.5 93 54 c 1
 78.75 23.25 57.75 0 28.5 0 c 2
 0 0 l 1
 0 73.5 l 1
 39 73.5 l 2
 72.75 73.5 83.25 124.5 96 185.25 c 0
 101.25 210 105.75 231.75 120 231.75 c 0
 134.25 231.75 135 210.75 135 192.75 c 0
 135 169.5 129 123 114.75 87.75 c 1
 134.25 77.25 150.75 73.5 192.75 73.5 c 0x5c
 285 73.5 282 114.75 282 201.75 c 0
 282 244.5 285.75 258 306.75 258.75 c 0
 326.25 259.5 330 249.75 332.25 174 c 0
 333 141.75 328.5 111 318 84.75 c 1
 336 77.25 356.25 74.25 375 75.75 c 0
 412.5 78 439.5 105.75 439.5 140.25 c 2x3c
 439.5 276.75 l 1x5c
EndSplineSet
Validated: 524321
Substitution2: "Single Substitution lookup 54 subtable" uniFEB3.seenYeh
Substitution2: "'aalt' Access All Alternates lookup 0 subtable" uniFEB3.seenYeh
EndChar

StartChar: uniFEB3.seenYeh
Encoding: 1114211 -1 75
Width: 525
VWidth: 750
GlyphClass: 2
Flags: HMW
HStem: -1.5 75<113.25 167.25> 0 77.25 172.5 63<0 18 18 23.25 0 18> 309 15G<453 453>
VStem: 240.9 50.1 399.75 53.25<140.25 162 162 276.75 276.75 276.75>
AnchorPoint: "Anchor-1" 315 525 basechar 0
AnchorPoint: "Anchor-0" 312 -82.5 basechar 0
LayerCount: 2
Fore
SplineSet
399.75 276.75 m 1xbc
 453 324 l 1
 453 162 l 2
 453 71.25 398.25 0 321.75 0 c 0x7c
 285.75 0 261 16.5 247.5 33.75 c 1
 224.25 12 191.25 -1.5 143.25 -1.5 c 0
 83.25 -1.5 51 17.25 40.5 64.5 c 0
 34.5 100.5 29.25 136.5 23.25 172.5 c 1
 0 172.5 l 1
 0 235.5 l 1
 18 235.5 l 2
 41.25 235.5 64.5 210.75 69 161.25 c 0
 76.5 81.75 73.5 73.5 135.75 73.5 c 0xbc
 253.5 73.5 243 127.5 238.5 206.25 c 0
 238.5 234.75 240 252.75 265.5 254.25 c 0
 285 255 288.75 248.25 291 192.75 c 0
 293.25 153.75 290.25 116.25 279 84.75 c 1
 299.25 77.25 320.25 74.25 339 77.25 c 0
 374.25 79.5 399.75 107.25 399.75 140.25 c 2x7c
 399.75 276.75 l 1xbc
EndSplineSet
Validated: 524321
EndChar

StartChar: uni0634
Encoding: 1588 1588 76
Width: 525
VWidth: 750
GlyphClass: 2
Flags: HMW
HStem: -285 73.5<29.625 102.375 29.625 131.25> 3.75 70.5<396.375 417.75> 310.5 15G<512.25 512.25>
VStem: -93.75 34.5<-106.875 -35.25> 198.75 57 323.25 52.5<93.375 123.75 93.375 195.75> 457.5 54.75<108 123.75 123.75 279 279 279>
AnchorPoint: "Anchor-1" 315 757.5 basechar 0
AnchorPoint: "Anchor-0" 375 -232.5 basechar 0
LayerCount: 2
Fore
SplineSet
353.25 573 m 1
 302.25 516 l 1
 250.5 573 l 1
 302.25 629.25 l 1
 353.25 573 l 1
303 445.5 m 1
 252 388.5 l 1
 200.25 445.5 l 1
 252 501.75 l 1
 303 445.5 l 1
376.5 388.5 m 1
 324.75 445.5 l 1
 376.5 501.75 l 1
 427.5 445.5 l 1
 376.5 388.5 l 1
457.5 279 m 1
 512.25 325.5 l 1
 512.25 123.75 l 2
 512.25 56.25 469.5 6.75 417.75 3.75 c 2
 404.25 3 l 2
 378 1.5 356.25 15.75 342 41.25 c 1
 321.75 19.5 291.75 6 257.25 3 c 1
 255 -187.5 189.75 -285 72.75 -285 c 0
 -34.5 -285 -93.75 -203.25 -93.75 -74.25 c 0
 -93.75 3.75 -72 52.5 -25.5 114 c 1
 -9 90 l 1
 -18.75 75 -59.25 23.25 -59.25 -59.25 c 0
 -59.25 -154.5 -6 -211.5 65.25 -211.5 c 0
 139.5 -211.5 198.75 -151.5 198.75 0.75 c 0
 198.75 62.25 187.5 115.5 176.25 157.5 c 1
 237 179.25 l 1
 247.5 145.5 253.5 109.5 255.75 67.5 c 1
 286.5 68.25 317.25 75.75 323.25 111 c 1
 323.25 123.75 l 1
 323.25 195.75 l 2
 323.25 214.5 333.75 229.5 348.75 229.5 c 0
 365.25 229.5 375 208.5 375 195.75 c 2
 375.75 104.25 l 2
 375.75 82.5 387 74.25 405.75 74.25 c 0
 429.75 74.25 457.5 84.75 457.5 108 c 2
 457.5 279 l 1
EndSplineSet
Validated: 524321
Substitution2: "'fina' Terminal Forms lookup 31 subtable" uniFEB6
Substitution2: "'medi' Medial Forms lookup 30 subtable" uniFEB8
Substitution2: "'init' Initial Forms lookup 29 subtable" uniFEB7
AlternateSubs2: "'aalt' Access All Alternates lookup 1 subtable" uniFEB7 uniFEB8 uniFEB6
EndChar

StartChar: uniFEB6
Encoding: 65206 65206 77
Width: 525
VWidth: 750
GlyphClass: 2
Flags: HMW
HStem: -285 73.5<29.625 102.375 29.625 131.25> 0 15.75G<514.5 525> 0 73.5<522.375 525 522.375 525> 3.375 70.875 310.5 15G<512.25 512.25>
VStem: -93.75 34.5<-106.875 -35.25> 198.75 57 323.25 52.5<93.375 123.75 93.375 195.75> 457.5 54.75<115.5 123.75 123.75 279 279 279>
AnchorPoint: "Anchor-1" 300 757.5 basechar 0
AnchorPoint: "Anchor-0" 390 -225 basechar 0
LayerCount: 2
Fore
SplineSet
353.25 573 m 1xcd80
 302.25 516 l 1
 250.5 573 l 1
 302.25 629.25 l 1
 353.25 573 l 1xcd80
303 445.5 m 1
 252 388.5 l 1
 200.25 445.5 l 1
 252 501.75 l 1
 303 445.5 l 1
376.5 388.5 m 1
 324.75 445.5 l 1
 376.5 501.75 l 1
 427.5 445.5 l 1
 376.5 388.5 l 1
504.75 77.25 m 1xad80
 511.5 74.25 519.75 73.5 525 73.5 c 1xad80
 525 0 l 1
 504 0 487.5 10.5 477 30.75 c 1xcd80
 460.5 15 440.25 5.25 417.75 3.75 c 2
 404.25 3 l 2
 378 1.5 356.25 15.75 342 41.25 c 1
 321.75 19.5 291.75 6 257.25 3 c 1
 255 -187.5 189.75 -285 72.75 -285 c 0
 -34.5 -285 -93.75 -203.25 -93.75 -74.25 c 0
 -93.75 3.75 -72 52.5 -25.5 114 c 1
 -9 90 l 1
 -18.75 75 -59.25 23.25 -59.25 -59.25 c 0
 -59.25 -154.5 -6 -211.5 65.25 -211.5 c 0
 139.5 -211.5 198.75 -151.5 198.75 0.75 c 0
 198.75 62.25 187.5 115.5 176.25 157.5 c 1
 237 179.25 l 1
 247.5 145.5 253.5 109.5 255.75 67.5 c 1
 286.5 68.25 317.25 75.75 323.25 111 c 1
 323.25 123.75 l 1
 323.25 195.75 l 2
 323.25 214.5 333.75 229.5 348.75 229.5 c 0
 365.25 229.5 375 208.5 375 195.75 c 2
 375.75 104.25 l 2
 375.75 82.5 387 74.25 405.75 74.25 c 0
 429.75 74.25 457.5 84.75 457.5 108 c 2x9f80
 457.5 279 l 1
 512.25 325.5 l 1
 512.25 123.75 l 2
 512.25 107.25 509.25 91.5 504.75 77.25 c 1xad80
EndSplineSet
Validated: 524321
EndChar

StartChar: uniFEB8
Encoding: 65208 65208 78
Width: 525
VWidth: 750
GlyphClass: 2
Flags: HMW
HStem: -3 75<172.875 194.625> 0 73.5<0 18 0 48 515.25 525>
VStem: 0 137.25<0 95.625 73.5 95.625> 279.045 47.955 426 47.25
AnchorPoint: "Anchor-1" 315 757.5 basechar 0
AnchorPoint: "Anchor-0" 319.5 -102 basechar 0
LayerCount: 2
Fore
SplineSet
353.25 559.5 m 1x58
 302.25 502.5 l 1
 250.5 559.5 l 1
 302.25 615.75 l 1
 353.25 559.5 l 1x58
303 432 m 1
 252 375 l 1
 200.25 432 l 1
 252 488.25 l 1
 303 432 l 1
376.5 375 m 1
 324.75 432 l 1
 376.5 488.25 l 1
 427.5 432 l 1
 376.5 375 l 1
462.75 95.25 m 1
 474 75.75 505.5 73.5 525 73.5 c 1
 525 0 l 1
 481.5 0 457.5 18.75 442.5 55.5 c 1
 420.75 24 388.5 0 346.5 0 c 0x58
 315 0 291 14.25 279 30 c 1
 244.5 -1.5 202.5 -3 186.75 -3 c 0xb8
 144.75 -3 114 9 105.75 57 c 1
 87.75 23.25 54.75 0 18 0 c 2
 0 0 l 1
 0 73.5 l 1
 48 73.5 l 2x78
 93.75 73.5 96 112.5 107.25 161.25 c 0
 111.75 182.25 117.75 197.25 130.5 197.25 c 0
 141.75 197.25 144 186 144 171 c 0
 144 145.5 137.25 99.75 137.25 91.5 c 0
 137.25 77.25 158.25 72 187.5 72 c 0xb8
 294 72 280.5 141 276 200.25 c 0
 275.25 220.5 282 234.75 300 236.25 c 0
 317.25 237 324.75 228.75 327 177.75 c 0
 327.75 147.75 327 115.5 313.5 80.25 c 1
 331.5 75 351 72.75 367.5 75 c 0
 398.25 78 424.5 96.75 429 120 c 0
 432 138.75 428.25 213.75 426 246 c 0
 424.5 276 466.5 289.5 473.25 247.5 c 0
 478.5 214.5 478.5 162 472.5 129.75 c 0
 470.25 118.5 467.25 106.5 462.75 95.25 c 1
EndSplineSet
Validated: 524321
Substitution2: "Single Substitution lookup 54 subtable" uniFEB8.sheenYeh
Substitution2: "'aalt' Access All Alternates lookup 0 subtable" uniFEB8.sheenYeh
EndChar

StartChar: uniFEB8.sheenYeh
Encoding: 1114212 -1 79
Width: 525
VWidth: 750
GlyphClass: 2
Flags: HMW
HStem: -1.5 75<113.25 167.25> 0 77.25 172.5 63<0 18 18 23.25 0 18> 309 15G<453 453> 636.75 15G<324.75 324.75>
VStem: 240.9 50.1 399.75 53.25<153 162 162 276.75 276.75 276.75>
AnchorPoint: "Anchor-1" 324.75 757.5 basechar 0
AnchorPoint: "Anchor-0" 345 -61.5 basechar 0
LayerCount: 2
Fore
SplineSet
375.75 595.5 m 1xbe
 324.75 538.5 l 1
 273 595.5 l 1
 324.75 651.75 l 1
 375.75 595.5 l 1xbe
325.5 468 m 1
 274.5 411 l 1
 222.75 468 l 1
 274.5 524.25 l 1
 325.5 468 l 1
399 411 m 1
 347.25 468 l 1
 399 524.25 l 1
 450 468 l 1
 399 411 l 1
446.25 110.25 m 1
 471.75 76.5 493.5 73.5 525 73.5 c 1xbe
 525 0 l 1
 485.25 0 456 22.5 429.75 68.25 c 1
 407.25 26.25 368.25 0 321.75 0 c 0x7e
 285.75 0 261 16.5 247.5 33.75 c 1
 224.25 12 191.25 -1.5 143.25 -1.5 c 0
 83.25 -1.5 51 17.25 40.5 64.5 c 0
 34.5 100.5 29.25 136.5 23.25 172.5 c 1
 0 172.5 l 1
 0 235.5 l 1
 18 235.5 l 2
 41.25 235.5 64.5 210.75 69 161.25 c 0
 76.5 81.75 73.5 73.5 135.75 73.5 c 0xbe
 253.5 73.5 243 127.5 238.5 206.25 c 0
 238.5 234.75 240 252.75 265.5 254.25 c 0
 285 255 288.75 248.25 291 192.75 c 0
 293.25 153.75 290.25 116.25 279 84.75 c 1
 299.25 77.25 320.25 74.25 339 77.25 c 0
 374.25 79.5 399.75 107.25 399.75 140.25 c 2x7e
 399.75 276.75 l 1
 453 324 l 1
 453 162 l 2
 453 144 450.75 126 446.25 110.25 c 1
EndSplineSet
Validated: 524321
EndChar

StartChar: uniFEB7
Encoding: 65207 65207 80
Width: 525
VWidth: 750
GlyphClass: 2
Flags: HMW
HStem: -1.5 75<171.75 213.375> 0 73.5<0 28.5 0 39> 0 75.75 309 15G<492 492> 636.75 15G<294.75 294.75>
VStem: 282 50.25 439.5 52.5<140.25 162 162 276.75 276.75 276.75>
AnchorPoint: "Anchor-1" 300 757.5 basechar 0
AnchorPoint: "Anchor-0" 310.5 -88.5 basechar 0
LayerCount: 2
Fore
SplineSet
345.75 595.5 m 1x5e
 294.75 538.5 l 1
 243 595.5 l 1
 294.75 651.75 l 1
 345.75 595.5 l 1x5e
295.5 468 m 1
 244.5 411 l 1
 192.75 468 l 1
 244.5 524.25 l 1
 295.5 468 l 1
369 411 m 1
 317.25 468 l 1
 369 524.25 l 1
 420 468 l 1
 369 411 l 1
439.5 276.75 m 1
 492 324 l 1
 492 162 l 2
 492 71.25 438 0 361.5 0 c 0x5e
 324.75 0 301.5 18 287.25 36 c 1
 264 12.75 233.25 -1.5 193.5 -1.5 c 0x9e
 144 -1.5 110.25 10.5 93 54 c 1
 78.75 23.25 57.75 0 28.5 0 c 2
 0 0 l 1
 0 73.5 l 1
 39 73.5 l 2
 72.75 73.5 83.25 124.5 96 185.25 c 0
 101.25 210 105.75 231.75 120 231.75 c 0
 134.25 231.75 135 210.75 135 192.75 c 0
 135 169.5 129 123 114.75 87.75 c 1
 134.25 77.25 150.75 73.5 192.75 73.5 c 0x5e
 285 73.5 282 114.75 282 201.75 c 0
 282 244.5 285.75 258 306.75 258.75 c 0
 326.25 259.5 330 249.75 332.25 174 c 0
 333 141.75 328.5 111 318 84.75 c 1
 336 77.25 356.25 74.25 375 75.75 c 0
 412.5 78 439.5 105.75 439.5 140.25 c 2x3e
 439.5 276.75 l 1
EndSplineSet
Validated: 524321
Substitution2: "Single Substitution lookup 54 subtable" uniFEB7.sheenYeh
Substitution2: "'aalt' Access All Alternates lookup 0 subtable" uniFEB7.sheenYeh
EndChar

StartChar: uniFEB7.sheenYeh
Encoding: 1114213 -1 81
Width: 525
VWidth: 750
GlyphClass: 2
Flags: HMW
HStem: -1.5 75<113.25 167.25> 0 77.25 172.5 63<0 18 18 23.25 0 18> 309 15G<453 453> 636.75 15G<294.75 294.75>
VStem: 240.9 50.1 399.75 53.25<140.25 162 162 276.75 276.75 276.75>
AnchorPoint: "Anchor-1" 292.5 757.5 basechar 0
AnchorPoint: "Anchor-0" 306 -70.5 basechar 0
LayerCount: 2
Fore
SplineSet
345.75 595.5 m 1xbe
 294.75 538.5 l 1
 243 595.5 l 1
 294.75 651.75 l 1
 345.75 595.5 l 1xbe
295.5 468 m 1
 244.5 411 l 1
 192.75 468 l 1
 244.5 524.25 l 1
 295.5 468 l 1
369 411 m 1
 317.25 468 l 1
 369 524.25 l 1
 420 468 l 1
 369 411 l 1
399.75 276.75 m 1
 453 324 l 1
 453 162 l 2
 453 71.25 398.25 0 321.75 0 c 0x7e
 285.75 0 261 16.5 247.5 33.75 c 1
 224.25 12 191.25 -1.5 143.25 -1.5 c 0
 83.25 -1.5 51 17.25 40.5 64.5 c 0
 34.5 100.5 29.25 136.5 23.25 172.5 c 1
 0 172.5 l 1
 0 235.5 l 1
 18 235.5 l 2
 41.25 235.5 64.5 210.75 69 161.25 c 0
 76.5 81.75 73.5 73.5 135.75 73.5 c 0xbe
 253.5 73.5 243 127.5 238.5 206.25 c 0
 238.5 234.75 240 252.75 265.5 254.25 c 0
 285 255 288.75 248.25 291 192.75 c 0
 293.25 153.75 290.25 116.25 279 84.75 c 1
 299.25 77.25 320.25 74.25 339 77.25 c 0
 374.25 79.5 399.75 107.25 399.75 140.25 c 2x7e
 399.75 276.75 l 1
EndSplineSet
Validated: 524321
EndChar

StartChar: uni0635
Encoding: 1589 1589 82
Width: 525
VWidth: 750
GlyphClass: 2
Flags: HMW
HStem: -285 73.5<29.625 102.375 29.625 131.25> 0 73.5<265.5 381.75> 291 64.5<393 442.5>
VStem: -93.75 34.5<-106.875 -35.25> 198.75 58.5 478.5 43.5<113.625 174.375>
AnchorPoint: "Anchor-1" 330 525 basechar 0
AnchorPoint: "Anchor-0" 315 -315 basechar 0
LayerCount: 2
Fore
SplineSet
430.5 355.5 m 0
 504 355.5 522 254.25 522 163.5 c 0
 522 30 417.75 0 345.75 0 c 0
 306 0 277.5 1.5 257.25 3.75 c 1
 255 -187.5 189.75 -285 72.75 -285 c 0
 -34.5 -285 -93.75 -203.25 -93.75 -74.25 c 0
 -93.75 3.75 -76.5 52.5 -34.5 114 c 1
 -18 90 l 1
 -23.25 75 -59.25 23.25 -59.25 -59.25 c 0
 -59.25 -154.5 -6 -211.5 65.25 -211.5 c 0
 139.5 -211.5 198.75 -151.5 198.75 0.75 c 0
 198.75 62.25 183 142.5 171.75 184.5 c 1
 232.5 206.25 l 1
 239.25 184.5 246 151.5 250.5 118.5 c 1
 288.75 225.75 336.75 355.5 430.5 355.5 c 0
269.25 73.5 m 2
 360 73.5 478.5 66 478.5 161.25 c 0
 478.5 187.5 467.25 291 417.75 291 c 0
 368.25 291 313.5 201 265.5 73.5 c 1
 269.25 73.5 l 2
EndSplineSet
Validated: 524321
Substitution2: "'fina' Terminal Forms lookup 31 subtable" uniFEBA
Substitution2: "'medi' Medial Forms lookup 30 subtable" uniFEBC
Substitution2: "'init' Initial Forms lookup 29 subtable" uniFEBB
AlternateSubs2: "'aalt' Access All Alternates lookup 1 subtable" uniFEBB uniFEBC uniFEBA
EndChar

StartChar: uniFEBA
Encoding: 65210 65210 83
Width: 525
VWidth: 750
GlyphClass: 2
Flags: HMW
HStem: -285 73.5<29.625 102.375 29.625 131.25> 0 73.5<265.5 345.75 500.25 525> 291 64.5<393 442.5>
VStem: -93.75 34.5<-106.875 -35.25> 198.75 58.5 478.5 43.5<144.75 174.375>
AnchorPoint: "Anchor-1" 300 525 basechar 0
AnchorPoint: "Anchor-0" 315 -315 basechar 0
LayerCount: 2
Fore
SplineSet
500.25 73.5 m 1
 525 73.5 l 1
 525 0 l 1
 353.25 0 l 1
 345.75 0 l 2
 306 0 277.5 1.5 257.25 3.75 c 1
 255 -187.5 189.75 -285 72.75 -285 c 0
 -34.5 -285 -93.75 -203.25 -93.75 -74.25 c 0
 -93.75 3.75 -76.5 52.5 -34.5 114 c 1
 -18 90 l 1
 -23.25 75 -59.25 23.25 -59.25 -59.25 c 0
 -59.25 -154.5 -6 -211.5 65.25 -211.5 c 0
 139.5 -211.5 198.75 -151.5 198.75 0.75 c 0
 198.75 62.25 183 142.5 171.75 184.5 c 1
 232.5 206.25 l 1
 239.25 184.5 246 151.5 250.5 118.5 c 1
 288.75 225.75 336.75 355.5 430.5 355.5 c 0
 504 355.5 522 254.25 522 163.5 c 0
 522 126 513.75 96 500.25 73.5 c 1
269.25 73.5 m 2
 360 73.5 478.5 66 478.5 161.25 c 0
 478.5 187.5 467.25 291 417.75 291 c 0
 368.25 291 313.5 201 265.5 73.5 c 1
 269.25 73.5 l 2
EndSplineSet
Validated: 524321
EndChar

StartChar: uniFEBC
Encoding: 65212 65212 84
Width: 525
VWidth: 750
GlyphClass: 2
Flags: HMW
HStem: 0 73.5<0 13.125 141.375 171 171 310.5 310.5 352.5> 297 72<342.375 393.375>
VStem: 0 81.75 62.25 45<97.875 211.5> 459 36.75<140.25 185.25>
AnchorPoint: "Anchor-1" 262.5 532.5 basechar 0
AnchorPoint: "Anchor-0" 345 -82.5 basechar 0
LayerCount: 2
Fore
SplineSet
460.5 72.75 m 1xd8
 525 73.5 l 1
 525 0 l 1
 171 0 l 2
 111.75 0 87.75 33 81.75 44.25 c 1
 78.75 9.75 26.25 0 0 0 c 1
 0 73.5 l 1xe8
 46.5 73.5 l 2
 53.25 73.5 62.25 83.25 62.25 109.5 c 2
 62.25 211.5 l 1
 108.75 211.5 l 1
 107.25 103.5 l 2
 107.25 92.25 107.25 86.25 105.75 83.25 c 1
 110.25 85.5 116.25 89.25 119.25 93.75 c 0
 211.5 252.75 303.75 369 381 369 c 0
 457.5 369 495.75 257.25 495.75 162.75 c 0
 495.75 117.75 484.5 86.25 460.5 72.75 c 1xd8
310.5 73.5 m 2
 394.5 73.5 459 87.75 459 157.5 c 0
 459 213 422.25 297 364.5 297 c 0
 295.5 297 210 180 138 73.5 c 1
 310.5 73.5 l 2
EndSplineSet
Validated: 524289
Substitution2: "Single Substitution lookup 54 subtable" uniFEBC.sadYeh
Substitution2: "'aalt' Access All Alternates lookup 0 subtable" uniFEBC.sadYeh
EndChar

StartChar: uniFEBC.sadYeh
Encoding: 1114214 -1 85
Width: 525
VWidth: 750
GlyphClass: 2
Flags: HMW
HStem: 0 73.5<150 203.25 271.5 324 324 372 490.5 525 271.5 271.5> 172.5 63<0 18 18 24 0 18> 289.5 82.5<355.5 397.875>
VStem: 462 49.5<148.5 184.5>
AnchorPoint: "Anchor-1" 262.5 525 basechar 0
AnchorPoint: "Anchor-0" 345 -82.5 basechar 0
LayerCount: 2
Fore
SplineSet
490.5 73.5 m 1
 525 73.5 l 1
 525 0 l 1
 271.5 0 l 1
 271.5 0.75 l 1
 246 0 218.25 0 188.25 0 c 0
 86.25 0 51.75 13.5 39.75 75.75 c 2
 24 172.5 l 1
 0 172.5 l 1
 0 235.5 l 1
 18 235.5 l 2
 39.75 235.5 63 202.5 66.75 148.5 c 0
 72 85.5 78 73.5 98.25 73.5 c 0
 118.5 73.5 124.5 81.75 135 102 c 0
 213 265.5 317.25 372 393.75 372 c 0
 470.25 372 511.5 264.75 511.5 168.75 c 0
 511.5 128.25 504.75 96.75 490.5 73.5 c 1
150 73.5 m 1
 324 73.5 l 2
 420 73.5 462 84 462 150 c 0
 462 219 426 289.5 369.75 289.5 c 0
 303 289.5 219.75 189.75 150 73.5 c 1
EndSplineSet
Validated: 524289
EndChar

StartChar: uniFEBB
Encoding: 65211 65211 86
Width: 525
VWidth: 750
GlyphClass: 2
Flags: HMW
HStem: 0 73.5<0 13.125 150 294.75> 289.5 75.75<354 398.25>
VStem: 33.75 44.25<165.75 166.5 166.5 180.75 165.75 181.125> 471 43.5<121.875 184.5>
AnchorPoint: "Anchor-1" 262.5 525 basechar 0
AnchorPoint: "Anchor-0" 345 -82.5 basechar 0
LayerCount: 2
Fore
SplineSet
0 0 m 1
 0 73.5 l 1
 15.75 73.5 l 2
 28.5 73.5 33.75 82.5 33.75 120.75 c 2
 33.75 166.5 l 2
 33.75 195.75 40.5 211.5 56.25 211.5 c 0
 72.75 211.5 78 195.75 78 165.75 c 2
 77.25 103.5 l 2
 77.25 81 78 73.5 104.25 73.5 c 0
 116.25 73.5 123.75 79.5 129.75 93.75 c 0
 202.5 252.75 314.25 365.25 393.75 365.25 c 0
 468 365.25 514.5 264.75 514.5 170.25 c 0
 514.5 44.25 438 0 294.75 0 c 2
 145.5 0 l 2
 111.75 0 74.25 33 68.25 44.25 c 1
 60.75 24 26.25 0 0 0 c 1
150 73.5 m 1
 339.75 73.5 l 2
 438.75 73.5 471 92.25 471 151.5 c 0
 471 217.5 425.25 289.5 371.25 289.5 c 0
 302.25 289.5 219.75 189.75 150 73.5 c 1
EndSplineSet
Validated: 524289
Substitution2: "Single Substitution lookup 54 subtable" uniFEBB.sadYeh
Substitution2: "'aalt' Access All Alternates lookup 0 subtable" uniFEBB.sadYeh
EndChar

StartChar: uniFEBB.sadYeh
Encoding: 1114215 -1 87
Width: 525
VWidth: 750
GlyphClass: 2
Flags: HMW
HStem: 0 73.5<150 293.625> 172.5 63<0 18 18 24 0 18> 289.5 82.5<355.5 397.875>
VStem: 462 49.5<117 184.5>
AnchorPoint: "Anchor-1" 300 525 basechar 0
AnchorPoint: "Anchor-0" 360 -82.5 basechar 0
LayerCount: 2
Fore
SplineSet
188.25 0 m 0
 86.25 0 51.75 13.5 39.75 75.75 c 2
 24 172.5 l 1
 0 172.5 l 1
 0 235.5 l 1
 18 235.5 l 2
 39.75 235.5 63 202.5 66.75 148.5 c 0
 72 85.5 78 73.5 98.25 73.5 c 0
 118.5 73.5 124.5 81.75 135 102 c 0
 213 265.5 317.25 372 393.75 372 c 0
 470.25 372 511.5 264.75 511.5 168.75 c 0
 511.5 4.5 399 0 188.25 0 c 0
150 73.5 m 1
 324 73.5 l 2
 420 73.5 462 84 462 150 c 0
 462 219 426 289.5 369.75 289.5 c 0
 303 289.5 219.75 189.75 150 73.5 c 1
EndSplineSet
Validated: 524289
EndChar

StartChar: uni0636
Encoding: 1590 1590 88
Width: 525
VWidth: 750
GlyphClass: 2
Flags: HMW
HStem: -285 73.5<29.625 102.375 29.625 131.25> 0 73.5<265.5 381.75> 291 64.5<393 442.5>
VStem: -93.75 34.5<-106.875 -35.25> 198.75 58.5 478.5 43.5<113.625 174.375>
AnchorPoint: "Anchor-1" 337.5 675 basechar 0
AnchorPoint: "Anchor-0" 315 -315 basechar 0
LayerCount: 2
Fore
SplineSet
401.25 495 m 1
 350.25 438 l 1
 298.5 495 l 1
 350.25 551.25 l 1
 401.25 495 l 1
430.5 355.5 m 0
 504 355.5 522 254.25 522 163.5 c 0
 522 30 417.75 0 345.75 0 c 0
 306 0 277.5 1.5 257.25 3.75 c 1
 255 -187.5 189.75 -285 72.75 -285 c 0
 -34.5 -285 -93.75 -203.25 -93.75 -74.25 c 0
 -93.75 3.75 -76.5 52.5 -34.5 114 c 1
 -18 90 l 1
 -23.25 75 -59.25 23.25 -59.25 -59.25 c 0
 -59.25 -154.5 -6 -211.5 65.25 -211.5 c 0
 139.5 -211.5 198.75 -151.5 198.75 0.75 c 0
 198.75 62.25 183 142.5 171.75 184.5 c 1
 232.5 206.25 l 1
 239.25 184.5 246 151.5 250.5 118.5 c 1
 288.75 225.75 336.75 355.5 430.5 355.5 c 0
269.25 73.5 m 2
 360 73.5 478.5 66 478.5 161.25 c 0
 478.5 187.5 467.25 291 417.75 291 c 0
 368.25 291 313.5 201 265.5 73.5 c 1
 269.25 73.5 l 2
EndSplineSet
Validated: 524321
Substitution2: "'fina' Terminal Forms lookup 31 subtable" uniFEBE
Substitution2: "'medi' Medial Forms lookup 30 subtable" uniFEC0
Substitution2: "'init' Initial Forms lookup 29 subtable" uniFEBF
AlternateSubs2: "'aalt' Access All Alternates lookup 1 subtable" uniFEBF uniFEC0 uniFEBE
EndChar

StartChar: uniFEBE
Encoding: 65214 65214 89
Width: 525
VWidth: 750
GlyphClass: 2
Flags: HMW
HStem: -285 73.5<29.625 102.375 29.625 131.25> 0 73.5<265.5 345.75 500.25 525> 291 64.5<393 442.5>
VStem: -93.75 34.5<-106.875 -35.25> 198.75 58.5 478.5 43.5<144.75 174.375>
AnchorPoint: "Anchor-1" 262.5 675 basechar 0
AnchorPoint: "Anchor-0" 315 -315 basechar 0
LayerCount: 2
Fore
SplineSet
398.25 495 m 1
 347.25 438 l 1
 295.5 495 l 1
 347.25 551.25 l 1
 398.25 495 l 1
500.25 73.5 m 1
 525 73.5 l 1
 525 0 l 1
 353.25 0 l 1
 345.75 0 l 2
 306 0 277.5 1.5 257.25 3.75 c 1
 255 -187.5 189.75 -285 72.75 -285 c 0
 -34.5 -285 -93.75 -203.25 -93.75 -74.25 c 0
 -93.75 3.75 -76.5 52.5 -34.5 114 c 1
 -18 90 l 1
 -23.25 75 -59.25 23.25 -59.25 -59.25 c 0
 -59.25 -154.5 -6 -211.5 65.25 -211.5 c 0
 139.5 -211.5 198.75 -151.5 198.75 0.75 c 0
 198.75 62.25 183 142.5 171.75 184.5 c 1
 232.5 206.25 l 1
 239.25 184.5 246 151.5 250.5 118.5 c 1
 288.75 225.75 336.75 355.5 430.5 355.5 c 0
 504 355.5 522 254.25 522 163.5 c 0
 522 126 513.75 96 500.25 73.5 c 1
269.25 73.5 m 2
 360 73.5 478.5 66 478.5 161.25 c 0
 478.5 187.5 467.25 291 417.75 291 c 0
 368.25 291 313.5 201 265.5 73.5 c 1
 269.25 73.5 l 2
EndSplineSet
Validated: 524321
EndChar

StartChar: uniFEC0
Encoding: 65216 65216 90
Width: 525
VWidth: 750
GlyphClass: 2
Flags: HMW
HStem: 0 73.5<0 13.125 141.375 171 171 310.5 310.5 352.5> 297 72<342.375 393.375>
VStem: 0 81.75 62.25 45<97.875 211.5> 459 36.75<140.25 185.25>
AnchorPoint: "Anchor-1" 262.5 675 basechar 0
AnchorPoint: "Anchor-0" 300 -82.5 basechar 0
LayerCount: 2
Fore
SplineSet
313.5 510 m 1xd8
 262.5 453 l 1
 210.75 510 l 1
 262.5 566.25 l 1
 313.5 510 l 1xd8
460.5 72.75 m 1
 525 73.5 l 1
 525 0 l 1
 171 0 l 2
 111.75 0 87.75 33 81.75 44.25 c 1
 78.75 9.75 26.25 0 0 0 c 1
 0 73.5 l 1xe8
 46.5 73.5 l 2
 53.25 73.5 62.25 83.25 62.25 109.5 c 2
 62.25 211.5 l 1
 108.75 211.5 l 1
 107.25 103.5 l 2
 107.25 92.25 107.25 86.25 105.75 83.25 c 1
 110.25 85.5 116.25 89.25 119.25 93.75 c 0
 211.5 252.75 303.75 369 381 369 c 0
 457.5 369 495.75 257.25 495.75 162.75 c 0
 495.75 117.75 484.5 86.25 460.5 72.75 c 1
310.5 73.5 m 2
 394.5 73.5 459 87.75 459 157.5 c 0
 459 213 422.25 297 364.5 297 c 0
 295.5 297 210 180 138 73.5 c 1
 310.5 73.5 l 2
EndSplineSet
Validated: 524289
Substitution2: "Single Substitution lookup 54 subtable" uniFEC0.dadYeh
Substitution2: "'aalt' Access All Alternates lookup 0 subtable" uniFEC0.dadYeh
EndChar

StartChar: uniFEC0.dadYeh
Encoding: 1114216 -1 91
Width: 525
VWidth: 750
GlyphClass: 2
Flags: HMW
HStem: 0 73.5<150 203.25 271.5 324 324 372 490.5 525 271.5 271.5> 172.5 63<0 18 18 24 0 18> 289.5 82.5<355.5 397.875>
VStem: 462 49.5<148.5 184.5>
AnchorPoint: "Anchor-1" 262.5 675 basechar 0
AnchorPoint: "Anchor-0" 300 -82.5 basechar 0
LayerCount: 2
Fore
SplineSet
313.5 495 m 1
 262.5 438 l 1
 210.75 495 l 1
 262.5 551.25 l 1
 313.5 495 l 1
490.5 73.5 m 1
 525 73.5 l 1
 525 0 l 1
 271.5 0 l 1
 271.5 0.75 l 1
 246 0 218.25 0 188.25 0 c 0
 86.25 0 51.75 13.5 39.75 75.75 c 2
 24 172.5 l 1
 0 172.5 l 1
 0 235.5 l 1
 18 235.5 l 2
 39.75 235.5 63 202.5 66.75 148.5 c 0
 72 85.5 78 73.5 98.25 73.5 c 0
 118.5 73.5 124.5 81.75 135 102 c 0
 213 265.5 317.25 372 393.75 372 c 0
 470.25 372 511.5 264.75 511.5 168.75 c 0
 511.5 128.25 504.75 96.75 490.5 73.5 c 1
150 73.5 m 1
 324 73.5 l 2
 420 73.5 462 84 462 150 c 0
 462 219 426 289.5 369.75 289.5 c 0
 303 289.5 219.75 189.75 150 73.5 c 1
EndSplineSet
Validated: 524289
EndChar

StartChar: uniFEBF
Encoding: 65215 65215 92
Width: 525
VWidth: 750
GlyphClass: 2
Flags: HMW
HStem: 0 73.5<0 13.125 150 294.75> 289.5 75.75<354 398.25>
VStem: 33.75 44.25<165.75 166.5 166.5 180.75 165.75 181.125> 471 43.5<121.875 184.5>
AnchorPoint: "Anchor-1" 285 675 basechar 0
AnchorPoint: "Anchor-0" 375 -82.5 basechar 0
LayerCount: 2
Fore
SplineSet
262.5 438 m 1
 210.75 495 l 1
 262.5 551.25 l 1
 313.5 495 l 1
 262.5 438 l 1
0 0 m 1
 0 73.5 l 1
 15.75 73.5 l 2
 28.5 73.5 33.75 82.5 33.75 120.75 c 2
 33.75 166.5 l 2
 33.75 195.75 40.5 211.5 56.25 211.5 c 0
 72.75 211.5 78 195.75 78 165.75 c 2
 77.25 103.5 l 2
 77.25 81 78 73.5 104.25 73.5 c 0
 116.25 73.5 123.75 79.5 129.75 93.75 c 0
 202.5 252.75 314.25 365.25 393.75 365.25 c 0
 468 365.25 514.5 264.75 514.5 170.25 c 0
 514.5 44.25 438 0 294.75 0 c 2
 145.5 0 l 2
 111.75 0 74.25 33 68.25 44.25 c 1
 60.75 24 26.25 0 0 0 c 1
150 73.5 m 1
 339.75 73.5 l 2
 438.75 73.5 471 92.25 471 151.5 c 0
 471 217.5 425.25 289.5 371.25 289.5 c 0
 302.25 289.5 219.75 189.75 150 73.5 c 1
EndSplineSet
Validated: 524289
Substitution2: "Single Substitution lookup 54 subtable" uniFEBF.dadYeh
Substitution2: "'aalt' Access All Alternates lookup 0 subtable" uniFEBF.dadYeh
EndChar

StartChar: uniFEBF.dadYeh
Encoding: 1114217 -1 93
Width: 525
VWidth: 750
GlyphClass: 2
Flags: HMW
HStem: 0 73.5<150 293.625> 172.5 63<0 18 18 24 0 18> 289.5 82.5<355.5 397.875>
VStem: 462 49.5<117 184.5>
AnchorPoint: "Anchor-1" 285 675 basechar 0
AnchorPoint: "Anchor-0" 374.25 -82.5 basechar 0
LayerCount: 2
Fore
SplineSet
262.5 438 m 1
 210.75 495 l 1
 262.5 551.25 l 1
 313.5 495 l 1
 262.5 438 l 1
188.25 0 m 0
 86.25 0 51.75 13.5 39.75 75.75 c 2
 24 172.5 l 1
 0 172.5 l 1
 0 235.5 l 1
 18 235.5 l 2
 39.75 235.5 63 202.5 66.75 148.5 c 0
 72 85.5 78 73.5 98.25 73.5 c 0
 118.5 73.5 124.5 81.75 135 102 c 0
 213 265.5 317.25 372 393.75 372 c 0
 470.25 372 511.5 264.75 511.5 168.75 c 0
 511.5 4.5 399 0 188.25 0 c 0
150 73.5 m 1
 324 73.5 l 2
 420 73.5 462 84 462 150 c 0
 462 219 426 289.5 369.75 289.5 c 0
 303 289.5 219.75 189.75 150 73.5 c 1
EndSplineSet
Validated: 524289
EndChar

StartChar: uni0637
Encoding: 1591 1591 94
Width: 525
VWidth: 750
GlyphClass: 2
Flags: HMW
HStem: 0 73.5<40.5 45.75 45.75 55.5 123 267.75 0 45.75> 289.5 75.75<323.25 371.625> 639 15G<135.75 135.75>
VStem: 106.5 33 444 43.5<131.25 195.375>
AnchorPoint: "Anchor-1" 337.5 675 basechar 0
AnchorPoint: "Anchor-0" 315 -82.5 basechar 0
LayerCount: 2
Fore
SplineSet
364.5 365.25 m 0
 443.25 365.25 487.5 265.5 487.5 172.5 c 0
 487.5 33.75 397.5 0 267.75 0 c 2
 0 0 l 1
 0 55.5 27.75 72.75 40.5 73.5 c 2
 45.75 73.5 l 2
 65.25 73.5 81.75 75.75 92.25 84 c 1
 104.25 111 108 149.25 106.5 216.75 c 0
 105.75 282 100.5 555 84.75 592.5 c 1
 135.75 654 l 1
 169.5 575.25 l 1
 137.25 526.5 138 291 139.5 161.25 c 1
 198 258 282 365.25 364.5 365.25 c 0
312.75 73.5 m 2
 388.5 73.5 444 96 444 166.5 c 0
 444 224.25 398.25 289.5 345 289.5 c 0
 276.75 289.5 201 198 123 73.5 c 1
 312.75 73.5 l 2
EndSplineSet
Validated: 524321
Substitution2: "'fina' Terminal Forms lookup 31 subtable" uniFEC2
Substitution2: "'medi' Medial Forms lookup 30 subtable" uniFEC4
Substitution2: "'init' Initial Forms lookup 29 subtable" uniFEC3
AlternateSubs2: "'aalt' Access All Alternates lookup 1 subtable" uniFEC3 uniFEC4 uniFEC2
EndChar

StartChar: uniFEC2
Encoding: 65218 65218 95
Width: 525
VWidth: 750
GlyphClass: 2
Flags: HMW
HStem: 0 73.5<40.5 45.75 45.75 55.5 123 312.75 312.75 350.625 464.25 525 0 45.75> 289.5 75.75<323.25 371.625> 639 15G<135.75 135.75>
VStem: 106.5 33 444 43.5<151.5 195.375>
AnchorPoint: "Anchor-1" 337.5 675 basechar 0
AnchorPoint: "Anchor-0" 315 -82.5 basechar 0
LayerCount: 2
Fore
SplineSet
464.25 73.5 m 1
 525 73.5 l 1
 525 0 l 1
 0 0 l 1
 0 55.5 27.75 72.75 40.5 73.5 c 2
 45.75 73.5 l 2
 65.25 73.5 81.75 75.75 92.25 84 c 1
 104.25 111 108 149.25 106.5 216.75 c 0
 105.75 282 100.5 555 84.75 592.5 c 1
 135.75 654 l 1
 169.5 575.25 l 1
 137.25 526.5 138 291 139.5 161.25 c 1
 198 258 282 365.25 364.5 365.25 c 0
 443.25 365.25 487.5 265.5 487.5 172.5 c 0
 487.5 130.5 479.25 98.25 464.25 73.5 c 1
312.75 73.5 m 2
 388.5 73.5 444 96 444 166.5 c 0
 444 224.25 398.25 289.5 345 289.5 c 0
 276.75 289.5 201 198 123 73.5 c 1
 312.75 73.5 l 2
EndSplineSet
Validated: 524321
EndChar

StartChar: uniFEC4
Encoding: 65220 65220 96
Width: 525
VWidth: 750
GlyphClass: 2
Flags: HMW
HStem: 0 73.5<0.75 45.75 45.75 55.5 123 312.75 312.75 350.625 464.25 525 0.75 45.75> 289.5 75.75<323.25 371.625> 639 15G<135.75 135.75>
VStem: 106.5 33 444 43.5<151.5 195.375>
AnchorPoint: "Anchor-1" 337.5 675 basechar 0
AnchorPoint: "Anchor-0" 315 -82.5 basechar 0
LayerCount: 2
Fore
SplineSet
464.25 73.5 m 1
 525 73.5 l 1
 525 0 l 1
 0.75 0 l 1
 0.75 73.5 l 1
 45.75 73.5 l 2
 65.25 73.5 81.75 75.75 92.25 84 c 1
 104.25 111 108 149.25 106.5 216.75 c 0
 105.75 282 100.5 555 84.75 592.5 c 1
 135.75 654 l 1
 169.5 575.25 l 1
 137.25 526.5 138 291 139.5 161.25 c 1
 198 258 282 365.25 364.5 365.25 c 0
 443.25 365.25 487.5 265.5 487.5 172.5 c 0
 487.5 130.5 479.25 98.25 464.25 73.5 c 1
312.75 73.5 m 2
 388.5 73.5 444 96 444 166.5 c 0
 444 224.25 398.25 289.5 345 289.5 c 0
 276.75 289.5 201 198 123 73.5 c 1
 312.75 73.5 l 2
EndSplineSet
Validated: 524321
EndChar

StartChar: uniFEC3
Encoding: 65219 65219 97
Width: 525
VWidth: 750
GlyphClass: 2
Flags: HMW
HStem: 0 73.5<0 72.75 72.75 80.625 150 294.75 0 72.75> 289.5 75.75<349.125 398.625> 639 15G<158.25 158.25>
VStem: 129 33 471 43.5<131.25 195.375>
AnchorPoint: "Anchor-1" 412.5 675 basechar 0
AnchorPoint: "Anchor-0" 315 -82.5 basechar 0
LayerCount: 2
Fore
SplineSet
391.5 365.25 m 0
 470.25 365.25 514.5 265.5 514.5 172.5 c 0
 514.5 33.75 424.5 0 294.75 0 c 2
 0 0 l 1
 0 73.5 l 1
 72.75 73.5 l 2
 88.5 73.5 102.75 75 112.5 80.25 c 1
 126.75 107.25 130.5 145.5 129 216.75 c 0
 128.25 282 123 555 107.25 592.5 c 1
 158.25 654 l 1
 192 575.25 l 1
 159 525.75 160.5 282 162 153.75 c 1
 221.25 252.75 306.75 365.25 391.5 365.25 c 0
339.75 73.5 m 2
 415.5 73.5 471 96 471 166.5 c 0
 471 224.25 425.25 289.5 372 289.5 c 0
 303.75 289.5 228 198 150 73.5 c 1
 339.75 73.5 l 2
EndSplineSet
Validated: 524321
EndChar

StartChar: uni0638
Encoding: 1592 1592 98
Width: 525
VWidth: 750
GlyphClass: 2
Flags: HMW
HStem: 0 73.5<40.5 45.75 45.75 55.5 123 267.75 0 45.75> 289.5 75.75<323.25 371.625> 639 15G<135.75 135.75>
VStem: 106.5 33 444 43.5<131.25 195.375>
AnchorPoint: "Anchor-1" 352.5 701.25 basechar 0
AnchorPoint: "Anchor-0" 352.5 -82.5 basechar 0
LayerCount: 2
Fore
SplineSet
364.5 365.25 m 0
 443.25 365.25 487.5 265.5 487.5 172.5 c 0
 487.5 33.75 397.5 0 267.75 0 c 2
 0 0 l 1
 0 55.5 27.75 72.75 40.5 73.5 c 2
 45.75 73.5 l 2
 65.25 73.5 81.75 75.75 92.25 84 c 1
 104.25 111 108 149.25 106.5 216.75 c 0
 105.75 282 100.5 555 84.75 592.5 c 1
 135.75 654 l 1
 169.5 575.25 l 1
 137.25 526.5 138 291 139.5 161.25 c 1
 198 258 282 365.25 364.5 365.25 c 0
403.5 506.25 m 1
 352.5 449.25 l 1
 300.75 506.25 l 1
 352.5 562.5 l 1
 403.5 506.25 l 1
312.75 73.5 m 2
 388.5 73.5 444 96 444 166.5 c 0
 444 224.25 398.25 289.5 345 289.5 c 0
 276.75 289.5 201 198 123 73.5 c 1
 312.75 73.5 l 2
EndSplineSet
Validated: 524321
Substitution2: "'fina' Terminal Forms lookup 31 subtable" uniFEC6
Substitution2: "'medi' Medial Forms lookup 30 subtable" uniFEC8
Substitution2: "'init' Initial Forms lookup 29 subtable" uniFEC7
AlternateSubs2: "'aalt' Access All Alternates lookup 1 subtable" uniFEC7 uniFEC8 uniFEC6
EndChar

StartChar: uniFEC6
Encoding: 65222 65222 99
Width: 525
VWidth: 750
GlyphClass: 2
Flags: HMW
HStem: 0 73.5<40.5 45.75 45.75 55.5 123 312.75 312.75 350.625 464.25 525 0 45.75> 289.5 75.75<323.25 371.625> 639 15G<135.75 135.75>
VStem: 106.5 33 444 43.5<151.5 195.375>
AnchorPoint: "Anchor-1" 352.5 701.25 basechar 0
AnchorPoint: "Anchor-0" 315 -82.5 basechar 0
LayerCount: 2
Fore
SplineSet
464.25 73.5 m 1
 525 73.5 l 1
 525 0 l 1
 0 0 l 1
 0 55.5 27.75 72.75 40.5 73.5 c 2
 45.75 73.5 l 2
 65.25 73.5 81.75 75.75 92.25 84 c 1
 104.25 111 108 149.25 106.5 216.75 c 0
 105.75 282 100.5 555 84.75 592.5 c 1
 135.75 654 l 1
 169.5 575.25 l 1
 137.25 526.5 138 291 139.5 161.25 c 1
 198 258 282 365.25 364.5 365.25 c 0
 443.25 365.25 487.5 265.5 487.5 172.5 c 0
 487.5 130.5 479.25 98.25 464.25 73.5 c 1
388.5 495 m 1
 337.5 438 l 1
 285.75 495 l 1
 337.5 551.25 l 1
 388.5 495 l 1
312.75 73.5 m 2
 388.5 73.5 444 96 444 166.5 c 0
 444 224.25 398.25 289.5 345 289.5 c 0
 276.75 289.5 201 198 123 73.5 c 1
 312.75 73.5 l 2
EndSplineSet
Validated: 524321
EndChar

StartChar: uniFEC8
Encoding: 65224 65224 100
Width: 525
VWidth: 750
GlyphClass: 2
Flags: HMW
HStem: 0 73.5<0.75 45.75 45.75 55.5 123 312.75 312.75 350.625 464.25 525 0.75 45.75> 289.5 75.75<323.25 371.625> 639 15G<135.75 135.75>
VStem: 106.5 33 444 43.5<151.5 195.375>
AnchorPoint: "Anchor-1" 352.5 701.25 basechar 0
AnchorPoint: "Anchor-0" 315 -82.5 basechar 0
LayerCount: 2
Fore
SplineSet
464.25 73.5 m 1
 525 73.5 l 1
 525 0 l 1
 0.75 0 l 1
 0.75 73.5 l 1
 45.75 73.5 l 2
 65.25 73.5 81.75 75.75 92.25 84 c 1
 104.25 111 108 149.25 106.5 216.75 c 0
 105.75 282 100.5 555 84.75 592.5 c 1
 135.75 654 l 1
 169.5 575.25 l 1
 137.25 526.5 138 291 139.5 161.25 c 1
 198 258 282 365.25 364.5 365.25 c 0
 443.25 365.25 487.5 265.5 487.5 172.5 c 0
 487.5 130.5 479.25 98.25 464.25 73.5 c 1
388.5 506.25 m 1
 337.5 449.25 l 1
 285.75 506.25 l 1
 337.5 562.5 l 1
 388.5 506.25 l 1
312.75 73.5 m 2
 388.5 73.5 444 96 444 166.5 c 0
 444 224.25 398.25 289.5 345 289.5 c 0
 276.75 289.5 201 198 123 73.5 c 1
 312.75 73.5 l 2
EndSplineSet
Validated: 524321
EndChar

StartChar: uniFEC7
Encoding: 65223 65223 101
Width: 525
VWidth: 750
GlyphClass: 2
Flags: HMW
HStem: 0 73.5<0 72.75 72.75 80.625 150 294.75 0 72.75> 289.5 75.75<349.125 398.625> 639 15G<158.25 158.25>
VStem: 129 33 471 43.5<131.25 195.375>
AnchorPoint: "Anchor-1" 390 701.25 basechar 0
AnchorPoint: "Anchor-0" 315 -82.5 basechar 0
LayerCount: 2
Fore
SplineSet
391.5 365.25 m 0
 470.25 365.25 514.5 265.5 514.5 172.5 c 0
 514.5 33.75 424.5 0 294.75 0 c 2
 0 0 l 1
 0 73.5 l 1
 72.75 73.5 l 2
 88.5 73.5 102.75 75 112.5 80.25 c 1
 126.75 107.25 130.5 145.5 129 216.75 c 0
 128.25 282 123 555 107.25 592.5 c 1
 158.25 654 l 1
 192 575.25 l 1
 159 525.75 160.5 282 162 153.75 c 1
 221.25 252.75 306.75 365.25 391.5 365.25 c 0
418.5 506.25 m 1
 367.5 449.25 l 1
 315.75 506.25 l 1
 367.5 562.5 l 1
 418.5 506.25 l 1
339.75 73.5 m 2
 415.5 73.5 471 96 471 166.5 c 0
 471 224.25 425.25 289.5 372 289.5 c 0
 303.75 289.5 228 198 150 73.5 c 1
 339.75 73.5 l 2
EndSplineSet
Validated: 524321
EndChar

StartChar: uni0639
Encoding: 1593 1593 102
Width: 525
VWidth: 750
GlyphClass: 2
Flags: HMW
HStem: -364.5 70.5<207 297.375> 434.25 74.25
VStem: 24.75 57.75<-163.5 -82.125> 117 41.25
AnchorPoint: "Anchor-1" 277.5 622.5 basechar 0
AnchorPoint: "Anchor-0" 315 -397.5 basechar 0
LayerCount: 2
Fore
SplineSet
466.5 -211.5 m 1
 477.75 -225 l 1
 436.5 -290.25 357.75 -364.5 237 -364.5 c 0
 106.5 -364.5 24.75 -277.5 24.75 -150 c 0
 24.75 -14.25 123.75 121.5 256.5 165 c 1
 196.5 155.25 120 221.25 117 297.75 c 0
 114 384.75 196.5 505.5 281.25 508.5 c 0
 329.25 510 378 474.75 397.5 420.75 c 1
 384.75 392.25 l 1
 350.25 421.5 318.75 435.75 285 434.25 c 0
 231.75 431.25 149.25 396.75 158.25 322.5 c 1
 173.25 272.25 199.5 226.5 306 236.25 c 0
 352.5 239.25 404.25 255 463.5 273.75 c 1
 452.25 206.25 l 1
 307.5 165 82.5 83.25 82.5 -112.5 c 0
 82.5 -214.5 143.25 -294 270.75 -294 c 0
 359.25 -294 421.5 -255.75 466.5 -211.5 c 1
EndSplineSet
Validated: 524321
Substitution2: "'fina' Terminal Forms lookup 31 subtable" uniFECA
Substitution2: "'medi' Medial Forms lookup 30 subtable" uniFECC
Substitution2: "'init' Initial Forms lookup 29 subtable" uniFECB
AlternateSubs2: "'aalt' Access All Alternates lookup 1 subtable" uniFECB uniFECC uniFECA
EndChar

StartChar: uniFECA
Encoding: 65226 65226 103
Width: 525
VWidth: 750
GlyphClass: 2
Flags: HMW
HStem: -400.5 70.5<220.875 311.25> 0 73.5<414.75 438.75 438.75 525> 320.25 74.25<215.25 293.25>
VStem: 32.25 57.75<-204 -122.625> 111 44.25<273.75 296.25 273.75 326.25> 358.5 42.75
AnchorPoint: "Anchor-1" 315 585.75 basechar 0
AnchorPoint: "Anchor-0" 315 -433.5 basechar 0
LayerCount: 2
Fore
SplineSet
228 66 m 0
 153.75 11.25 90 -49.5 90 -151.5 c 0
 90 -256.5 156 -330 285.75 -330 c 0
 377.25 -330 440.25 -289.5 483 -247.5 c 1
 494.25 -261 l 1
 448.5 -330.75 372.75 -400.5 249.75 -400.5 c 0
 132.75 -400.5 32.25 -332.25 32.25 -184.5 c 0xf4
 32.25 -60.75 111.75 19.5 195.75 81 c 0
 214.5 96.75 239.25 113.25 261.75 127.5 c 1
 213 160.5 185.25 178.5 151.5 204.75 c 0
 120 230.25 111 246 111 283.5 c 0xfc
 111 369 158.25 394.5 261.75 394.5 c 0
 381.75 394.5 399.75 360 401.25 310.5 c 0
 402 279.75 397.5 239.25 365.25 192 c 0
 348.75 168 328.5 146.25 306 126.75 c 1
 344.25 91.5 374.25 73.5 414.75 73.5 c 2
 525 73.5 l 1
 525 0 l 1
 438.75 0 l 2
 375 0 323.25 60.75 284.25 108 c 1
 264.75 92.25 245.25 78.75 228 66 c 0
177.75 237.75 m 0xfc
 207.75 214.5 219.75 205.5 289.5 150.75 c 1
 329.25 203.25 360.75 256.5 358.5 303 c 1
 353.25 315.75 327 320.25 259.5 320.25 c 0
 171 320.25 155.25 312.75 155.25 279.75 c 0
 155.25 267.75 157.5 252.75 177.75 237.75 c 0xfc
EndSplineSet
Validated: 524321
EndChar

StartChar: uniFECC
Encoding: 65228 65228 104
Width: 525
VWidth: 750
GlyphClass: 2
Flags: HMW
HStem: 0 73.5<0 78.75 0 95.25 486 495 495 525> 316.5 73.5<252.75 330.75>
VStem: 148.5 44.25<269.625 292.125 269.625 321.75> 396 42.75
AnchorPoint: "Anchor-1" 307.5 532.5 basechar 0
AnchorPoint: "Anchor-0" 324.75 -82.5 basechar 0
LayerCount: 2
Fore
SplineSet
486 73.5 m 2
 525 73.5 l 1
 525 0 l 1
 495 0 l 2
 460.5 0 424.5 8.25 390.75 33 c 0
 366 50.25 345.75 74.25 329.25 96 c 1
 270.75 42.75 188.25 0 78.75 0 c 2
 0 0 l 1
 0 73.5 l 1
 95.25 73.5 l 2
 176.25 73.5 268.5 96 299.25 123 c 1
 248.25 157.5 222 174.75 189 200.25 c 0
 157.5 225.75 148.5 241.5 148.5 279 c 0
 148.5 364.5 195.75 390 300 390 c 0
 423 390 435.75 354.75 438.75 303.75 c 0
 441 267.75 437.25 244.5 408.75 195 c 0
 394.5 171 376.5 145.5 354 121.5 c 1
 369.75 102 384.75 87.75 411.75 80.25 c 0
 434.25 73.5 459.75 73.5 486 73.5 c 2
215.25 233.25 m 0
 245.25 210.75 257.25 201 327 147 c 1
 357.75 186.75 399 249.75 396 299.25 c 1
 390.75 312 364.5 316.5 297 316.5 c 0
 208.5 316.5 192.75 308.25 192.75 276 c 0
 192.75 263.25 195 249 215.25 233.25 c 0
EndSplineSet
Validated: 524321
Substitution2: "Single Substitution lookup 54 subtable" uniFECC.ainAlef
Substitution2: "'aalt' Access All Alternates lookup 0 subtable" uniFECC.ainAlef
EndChar

StartChar: uniFECC.ainAlef
Encoding: 1114218 -1 105
Width: 525
VWidth: 750
GlyphClass: 2
Flags: HMW
HStem: 0 73.5<0 18.75 0 33.75 444 525> 315.75 74.25<166.5 247.5>
VStem: 60 44.25<270 294 270 315.375> 307.5 42.75
AnchorPoint: "Anchor-1" 195 532.5 basechar 0
AnchorPoint: "Anchor-0" 225 -82.5 basechar 0
LayerCount: 2
Fore
SplineSet
444 73.5 m 2
 525 73.5 l 1
 525 0 l 1
 444 0 l 2
 361.5 0 300 24 237 87 c 1
 184.5 38.25 112.5 0 18.75 0 c 2
 0 0 l 1
 0 73.5 l 1
 33.75 73.5 l 2
 87.75 73.5 180 96 210.75 123 c 1
 150 164.25 129 178.5 100.5 201 c 0
 69.75 225.75 60 242.25 60 271.5 c 0
 60 359.25 96 390 211.5 390 c 0
 334.5 390 346.5 355.5 350.25 303.75 c 0
 353.25 265.5 347.25 242.25 320.25 195 c 0
 306 169.5 287.25 141 264 114.75 c 1
 313.5 76.5 367.5 73.5 444 73.5 c 2
126.75 233.25 m 2
 238.5 147 l 1
 280.5 203.25 309 251.25 307.5 299.25 c 1
 297 312.75 281.25 315.75 213.75 315.75 c 0
 119.25 315.75 104.25 309.75 104.25 278.25 c 0
 104.25 261.75 106.5 249 126.75 233.25 c 2
EndSplineSet
Validated: 524321
EndChar

StartChar: uniFECB
Encoding: 65227 65227 106
Width: 525
VWidth: 750
GlyphClass: 2
Flags: HMW
HStem: 0 73.5<0 53.25 0 228.75> 353.25 73.5<282.375 331.5>
VStem: 131.25 40.5<227.625 271.5>
AnchorPoint: "Anchor-1" 282 577.5 basechar 0
AnchorPoint: "Anchor-0" 315 -82.5 basechar 0
LayerCount: 2
Fore
SplineSet
337.5 87.75 m 0
 371.25 88.5 420 99 453 107.25 c 1
 444 39 l 1
 288 2.25 207.75 0 53.25 0 c 2
 0 0 l 1
 0 73.5 l 1
 228.75 73.5 l 1
 162.75 108 131.25 167.25 131.25 222.75 c 0
 131.25 320.25 228.75 426.75 309.75 426.75 c 0
 359.25 426.75 406.5 386.25 422.25 329.25 c 1
 411 301.5 l 1
 387.75 321.75 355.5 353.25 307.5 353.25 c 0
 257.25 353.25 171.75 323.25 171.75 251.25 c 0
 171.75 204 212.25 84 337.5 87.75 c 0
EndSplineSet
Validated: 524321
EndChar

StartChar: uni063A
Encoding: 1594 1594 107
Width: 525
VWidth: 750
GlyphClass: 2
Flags: HMW
HStem: -364.5 70.5<207 297.375> 434.25 74.25
VStem: 24.75 57.75<-163.5 -82.125> 117 41.25
AnchorPoint: "Anchor-1" 277.5 772.5 basechar 0
AnchorPoint: "Anchor-0" 315 -397.5 basechar 0
LayerCount: 2
Fore
SplineSet
332.25 618 m 1
 281.25 561 l 1
 229.5 618 l 1
 281.25 674.25 l 1
 332.25 618 l 1
466.5 -211.5 m 1
 477.75 -225 l 1
 436.5 -290.25 357.75 -364.5 237 -364.5 c 0
 106.5 -364.5 24.75 -277.5 24.75 -150 c 0
 24.75 -14.25 123.75 121.5 256.5 165 c 1
 196.5 155.25 120 221.25 117 297.75 c 0
 114 384.75 196.5 505.5 281.25 508.5 c 0
 329.25 510 378 474.75 397.5 420.75 c 1
 384.75 392.25 l 1
 350.25 421.5 318.75 435.75 285 434.25 c 0
 231.75 431.25 149.25 396.75 158.25 322.5 c 1
 173.25 272.25 199.5 226.5 306 236.25 c 0
 352.5 239.25 404.25 255 463.5 273.75 c 1
 452.25 206.25 l 1
 307.5 165 82.5 83.25 82.5 -112.5 c 0
 82.5 -214.5 143.25 -294 270.75 -294 c 0
 359.25 -294 421.5 -255.75 466.5 -211.5 c 1
EndSplineSet
Validated: 524321
Substitution2: "'fina' Terminal Forms lookup 31 subtable" uniFECE
Substitution2: "'medi' Medial Forms lookup 30 subtable" uniFED0
Substitution2: "'init' Initial Forms lookup 29 subtable" uniFECF
AlternateSubs2: "'aalt' Access All Alternates lookup 1 subtable" uniFECF uniFED0 uniFECE
EndChar

StartChar: uniFECE
Encoding: 65230 65230 108
Width: 525
VWidth: 750
GlyphClass: 2
Flags: HMW
HStem: -400.5 70.5<220.875 311.25> 0 73.5<414.75 438.75 438.75 525> 320.25 74.25<215.25 293.25>
VStem: 32.25 57.75<-204 -122.625> 111 44.25<273.75 296.25 273.75 326.25> 358.5 42.75
AnchorPoint: "Anchor-1" 315 712.5 basechar 0
AnchorPoint: "Anchor-0" 444.75 -375 basechar 0
LayerCount: 2
Fore
SplineSet
311.25 518.25 m 1
 260.25 461.25 l 1
 208.5 518.25 l 1
 260.25 574.5 l 1
 311.25 518.25 l 1
228 66 m 0
 153.75 11.25 90 -49.5 90 -151.5 c 0
 90 -256.5 156 -330 285.75 -330 c 0
 377.25 -330 440.25 -289.5 483 -247.5 c 1
 494.25 -261 l 1
 448.5 -330.75 372.75 -400.5 249.75 -400.5 c 0
 132.75 -400.5 32.25 -332.25 32.25 -184.5 c 0xf4
 32.25 -60.75 111.75 19.5 195.75 81 c 0
 214.5 96.75 239.25 113.25 261.75 127.5 c 1
 213 160.5 185.25 178.5 151.5 204.75 c 0
 120 230.25 111 246 111 283.5 c 0xfc
 111 369 158.25 394.5 261.75 394.5 c 0
 381.75 394.5 399.75 360 401.25 310.5 c 0
 402 279.75 397.5 239.25 365.25 192 c 0
 348.75 168 328.5 146.25 306 126.75 c 1
 344.25 91.5 374.25 73.5 414.75 73.5 c 2
 525 73.5 l 1
 525 0 l 1
 438.75 0 l 2
 375 0 323.25 60.75 284.25 108 c 1
 264.75 92.25 245.25 78.75 228 66 c 0
177.75 237.75 m 0xfc
 207.75 214.5 219.75 205.5 289.5 150.75 c 1
 329.25 203.25 360.75 256.5 358.5 303 c 1
 353.25 315.75 327 320.25 259.5 320.25 c 0
 171 320.25 155.25 312.75 155.25 279.75 c 0
 155.25 267.75 157.5 252.75 177.75 237.75 c 0xfc
EndSplineSet
Validated: 524321
EndChar

StartChar: uniFED0
Encoding: 65232 65232 109
Width: 525
VWidth: 750
GlyphClass: 2
Flags: HMW
HStem: 0 73.5<0 78.75 0 95.25 486 495 495 525> 316.5 73.5<252.75 330.75>
VStem: 148.5 44.25<269.625 292.125 269.625 321.75> 396 42.75
AnchorPoint: "Anchor-1" 300 712.5 basechar 0
AnchorPoint: "Anchor-0" 315 -82.5 basechar 0
LayerCount: 2
Fore
SplineSet
348.75 525.75 m 1
 297.75 468.75 l 1
 246 525.75 l 1
 297.75 582 l 1
 348.75 525.75 l 1
486 73.5 m 2
 525 73.5 l 1
 525 0 l 1
 495 0 l 2
 460.5 0 424.5 8.25 390.75 33 c 0
 366 50.25 345.75 74.25 329.25 96 c 1
 270.75 42.75 188.25 0 78.75 0 c 2
 0 0 l 1
 0 73.5 l 1
 95.25 73.5 l 2
 176.25 73.5 268.5 96 299.25 123 c 1
 248.25 157.5 222 174.75 189 200.25 c 0
 157.5 225.75 148.5 241.5 148.5 279 c 0
 148.5 364.5 195.75 390 300 390 c 0
 423 390 435.75 354.75 438.75 303.75 c 0
 441 267.75 437.25 244.5 408.75 195 c 0
 394.5 171 376.5 145.5 354 121.5 c 1
 369.75 102 384.75 87.75 411.75 80.25 c 0
 434.25 73.5 459.75 73.5 486 73.5 c 2
215.25 233.25 m 0
 245.25 210.75 257.25 201 327 147 c 1
 357.75 186.75 399 249.75 396 299.25 c 1
 390.75 312 364.5 316.5 297 316.5 c 0
 208.5 316.5 192.75 308.25 192.75 276 c 0
 192.75 263.25 195 249 215.25 233.25 c 0
EndSplineSet
Validated: 524321
Substitution2: "Single Substitution lookup 54 subtable" uniFED0.ghainAlef
Substitution2: "'aalt' Access All Alternates lookup 0 subtable" uniFED0.ghainAlef
EndChar

StartChar: uniFED0.ghainAlef
Encoding: 1114219 -1 110
Width: 525
VWidth: 750
GlyphClass: 2
Flags: HMW
HStem: 0 73.5<0 18.75 0 33.75 444 525> 315.75 74.25<166.5 247.5>
VStem: 60 44.25<270 294 270 315.375> 307.5 42.75
AnchorPoint: "Anchor-1" 195 715.5 basechar 0
AnchorPoint: "Anchor-0" 225 -82.5 basechar 0
LayerCount: 2
Fore
SplineSet
243.75 525.75 m 1
 192.75 468.75 l 1
 141 525.75 l 1
 192.75 582 l 1
 243.75 525.75 l 1
444 73.5 m 2
 525 73.5 l 1
 525 0 l 1
 444 0 l 2
 361.5 0 300 24 237 87 c 1
 184.5 38.25 112.5 0 18.75 0 c 2
 0 0 l 1
 0 73.5 l 1
 33.75 73.5 l 2
 87.75 73.5 180 96 210.75 123 c 1
 150 164.25 129 178.5 100.5 201 c 0
 69.75 225.75 60 242.25 60 271.5 c 0
 60 359.25 96 390 211.5 390 c 0
 334.5 390 346.5 355.5 350.25 303.75 c 0
 353.25 265.5 347.25 242.25 320.25 195 c 0
 306 169.5 287.25 141 264 114.75 c 1
 313.5 76.5 367.5 73.5 444 73.5 c 2
126.75 233.25 m 2
 238.5 147 l 1
 280.5 203.25 309 251.25 307.5 299.25 c 1
 297 312.75 281.25 315.75 213.75 315.75 c 0
 119.25 315.75 104.25 309.75 104.25 278.25 c 0
 104.25 261.75 106.5 249 126.75 233.25 c 2
EndSplineSet
Validated: 524321
EndChar

StartChar: uniFECF
Encoding: 65231 65231 111
Width: 525
VWidth: 750
GlyphClass: 2
Flags: HMW
HStem: 0 73.5<0 53.25 0 228.75> 353.25 73.5<282.375 331.5>
VStem: 131.25 40.5<227.625 271.5>
AnchorPoint: "Anchor-1" 275.25 742.5 basechar 0
AnchorPoint: "Anchor-0" 315 -82.5 basechar 0
LayerCount: 2
Fore
SplineSet
323.25 582 m 1
 272.25 525 l 1
 220.5 582 l 1
 272.25 638.25 l 1
 323.25 582 l 1
337.5 87.75 m 0
 371.25 88.5 420 99 453 107.25 c 1
 444 39 l 1
 288 2.25 207.75 0 53.25 0 c 2
 0 0 l 1
 0 73.5 l 1
 228.75 73.5 l 1
 162.75 108 131.25 167.25 131.25 222.75 c 0
 131.25 320.25 228.75 426.75 309.75 426.75 c 0
 359.25 426.75 406.5 386.25 422.25 329.25 c 1
 411 301.5 l 1
 387.75 321.75 355.5 353.25 307.5 353.25 c 0
 257.25 353.25 171.75 323.25 171.75 251.25 c 0
 171.75 204 212.25 84 337.5 87.75 c 0
EndSplineSet
Validated: 524321
EndChar

StartChar: uni0641
Encoding: 1601 1601 112
Width: 525
VWidth: 750
GlyphClass: 2
Flags: HMW
HStem: 0 73.5<133.5 163.5 163.5 271.5> 193.688 67.47
VStem: 3.75 30<132 144> 261 41.25 468.75 47.25<156.75 197.25 197.25 197.25>
AnchorPoint: "Anchor-1" 330 750 basechar 0
AnchorPoint: "Anchor-0" 315 -82.5 basechar 0
LayerCount: 2
Fore
SplineSet
411 641.25 m 1
 360 584.25 l 1
 308.25 641.25 l 1
 360 697.5 l 1
 411 641.25 l 1
381 487.5 m 0
 447 487.5 516 337.5 516 193.5 c 0
 516 24.75 421.5 0 271.5 0 c 2
 163.5 0 l 2
 51.75 0 3.75 45.75 3.75 124.5 c 0
 3.75 163.5 15.75 213.75 37.5 238.5 c 1
 50.25 229.5 l 1
 43.5 217.5 33.75 189 33.75 157.5 c 0
 33.75 106.5 60 73.5 133.5 73.5 c 2
 310.5 73.5 l 2
 384 73.5 468.75 81.75 468.75 156.75 c 2
 468.75 197.25 l 1
 364.5 183 267.75 206.25 261 274.5 c 0
 255.75 333.75 314.25 487.5 381 487.5 c 0
302.25 311.25 m 0
 302.25 254.25 368.25 258 461.25 264.75 c 1
 446.25 326.25 411.75 412.5 374.25 423.75 c 0
 336 435.75 302.25 350.25 302.25 311.25 c 0
EndSplineSet
Validated: 524321
Substitution2: "'fina' Terminal Forms lookup 31 subtable" uniFED2
Substitution2: "'medi' Medial Forms lookup 30 subtable" uniFED4
Substitution2: "'init' Initial Forms lookup 29 subtable" uniFED3
AlternateSubs2: "'aalt' Access All Alternates lookup 1 subtable" uniFED3 uniFED4 uniFED2
EndChar

StartChar: uniFED2
Encoding: 65234 65234 113
Width: 525
VWidth: 750
GlyphClass: 2
Flags: HMW
HStem: 0 73.5<129.75 159.75 159.75 273.75 520.125 525> 338.25 63<335.25 385.5>
VStem: 0 27.75<122.625 138.375> 256.5 38.25<257.25 281.625> 443.46 44.79
AnchorPoint: "Anchor-1" 283.5 735 basechar 0
AnchorPoint: "Anchor-0" 325.5 -82.5 basechar 0
LayerCount: 2
Fore
SplineSet
411.75 561.75 m 1
 360.75 504.75 l 1
 309 561.75 l 1
 360.75 618 l 1
 411.75 561.75 l 1
468.75 108.75 m 1
 479.25 99.75 515.25 73.5 525 73.5 c 1
 525 0 l 1
 494.25 0 435.75 64.5 429 74.25 c 1
 396.75 23.25 356.25 0 273.75 0 c 2
 159.75 0 l 2
 48.75 0 0 45 0 125.25 c 0
 0 151.5 5.25 194.25 35.25 237.75 c 1
 50.25 225.75 l 1
 29.25 185.25 27.75 162 27.75 148.5 c 0
 27.75 96.75 46.5 73.5 129.75 73.5 c 2
 297.75 73.5 l 2
 327.75 73.5 375 71.25 407.25 90.75 c 1
 306 160.5 256.5 201 256.5 253.5 c 0
 256.5 309.75 306.75 401.25 363 401.25 c 0
 429 401.25 488.25 290.25 488.25 212.25 c 0
 488.25 187.5 484.5 160.5 468.75 108.75 c 1
294.75 277.5 m 0
 294.75 237 363.75 186.75 436.5 126 c 1
 438 129.75 439.5 133.5 440.25 138 c 0
 455.25 203.25 417.75 338.25 353.25 338.25 c 0
 317.25 338.25 294.75 300.75 294.75 277.5 c 0
EndSplineSet
Validated: 524321
EndChar

StartChar: uniFED4
Encoding: 65236 65236 114
Width: 525
VWidth: 750
GlyphClass: 2
Flags: HMW
HStem: 0 73.5<0 90 90 118.5 0 90 499.5 525> 354 53.25<230.625 265.125>
VStem: 141.75 46.5<247.5 267.75> 351.75 55.5<205.125 257.25 198.75 261.75>
AnchorPoint: "Anchor-1" 262.5 742.5 basechar 0
AnchorPoint: "Anchor-0" 318 -82.5 basechar 0
LayerCount: 2
Fore
SplineSet
298.5 567 m 1
 247.5 510 l 1
 195.75 567 l 1
 247.5 623.25 l 1
 298.5 567 l 1
499.5 73.5 m 2
 525 73.5 l 1
 525 0 l 1
 483.75 0 l 2
 451.5 0 394.5 27 344.25 73.5 c 1
 307.5 37.5 256.5 0 118.5 0 c 2
 0 0 l 1
 0 73.5 l 1
 90 73.5 l 2
 213 73.5 265.5 75.75 297.75 95.25 c 1
 250.5 120 207 144 180 167.25 c 0
 155.25 188.25 141.75 211.5 141.75 242.25 c 0
 141.75 293.25 181.5 407.25 263.25 407.25 c 0
 343.5 407.25 407.25 297 407.25 217.5 c 0
 407.25 180 393 143.25 371.25 108 c 1
 380.25 102.75 400.5 87.75 429.75 79.5 c 0
 450 73.5 468 73.5 499.5 73.5 c 2
327.75 126 m 1
 346.5 156 351.75 192.75 351.75 217.5 c 0
 351.75 306 282 354 248.25 354 c 0
 213 354 188.25 303 188.25 270.75 c 0
 188.25 224.25 238.5 187.5 327.75 126 c 1
EndSplineSet
Validated: 524289
EndChar

StartChar: uniFED3
Encoding: 65235 65235 115
Width: 525
VWidth: 750
GlyphClass: 2
Flags: HMW
HStem: 0 73.5<0 237.75 0 276.75> 174.75 72<308.625 327> 437.25 59.25<299.625 349.5>
VStem: 208.5 45.75<282 301.875> 444 42<180 183 183 183>
AnchorPoint: "Anchor-1" 292.5 855 basechar 0
AnchorPoint: "Anchor-0" 375 -82.5 basechar 0
LayerCount: 2
Fore
SplineSet
382.5 648.75 m 1
 331.5 591.75 l 1
 279.75 648.75 l 1
 331.5 705 l 1
 382.5 648.75 l 1
337.5 496.5 m 0
 410.25 496.5 486 355.5 486 200.25 c 0
 486 44.25 409.5 0 237.75 0 c 2
 0 0 l 1
 0 73.5 l 1
 276.75 73.5 l 2
 355.5 73.5 444 85.5 444 180 c 2
 444 183 l 1
 387 177.75 339.75 174.75 314.25 174.75 c 0
 233.25 174.75 208.5 207 208.5 261.75 c 0
 208.5 342 261.75 496.5 337.5 496.5 c 0
336.75 246.75 m 0
 355.5 246.75 390.75 247.5 435.75 249.75 c 1
 418.5 332.25 378 437.25 321 437.25 c 0
 267.75 437.25 254.25 348 254.25 308.25 c 0
 254.25 255.75 280.5 246.75 336.75 246.75 c 0
EndSplineSet
Validated: 524289
EndChar

StartChar: uni06A4
Encoding: 1700 1700 116
Width: 525
VWidth: 750
GlyphClass: 2
Flags: HMW
HStem: 0 73.5<133.5 163.5 163.5 271.5> 193.688 67.47
VStem: 3.75 30<132 144> 261 41.25 468.75 47.25<156.75 197.25 197.25 197.25>
AnchorPoint: "Anchor-1" 330 915 basechar 0
AnchorPoint: "Anchor-0" 315 -82.5 basechar 0
LayerCount: 2
Fore
SplineSet
390.75 759.75 m 1
 339.75 702.75 l 1
 288 759.75 l 1
 339.75 816 l 1
 390.75 759.75 l 1
340.5 632.25 m 1
 289.5 575.25 l 1
 237.75 632.25 l 1
 289.5 688.5 l 1
 340.5 632.25 l 1
414 575.25 m 1
 362.25 632.25 l 1
 414 688.5 l 1
 465 632.25 l 1
 414 575.25 l 1
381 487.5 m 0
 447 487.5 516 337.5 516 193.5 c 0
 516 24.75 421.5 0 271.5 0 c 2
 163.5 0 l 2
 51.75 0 3.75 45.75 3.75 124.5 c 0
 3.75 163.5 15.75 213.75 37.5 238.5 c 1
 50.25 229.5 l 1
 43.5 217.5 33.75 189 33.75 157.5 c 0
 33.75 106.5 60 73.5 133.5 73.5 c 2
 310.5 73.5 l 2
 384 73.5 468.75 81.75 468.75 156.75 c 2
 468.75 197.25 l 1
 364.5 183 267.75 206.25 261 274.5 c 0
 255.75 333.75 314.25 487.5 381 487.5 c 0
302.25 311.25 m 0
 302.25 254.25 368.25 258 461.25 264.75 c 1
 446.25 326.25 411.75 412.5 374.25 423.75 c 0
 336 435.75 302.25 350.25 302.25 311.25 c 0
EndSplineSet
Validated: 524321
Substitution2: "'fina' Terminal Forms lookup 31 subtable" uniFB6B
Substitution2: "'medi' Medial Forms lookup 30 subtable" uniFB6D
Substitution2: "'init' Initial Forms lookup 29 subtable" uniFB6C
AlternateSubs2: "'aalt' Access All Alternates lookup 1 subtable" uniFB6C uniFB6D uniFB6B
EndChar

StartChar: uniFB6B
Encoding: 64363 64363 117
Width: 525
VWidth: 750
GlyphClass: 2
Flags: HMW
HStem: 0 73.5<129.75 159.75 159.75 273.75 520.125 525> 338.25 63<335.25 385.5>
VStem: 0 27.75<122.625 138.375> 256.5 38.25<257.25 281.625> 443.46 44.79
AnchorPoint: "Anchor-1" 337.5 832.5 basechar 0
AnchorPoint: "Anchor-0" 341.25 -82.5 basechar 0
LayerCount: 2
Fore
SplineSet
407.25 678 m 1
 356.25 621 l 1
 304.5 678 l 1
 356.25 734.25 l 1
 407.25 678 l 1
357 550.5 m 1
 306 493.5 l 1
 254.25 550.5 l 1
 306 606.75 l 1
 357 550.5 l 1
430.5 493.5 m 1
 378.75 550.5 l 1
 430.5 606.75 l 1
 481.5 550.5 l 1
 430.5 493.5 l 1
468.75 108.75 m 1
 479.25 99.75 515.25 73.5 525 73.5 c 1
 525 0 l 1
 494.25 0 435.75 64.5 429 74.25 c 1
 396.75 23.25 356.25 0 273.75 0 c 2
 159.75 0 l 2
 48.75 0 0 45 0 125.25 c 0
 0 151.5 5.25 194.25 35.25 237.75 c 1
 50.25 225.75 l 1
 29.25 185.25 27.75 162 27.75 148.5 c 0
 27.75 96.75 46.5 73.5 129.75 73.5 c 2
 297.75 73.5 l 2
 327.75 73.5 375 71.25 407.25 90.75 c 1
 306 160.5 256.5 201 256.5 253.5 c 0
 256.5 309.75 306.75 401.25 363 401.25 c 0
 429 401.25 488.25 290.25 488.25 212.25 c 0
 488.25 187.5 484.5 160.5 468.75 108.75 c 1
294.75 277.5 m 0
 294.75 237 363.75 186.75 436.5 126 c 1
 438 129.75 439.5 133.5 440.25 138 c 0
 455.25 203.25 417.75 338.25 353.25 338.25 c 0
 317.25 338.25 294.75 300.75 294.75 277.5 c 0
EndSplineSet
Validated: 524321
EndChar

StartChar: uniFB6D
Encoding: 64365 64365 118
Width: 525
VWidth: 750
GlyphClass: 2
Flags: HMW
HStem: 0 73.5<0 90 90 118.5 0 90 499.5 525> 354 53.25<230.625 265.125>
VStem: 141.75 46.5<247.5 267.75> 351.75 55.5<205.125 257.25 198.75 261.75>
AnchorPoint: "Anchor-1" 262.5 832.5 basechar 0
AnchorPoint: "Anchor-0" 322.5 -82.5 basechar 0
LayerCount: 2
Fore
SplineSet
296.25 697.5 m 1
 245.25 640.5 l 1
 193.5 697.5 l 1
 245.25 753.75 l 1
 296.25 697.5 l 1
246 570 m 1
 195 513 l 1
 143.25 570 l 1
 195 626.25 l 1
 246 570 l 1
319.5 513 m 1
 267.75 570 l 1
 319.5 626.25 l 1
 370.5 570 l 1
 319.5 513 l 1
499.5 73.5 m 2
 525 73.5 l 1
 525 0 l 1
 483.75 0 l 2
 451.5 0 394.5 27 344.25 73.5 c 1
 307.5 37.5 256.5 0 118.5 0 c 2
 0 0 l 1
 0 73.5 l 1
 90 73.5 l 2
 213 73.5 265.5 75.75 297.75 95.25 c 1
 250.5 120 207 144 180 167.25 c 0
 155.25 188.25 141.75 211.5 141.75 242.25 c 0
 141.75 293.25 181.5 407.25 263.25 407.25 c 0
 343.5 407.25 407.25 297 407.25 217.5 c 0
 407.25 180 393 143.25 371.25 108 c 1
 380.25 102.75 400.5 87.75 429.75 79.5 c 0
 450 73.5 468 73.5 499.5 73.5 c 2
327.75 126 m 1
 346.5 156 351.75 192.75 351.75 217.5 c 0
 351.75 306 282 354 248.25 354 c 0
 213 354 188.25 303 188.25 270.75 c 0
 188.25 224.25 238.5 187.5 327.75 126 c 1
EndSplineSet
Validated: 524289
EndChar

StartChar: uniFB6C
Encoding: 64364 64364 119
Width: 525
VWidth: 750
GlyphClass: 2
Flags: HMW
HStem: 0 73.5<0 237.75 0 276.75> 174.75 72<308.625 327> 437.25 59.25<299.625 349.5>
VStem: 208.5 45.75<282 301.875> 444 42<180 183 183 183>
AnchorPoint: "Anchor-1" 300 937.5 basechar 0
AnchorPoint: "Anchor-0" 375 -82.5 basechar 0
LayerCount: 2
Fore
SplineSet
360 760.5 m 1
 309 703.5 l 1
 257.25 760.5 l 1
 309 816.75 l 1
 360 760.5 l 1
309.75 633 m 1
 258.75 576 l 1
 207 633 l 1
 258.75 689.25 l 1
 309.75 633 l 1
383.25 576 m 1
 331.5 633 l 1
 383.25 689.25 l 1
 434.25 633 l 1
 383.25 576 l 1
337.5 496.5 m 0
 410.25 496.5 486 355.5 486 200.25 c 0
 486 44.25 409.5 0 237.75 0 c 2
 0 0 l 1
 0 73.5 l 1
 276.75 73.5 l 2
 355.5 73.5 444 85.5 444 180 c 2
 444 183 l 1
 387 177.75 339.75 174.75 314.25 174.75 c 0
 233.25 174.75 208.5 207 208.5 261.75 c 0
 208.5 342 261.75 496.5 337.5 496.5 c 0
336.75 246.75 m 0
 355.5 246.75 390.75 247.5 435.75 249.75 c 1
 418.5 332.25 378 437.25 321 437.25 c 0
 267.75 437.25 254.25 348 254.25 308.25 c 0
 254.25 255.75 280.5 246.75 336.75 246.75 c 0
EndSplineSet
Validated: 524289
EndChar

StartChar: uni06A1
Encoding: 1697 1697 120
Width: 525
VWidth: 750
GlyphClass: 2
Flags: HMW
HStem: 0 73.5<133.5 163.5 163.5 271.5> 193.688 67.47
VStem: 3.75 30<132 144> 261 41.25 468.75 47.25<156.75 197.25 197.25 197.25>
AnchorPoint: "Anchor-1" 315 675 basechar 0
AnchorPoint: "Anchor-0" 315 -82.5 basechar 0
LayerCount: 2
Fore
SplineSet
381 487.5 m 0
 447 487.5 516 337.5 516 193.5 c 0
 516 24.75 421.5 0 271.5 0 c 2
 163.5 0 l 2
 51.75 0 3.75 45.75 3.75 124.5 c 0
 3.75 163.5 15.75 213.75 37.5 238.5 c 1
 50.25 229.5 l 1
 43.5 217.5 33.75 189 33.75 157.5 c 0
 33.75 106.5 60 73.5 133.5 73.5 c 2
 310.5 73.5 l 2
 384 73.5 468.75 81.75 468.75 156.75 c 2
 468.75 197.25 l 1
 364.5 183 267.75 206.25 261 274.5 c 0
 255.75 333.75 314.25 487.5 381 487.5 c 0
302.25 311.25 m 0
 302.25 254.25 368.25 258 461.25 264.75 c 1
 446.25 326.25 411.75 412.5 374.25 423.75 c 0
 336 435.75 302.25 350.25 302.25 311.25 c 0
EndSplineSet
Validated: 524321
Substitution2: "'fina' Terminal Forms lookup 31 subtable" uni06A1.fina
Substitution2: "'medi' Medial Forms lookup 30 subtable" uni06A1.medi
Substitution2: "'init' Initial Forms lookup 29 subtable" uni06A1.init
AlternateSubs2: "'aalt' Access All Alternates lookup 1 subtable" uni06A1.init uni06A1.medi uni06A1.fina
EndChar

StartChar: uni06A1.fina
Encoding: 1114220 -1 121
Width: 525
VWidth: 750
GlyphClass: 2
Flags: HMW
HStem: 0 73.5<129.75 159.75 159.75 273.75 520.125 525> 338.25 63<335.25 385.5>
VStem: 0 27.75<122.625 138.375> 256.5 38.25<257.25 281.625> 443.46 44.79
AnchorPoint: "Anchor-1" 315 570 basechar 0
AnchorPoint: "Anchor-0" 341.25 -82.5 basechar 0
LayerCount: 2
Fore
SplineSet
468.75 108.75 m 1
 479.25 99.75 515.25 73.5 525 73.5 c 1
 525 0 l 1
 494.25 0 435.75 64.5 429 74.25 c 1
 396.75 23.25 356.25 0 273.75 0 c 2
 159.75 0 l 2
 48.75 0 0 45 0 125.25 c 0
 0 151.5 5.25 194.25 35.25 237.75 c 1
 50.25 225.75 l 1
 29.25 185.25 27.75 162 27.75 148.5 c 0
 27.75 96.75 46.5 73.5 129.75 73.5 c 2
 297.75 73.5 l 2
 327.75 73.5 375 71.25 407.25 90.75 c 1
 306 160.5 256.5 201 256.5 253.5 c 0
 256.5 309.75 306.75 401.25 363 401.25 c 0
 429 401.25 488.25 290.25 488.25 212.25 c 0
 488.25 187.5 484.5 160.5 468.75 108.75 c 1
294.75 277.5 m 0
 294.75 237 363.75 186.75 436.5 126 c 1
 438 129.75 439.5 133.5 440.25 138 c 0
 455.25 203.25 417.75 338.25 353.25 338.25 c 0
 317.25 338.25 294.75 300.75 294.75 277.5 c 0
EndSplineSet
Validated: 524321
EndChar

StartChar: uni06A1.medi
Encoding: 1114221 -1 122
Width: 525
VWidth: 750
GlyphClass: 2
Flags: HMW
HStem: 0 73.5<0 90 90 118.5 0 90 499.5 525> 354 53.25<230.625 265.125>
VStem: 141.75 46.5<247.5 267.75> 351.75 55.5<205.125 257.25 198.75 261.75>
AnchorPoint: "Anchor-1" 270 570 basechar 0
AnchorPoint: "Anchor-0" 322.5 -82.5 basechar 0
LayerCount: 2
Fore
SplineSet
499.5 73.5 m 2
 525 73.5 l 1
 525 0 l 1
 483.75 0 l 2
 451.5 0 394.5 27 344.25 73.5 c 1
 307.5 37.5 256.5 0 118.5 0 c 2
 0 0 l 1
 0 73.5 l 1
 90 73.5 l 2
 213 73.5 265.5 75.75 297.75 95.25 c 1
 250.5 120 207 144 180 167.25 c 0
 155.25 188.25 141.75 211.5 141.75 242.25 c 0
 141.75 293.25 181.5 407.25 263.25 407.25 c 0
 343.5 407.25 407.25 297 407.25 217.5 c 0
 407.25 180 393 143.25 371.25 108 c 1
 380.25 102.75 400.5 87.75 429.75 79.5 c 0
 450 73.5 468 73.5 499.5 73.5 c 2
327.75 126 m 1
 346.5 156 351.75 192.75 351.75 217.5 c 0
 351.75 306 282 354 248.25 354 c 0
 213 354 188.25 303 188.25 270.75 c 0
 188.25 224.25 238.5 187.5 327.75 126 c 1
EndSplineSet
Validated: 524289
EndChar

StartChar: uni06A1.init
Encoding: 1114222 -1 123
Width: 525
VWidth: 750
GlyphClass: 2
Flags: HMW
HStem: 0 73.5<0 237.75 0 276.75> 174.75 72<308.625 327> 437.25 59.25<299.625 349.5>
VStem: 208.5 45.75<282 301.875> 444 42<180 183 183 183>
AnchorPoint: "Anchor-1" 315 637.5 basechar 0
AnchorPoint: "Anchor-0" 375 -60 basechar 0
LayerCount: 2
Fore
SplineSet
337.5 496.5 m 0
 410.25 496.5 486 355.5 486 200.25 c 0
 486 44.25 409.5 0 237.75 0 c 2
 0 0 l 1
 0 73.5 l 1
 276.75 73.5 l 2
 355.5 73.5 444 85.5 444 180 c 2
 444 183 l 1
 387 177.75 339.75 174.75 314.25 174.75 c 0
 233.25 174.75 208.5 207 208.5 261.75 c 0
 208.5 342 261.75 496.5 337.5 496.5 c 0
336.75 246.75 m 0
 355.5 246.75 390.75 247.5 435.75 249.75 c 1
 418.5 332.25 378 437.25 321 437.25 c 0
 267.75 437.25 254.25 348 254.25 308.25 c 0
 254.25 255.75 280.5 246.75 336.75 246.75 c 0
EndSplineSet
Validated: 524289
EndChar

StartChar: uni066F
Encoding: 1647 1647 124
Width: 525
VWidth: 750
GlyphClass: 2
Flags: HMW
HStem: -147 73.5<181.875 289.5 181.875 320.625> 129.75 69 444.75 15G<314.25 370.875>
VStem: 14.25 34.5<31.875 92.25> 238.5 45.75 448.5 52.5
AnchorPoint: "Anchor-1" 348 637.5 basechar 0
AnchorPoint: "Anchor-0" 315 -202.5 basechar 0
LayerCount: 2
Fore
SplineSet
501 179.25 m 0
 506.25 -33 403.5 -147 237.75 -147 c 0
 102 -147 14.25 -71.25 14.25 60 c 0
 14.25 124.5 36 184.5 71.25 223.5 c 1
 82.5 207 l 1
 75.75 195 48.75 146.25 48.75 86.25 c 0
 48.75 -22.5 130.5 -73.5 233.25 -73.5 c 0
 345.75 -73.5 441.75 -12 448.5 129.75 c 1
 345.75 123.75 239.25 147.75 238.5 252.75 c 0
 237.75 314.25 273 459.75 355.5 459.75 c 0
 386.25 459.75 426 429 461.25 357.75 c 0
 480.75 318.75 498.75 262.5 501 179.25 c 0
284.25 266.25 m 0
 284.25 219 329.25 205.5 444.75 198.75 c 1
 431.25 301.5 383.25 411 339.75 401.25 c 0
 304.5 393 284.25 303.75 284.25 266.25 c 0
EndSplineSet
Validated: 524321
Substitution2: "'fina' Terminal Forms lookup 31 subtable" uni066F.fina
Substitution2: "'aalt' Access All Alternates lookup 0 subtable" uni066F.fina
EndChar

StartChar: uni066F.fina
Encoding: 1114223 -1 125
Width: 525
VWidth: 750
GlyphClass: 2
Flags: HMW
HStem: -265.5 73.5<168.375 277.875 168.375 306> 0 73.5<492.75 525 492.75 525 491.25 525>
VStem: 0 34.5<-78 -12.75> 230.25 45.75 437.25 54<0.75 0.75>
AnchorPoint: "Anchor-1" 291.75 562.5 basechar 0
AnchorPoint: "Anchor-0" 306.75 -315 basechar 0
LayerCount: 2
Fore
SplineSet
492.75 73.5 m 1
 525 73.5 l 1
 525 0 l 1
 491.25 0 l 1
 483.75 -170.25 380.25 -265.5 231.75 -265.5 c 0
 87.75 -265.5 0 -176.25 0 -45 c 0
 0 19.5 21 65.25 53.25 108.75 c 1
 67.5 90 l 1
 60.75 78 34.5 37.5 34.5 -22.5 c 0
 34.5 -133.5 112.5 -192 224.25 -192 c 0
 331.5 -192 426.75 -138 437.25 0.75 c 1
 342.75 4.5 231 28.5 230.25 131.25 c 0
 229.5 194.25 265.5 340.5 345 340.5 c 0
 378 340.5 416.25 312 447.75 247.5 c 0
 476.25 189 490.5 123 492.75 73.5 c 1
276 149.25 m 0
 276 95.25 305.25 82.5 435.75 75 c 1
 425.25 174 387.75 293.25 333.75 279.75 c 0
 292.5 270.75 276 191.25 276 149.25 c 0
EndSplineSet
Validated: 524321
EndChar

StartChar: uni0642
Encoding: 1602 1602 126
Width: 525
VWidth: 750
GlyphClass: 2
Flags: HMW
HStem: -147 73.5<181.875 289.5 181.875 320.625> 129.75 69 444.75 15G<314.25 370.875>
VStem: 14.25 34.5<31.875 92.25> 238.5 45.75 448.5 52.5
AnchorPoint: "Anchor-1" 322.5 787.5 basechar 0
AnchorPoint: "Anchor-0" 315 -202.5 basechar 0
LayerCount: 2
Fore
SplineSet
452.25 617.25 m 1
 402.75 560.25 l 1
 350.25 615.75 l 1
 400.5 672 l 1
 452.25 617.25 l 1
310.5 615.75 m 1
 261.75 558 l 1
 209.25 613.5 l 1
 258.75 669.75 l 1
 310.5 615.75 l 1
501 179.25 m 0
 506.25 -33 403.5 -147 237.75 -147 c 0
 102 -147 14.25 -71.25 14.25 60 c 0
 14.25 124.5 36 184.5 71.25 223.5 c 1
 82.5 207 l 1
 75.75 195 48.75 146.25 48.75 86.25 c 0
 48.75 -22.5 130.5 -73.5 233.25 -73.5 c 0
 345.75 -73.5 441.75 -12 448.5 129.75 c 1
 345.75 123.75 239.25 147.75 238.5 252.75 c 0
 237.75 314.25 273 459.75 355.5 459.75 c 0
 386.25 459.75 426 429 461.25 357.75 c 0
 480.75 318.75 498.75 262.5 501 179.25 c 0
284.25 266.25 m 0
 284.25 219 329.25 205.5 444.75 198.75 c 1
 431.25 301.5 383.25 411 339.75 401.25 c 0
 304.5 393 284.25 303.75 284.25 266.25 c 0
EndSplineSet
Validated: 524321
Substitution2: "'fina' Terminal Forms lookup 31 subtable" uniFED6
Substitution2: "'medi' Medial Forms lookup 30 subtable" uniFED8
Substitution2: "'init' Initial Forms lookup 29 subtable" uniFED7
AlternateSubs2: "'aalt' Access All Alternates lookup 1 subtable" uniFED7 uniFED8 uniFED6
EndChar

StartChar: uniFED6
Encoding: 65238 65238 127
Width: 525
VWidth: 750
GlyphClass: 2
Flags: HMW
HStem: -265.5 73.5<168.375 277.875 168.375 306> 0 73.5<492.75 525 492.75 525 491.25 525>
VStem: 0 34.5<-78 -12.75> 230.25 45.75 437.25 54<0.75 0.75>
AnchorPoint: "Anchor-1" 300 675 basechar 0
AnchorPoint: "Anchor-0" 315 -315 basechar 0
LayerCount: 2
Fore
SplineSet
465.75 498 m 1
 416.25 441 l 1
 363.75 496.5 l 1
 414 552.75 l 1
 465.75 498 l 1
324 496.5 m 1
 275.25 438.75 l 1
 222.75 494.25 l 1
 272.25 550.5 l 1
 324 496.5 l 1
492.75 73.5 m 1
 525 73.5 l 1
 525 0 l 1
 491.25 0 l 1
 483.75 -170.25 380.25 -265.5 231.75 -265.5 c 0
 87.75 -265.5 0 -176.25 0 -45 c 0
 0 19.5 21 65.25 53.25 108.75 c 1
 67.5 90 l 1
 60.75 78 34.5 37.5 34.5 -22.5 c 0
 34.5 -133.5 112.5 -192 224.25 -192 c 0
 331.5 -192 426.75 -138 437.25 0.75 c 1
 342.75 4.5 231 28.5 230.25 131.25 c 0
 229.5 194.25 265.5 340.5 345 340.5 c 0
 378 340.5 416.25 312 447.75 247.5 c 0
 476.25 189 490.5 123 492.75 73.5 c 1
276 149.25 m 0
 276 95.25 305.25 82.5 435.75 75 c 1
 425.25 174 387.75 293.25 333.75 279.75 c 0
 292.5 270.75 276 191.25 276 149.25 c 0
EndSplineSet
Validated: 524321
EndChar

StartChar: uniFED8
Encoding: 65240 65240 128
Width: 525
VWidth: 750
GlyphClass: 2
Flags: HMW
HStem: 0 73.5<0 90 90 118.5 0 90 499.5 525> 354 53.25<230.625 265.125>
VStem: 141.75 46.5<247.5 267.75> 351.75 55.5<205.125 257.25 198.75 261.75>
AnchorPoint: "Anchor-1" 262.5 780 basechar 0
AnchorPoint: "Anchor-0" 330 -82.5 basechar 0
LayerCount: 2
Fore
SplineSet
381.75 570 m 1
 332.25 513 l 1
 279.75 568.5 l 1
 330 624.75 l 1
 381.75 570 l 1
240 568.5 m 1
 191.25 510.75 l 1
 138.75 566.25 l 1
 188.25 622.5 l 1
 240 568.5 l 1
499.5 73.5 m 2
 525 73.5 l 1
 525 0 l 1
 483.75 0 l 2
 451.5 0 394.5 27 344.25 73.5 c 1
 307.5 37.5 256.5 0 118.5 0 c 2
 0 0 l 1
 0 73.5 l 1
 90 73.5 l 2
 213 73.5 265.5 75.75 297.75 95.25 c 1
 250.5 120 207 144 180 167.25 c 0
 155.25 188.25 141.75 211.5 141.75 242.25 c 0
 141.75 293.25 181.5 407.25 263.25 407.25 c 0
 343.5 407.25 407.25 297 407.25 217.5 c 0
 407.25 180 393 143.25 371.25 108 c 1
 380.25 102.75 400.5 87.75 429.75 79.5 c 0
 450 73.5 468 73.5 499.5 73.5 c 2
327.75 126 m 1
 346.5 156 351.75 192.75 351.75 217.5 c 0
 351.75 306 282 354 248.25 354 c 0
 213 354 188.25 303 188.25 270.75 c 0
 188.25 224.25 238.5 187.5 327.75 126 c 1
EndSplineSet
Validated: 524289
EndChar

StartChar: uniFED7
Encoding: 65239 65239 129
Width: 525
VWidth: 750
GlyphClass: 2
Flags: HMW
HStem: 0 73.5<0 237.75 0 276.75> 174.75 72<308.625 327> 437.25 59.25<299.625 349.5>
VStem: 208.5 45.75<282 301.875> 444 42<180 183 183 183>
AnchorPoint: "Anchor-1" 315 810 basechar 0
AnchorPoint: "Anchor-0" 375 -82.5 basechar 0
LayerCount: 2
Fore
SplineSet
431.25 643.5 m 1
 381.75 586.5 l 1
 329.25 642 l 1
 379.5 698.25 l 1
 431.25 643.5 l 1
289.5 642 m 1
 240.75 584.25 l 1
 188.25 639.75 l 1
 237.75 696 l 1
 289.5 642 l 1
337.5 496.5 m 0
 410.25 496.5 486 355.5 486 200.25 c 0
 486 44.25 409.5 0 237.75 0 c 2
 0 0 l 1
 0 73.5 l 1
 276.75 73.5 l 2
 355.5 73.5 444 85.5 444 180 c 2
 444 183 l 1
 387 177.75 339.75 174.75 314.25 174.75 c 0
 233.25 174.75 208.5 207 208.5 261.75 c 0
 208.5 342 261.75 496.5 337.5 496.5 c 0
336.75 246.75 m 0
 355.5 246.75 390.75 247.5 435.75 249.75 c 1
 418.5 332.25 378 437.25 321 437.25 c 0
 267.75 437.25 254.25 348 254.25 308.25 c 0
 254.25 255.75 280.5 246.75 336.75 246.75 c 0
EndSplineSet
Validated: 524289
EndChar

StartChar: uni0643
Encoding: 1603 1603 130
Width: 525
VWidth: 750
GlyphClass: 2
Flags: HMW
HStem: 0 73.5<109.875 159.75 159.75 337.5> 639 15G<517.5 517.5>
VStem: 130.5 28.5<381.375 392.625> 206.25 36<307.125 322.875> 474.75 42.75<139.5 146.25 146.25 206.25>
AnchorPoint: "Anchor-1" 247.5 622.5 basechar 0
AnchorPoint: "Anchor-0" 262.5 -82.5 basechar 0
LayerCount: 2
Fore
SplineSet
159.75 0 m 2
 60 0 0.75 6 0.75 73.5 c 1
 384.75 73.5 l 2
 433.5 73.5 474.75 102 474.75 177 c 0
 474.75 235.5 463.5 398.25 450 596.25 c 1
 517.5 654 l 1
 517.5 146.25 l 2
 517.5 42 465.75 0 337.5 0 c 2
 159.75 0 l 2
104.25 229.5 m 1
 105.75 249 l 1
 173.25 281.25 206.25 295.5 206.25 311.25 c 0
 206.25 334.5 167.25 337.5 143.25 346.5 c 0
 134.25 349.5 130.5 353.25 130.5 366.75 c 0
 130.5 418.5 180.75 469.5 222.75 469.5 c 0
 228.75 469.5 235.5 469.5 241.5 466.5 c 1
 222 433.5 l 1
 188.25 434.25 159 411 159 396 c 0
 159 366.75 242.25 376.5 242.25 334.5 c 0
 242.25 279.75 151.5 247.5 104.25 229.5 c 1
EndSplineSet
Validated: 524321
Substitution2: "'fina' Terminal Forms lookup 31 subtable" uniFEDA
Substitution2: "'medi' Medial Forms lookup 30 subtable" uniFEDC
Substitution2: "'init' Initial Forms lookup 29 subtable" uniFEDB
AlternateSubs2: "'aalt' Access All Alternates lookup 1 subtable" uniFEDB uniFEDC uniFEDA
EndChar

StartChar: uniFEDA
Encoding: 65242 65242 131
Width: 525
VWidth: 750
GlyphClass: 2
Flags: HMW
HStem: 0 73.5<129.75 159.75 159.75 298.5 516.75 525> 639 15G<489.75 495.75 495.75 495.75>
VStem: 0 36<117.75 144.75> 171 28.5<405.375 416.625> 246.75 36<331.125 346.875> 424.5 71.25<590.25 654> 440.25 19.5 459.75 27
AnchorPoint: "Anchor-1" 240 645 basechar 0
AnchorPoint: "Anchor-0" 300 -82.5 basechar 0
LayerCount: 2
Fore
SplineSet
159.75 0 m 2xfc
 68.25 0 0 33.75 0 113.25 c 0
 0 176.25 24 218.25 43.5 254.25 c 1
 55.5 248.25 l 1
 41.25 212.25 36 174 36 143.25 c 0
 36 92.25 73.5 73.5 129.75 73.5 c 2
 313.5 73.5 l 2
 395.25 73.5 434.25 88.5 440.25 188.25 c 0xfa
 444.75 268.5 434.25 501.75 424.5 590.25 c 1
 489.75 654 l 1
 495.75 654 l 1xfc
 495.75 583.5 483 279 486.75 211.5 c 0
 489.75 134.25 508.5 73.5 525 73.5 c 1
 525 0 l 1xf9
 489.75 0 463.5 71.25 459.75 200.25 c 1xfa
 448.5 3.75 373.5 0 298.5 0 c 2
 159.75 0 l 2xfc
144.75 253.5 m 1
 146.25 273 l 1
 213.75 305.25 246.75 319.5 246.75 335.25 c 0
 246.75 358.5 207.75 361.5 183.75 370.5 c 0
 174.75 373.5 171 377.25 171 390.75 c 0
 171 442.5 221.25 493.5 263.25 493.5 c 0
 269.25 493.5 276 493.5 282 490.5 c 1
 262.5 457.5 l 1
 228.75 458.25 199.5 435 199.5 420 c 0
 199.5 390.75 282.75 400.5 282.75 358.5 c 0
 282.75 303.75 192 271.5 144.75 253.5 c 1
EndSplineSet
Validated: 524321
EndChar

StartChar: uniFEDC
Encoding: 65244 65244 132
Width: 525
VWidth: 750
GlyphClass: 2
Flags: HMW
HStem: 0 73.5<0 52.5 52.5 102.375 0 221.25 0 52.5 499.5 525>
VStem: 75.42 36.33 331.335 39.165
AnchorPoint: "Anchor-1" 262.5 727.5 basechar 0
AnchorPoint: "Anchor-0" 315 -82.5 basechar 0
LayerCount: 2
Fore
SplineSet
499.5 73.5 m 2
 525 73.5 l 1
 525 0 l 1
 496.5 0 l 2
 456.75 0 411.75 46.5 370.5 117 c 1
 357 60.75 312 0 221.25 0 c 2
 0 0 l 1
 0 73.5 l 1
 52.5 73.5 l 2
 152.25 73.5 276 66.75 322.5 92.25 c 1
 382.5 188.25 120.75 317.25 99 312.75 c 1
 77.25 312.75 63 326.25 90.75 402 c 1
 165 498 342 601.5 431.25 640.5 c 1
 421.5 573 l 1
 111.75 379.5 l 1
 219 345.75 324 271.5 360.75 206.25 c 1
 395.25 162 414.75 121.5 437.25 100.5 c 0
 455.25 84 480 73.5 499.5 73.5 c 2
EndSplineSet
Validated: 524321
Substitution2: "Single Substitution lookup 54 subtable" uniFEDC.kafAlef
Substitution2: "'aalt' Access All Alternates lookup 0 subtable" uniFEDC.kafAlef
EndChar

StartChar: uniFEDC.kafAlef
Encoding: 1114224 -1 133
Width: 525
VWidth: 750
GlyphClass: 2
Flags: HMW
HStem: 0 73.5<0 181.5 181.5 249.75 0 181.5 508.5 525> 233.25 65.25
VStem: -126.75 42 384 52.5<175.125 177>
AnchorPoint: "Anchor-1" 187.5 727.5 basechar 0
AnchorPoint: "Anchor-0" 262.5 -82.5 basechar 0
LayerCount: 2
Fore
SplineSet
508.5 73.5 m 2
 525 73.5 l 1
 525 0 l 1
 508.5 0 l 2
 460.5 0 430.5 33.75 418.5 88.5 c 1
 395.25 37.5 345.75 0 249.75 0 c 2
 0 0 l 1
 0 73.5 l 1
 181.5 73.5 l 2
 355.5 73.5 375.75 87 384 147 c 1
 384 207 336.75 239.25 238.5 236.25 c 2
 13.5 230.25 l 2
 -61.5 228 -125.25 232.5 -126.75 285.75 c 0
 -129 371.25 -1.5 506.25 193.5 582 c 1
 182.25 513.75 l 1
 66.75 458.25 -53.25 375 -84.75 293.25 c 1
 235.5 303.75 l 2
 369 308.25 436.5 248.25 436.5 182.25 c 0
 436.5 168 435.75 153.75 433.5 140.25 c 1
 438 97.5 462 73.5 508.5 73.5 c 2
EndSplineSet
Validated: 524321
EndChar

StartChar: uniFEDB
Encoding: 65243 65243 134
Width: 525
VWidth: 750
GlyphClass: 2
Flags: HMW
HStem: 0 73.5<0 112.5 112.5 162.375 0 281.25 0 112.5>
VStem: 135.42 36.33 391.335 43.53
AnchorPoint: "Anchor-1" 262.5 727.5 basechar 0
AnchorPoint: "Anchor-0" 315 -82.5 basechar 0
LayerCount: 2
Fore
SplineSet
491.25 640.5 m 1
 481.5 573 l 1
 171.75 379.5 l 1
 294.75 341.25 414 249.75 432 179.25 c 0
 446.25 122.25 409.5 0 281.25 0 c 2
 0 0 l 1
 0 73.5 l 1
 112.5 73.5 l 2
 212.25 73.5 336 66.75 382.5 92.25 c 1
 442.5 188.25 180.75 317.25 159 312.75 c 1
 137.25 312.75 123 326.25 150.75 402 c 1
 225 498 402 601.5 491.25 640.5 c 1
EndSplineSet
Validated: 524321
Substitution2: "Single Substitution lookup 54 subtable" uniFEDB.kafAlef
Substitution2: "'aalt' Access All Alternates lookup 0 subtable" uniFEDB.kafAlef
EndChar

StartChar: uniFEDB.kafAlef
Encoding: 1114225 -1 135
Width: 525
VWidth: 750
GlyphClass: 2
Flags: HMW
HStem: 0 73.5<0 181.5 181.5 249.75 0 181.5> 233.25 65.25
VStem: -126.75 42 384 52.5<147 177>
AnchorPoint: "Anchor-1" 187.5 727.5 basechar 0
AnchorPoint: "Anchor-0" 262.5 -82.5 basechar 0
LayerCount: 2
Fore
SplineSet
235.5 303.75 m 2
 369 308.25 436.5 248.25 436.5 182.25 c 0
 436.5 91.5 399.75 0 249.75 0 c 2
 0 0 l 1
 0 73.5 l 1
 181.5 73.5 l 2
 355.5 73.5 375.75 87 384 147 c 1
 384 207 336.75 239.25 238.5 236.25 c 2
 13.5 230.25 l 2
 -61.5 228 -125.25 232.5 -126.75 285.75 c 0
 -129 371.25 -1.5 506.25 193.5 582 c 1
 182.25 513.75 l 1
 66.75 458.25 -53.25 375 -84.75 293.25 c 1
 235.5 303.75 l 2
EndSplineSet
Validated: 524321
EndChar

StartChar: uni06A9
Encoding: 1705 1705 136
Width: 525
VWidth: 750
GlyphClass: 2
Flags: HMW
HStem: 0 73.5<90.375 112.5 112.5 162.375 90.375 281.25>
VStem: 0 45.3225 135.42 36.33 391.335 43.53
AnchorPoint: "Anchor-1" 262.5 727.5 basechar 0
AnchorPoint: "Anchor-0" 262.5 -82.5 basechar 0
LayerCount: 2
Fore
SplineSet
491.25 640.5 m 1
 481.5 573 l 1
 171.75 379.5 l 1
 294.75 341.25 414 249.75 432 179.25 c 0
 446.25 122.25 409.5 0 281.25 0 c 2
 112.5 0 l 2
 46.5 0 0 35.25 0 90 c 0
 0 130.5 18 171.75 42.75 193.5 c 1
 49.5 190.5 41.25 171 39 147 c 0
 33.75 102.75 68.25 73.5 112.5 73.5 c 0
 212.25 73.5 336 66.75 382.5 92.25 c 1
 442.5 188.25 180.75 317.25 159 312.75 c 1
 137.25 312.75 123 326.25 150.75 402 c 1
 225 498 402 601.5 491.25 640.5 c 1
EndSplineSet
Validated: 524321
Substitution2: "'fina' Terminal Forms lookup 31 subtable" uniFB8F
Substitution2: "'medi' Medial Forms lookup 30 subtable" uniFB91
Substitution2: "'init' Initial Forms lookup 29 subtable" uniFB90
AlternateSubs2: "'aalt' Access All Alternates lookup 1 subtable" uniFB90 uniFB91 uniFB8F
EndChar

StartChar: uniFB8F
Encoding: 64399 64399 137
Width: 525
VWidth: 750
GlyphClass: 2
Flags: HMW
HStem: 0 73.5<90.375 112.5 112.5 162.375 90.375 281.25 516 525>
VStem: 0 45.3225 135.42 36.33 391.335 133.665
AnchorPoint: "Anchor-1" 262.5 727.5 basechar 0
AnchorPoint: "Anchor-0" 300 -82.5 basechar 0
LayerCount: 2
Fore
SplineSet
516 73.5 m 2
 525 73.5 l 1
 525 0 l 1
 516 0 l 2
 493.5 0 468.75 45.75 430.5 116.25 c 1
 416.25 60.75 371.25 0 281.25 0 c 2
 112.5 0 l 2
 46.5 0 0 35.25 0 90 c 0
 0 130.5 18 171.75 42.75 193.5 c 1
 49.5 190.5 41.25 171 39 147 c 0
 33.75 102.75 68.25 73.5 112.5 73.5 c 0
 212.25 73.5 336 66.75 382.5 92.25 c 1
 442.5 188.25 180.75 317.25 159 312.75 c 1
 137.25 312.75 123 326.25 150.75 402 c 1
 225 498 402 601.5 491.25 640.5 c 1
 481.5 573 l 1
 171.75 379.5 l 1
 264 351 354 292.5 400.5 235.5 c 1
 447.75 187.5 498.75 73.5 516 73.5 c 2
EndSplineSet
Validated: 524321
EndChar

StartChar: uniFB91
Encoding: 64401 64401 138
Width: 525
VWidth: 750
GlyphClass: 2
Flags: HMW
HStem: 0 73.5<0 52.5 52.5 102.375 0 221.25 0 52.5 499.5 525>
VStem: 75.42 36.33 331.335 39.165
AnchorPoint: "Anchor-1" 262.5 727.5 basechar 0
AnchorPoint: "Anchor-0" 315 -82.5 basechar 0
LayerCount: 2
Fore
SplineSet
499.5 73.5 m 2
 525 73.5 l 1
 525 0 l 1
 496.5 0 l 2
 456.75 0 411.75 46.5 370.5 117 c 1
 357 60.75 312 0 221.25 0 c 2
 0 0 l 1
 0 73.5 l 1
 52.5 73.5 l 2
 152.25 73.5 276 66.75 322.5 92.25 c 1
 382.5 188.25 120.75 317.25 99 312.75 c 1
 77.25 312.75 63 326.25 90.75 402 c 1
 165 498 342 601.5 431.25 640.5 c 1
 421.5 573 l 1
 111.75 379.5 l 1
 219 345.75 324 271.5 360.75 206.25 c 1
 395.25 162 414.75 121.5 437.25 100.5 c 0
 455.25 84 480 73.5 499.5 73.5 c 2
EndSplineSet
Validated: 524321
EndChar

StartChar: uniFB90
Encoding: 64400 64400 139
Width: 525
VWidth: 750
GlyphClass: 2
Flags: HMW
HStem: 0 73.5<0 112.5 112.5 162.375 0 281.25 0 112.5>
VStem: 135.42 36.33 391.335 43.53
AnchorPoint: "Anchor-1" 262.5 727.5 basechar 0
AnchorPoint: "Anchor-0" 315 -82.5 basechar 0
LayerCount: 2
Fore
SplineSet
491.25 640.5 m 1
 481.5 573 l 1
 171.75 379.5 l 1
 294.75 341.25 414 249.75 432 179.25 c 0
 446.25 122.25 409.5 0 281.25 0 c 2
 0 0 l 1
 0 73.5 l 1
 112.5 73.5 l 2
 212.25 73.5 336 66.75 382.5 92.25 c 1
 442.5 188.25 180.75 317.25 159 312.75 c 1
 137.25 312.75 123 326.25 150.75 402 c 1
 225 498 402 601.5 491.25 640.5 c 1
EndSplineSet
Validated: 524321
EndChar

StartChar: uni06AF
Encoding: 1711 1711 140
Width: 525
VWidth: 750
GlyphClass: 2
Flags: HMW
HStem: 0 73.5<90.375 112.5 112.5 162.375 90.375 281.25>
VStem: 0 45.3225 135.42 36.33 391.335 43.53
AnchorPoint: "Anchor-1" 262.5 802.5 basechar 0
AnchorPoint: "Anchor-0" 262.5 -82.5 basechar 0
LayerCount: 2
Fore
SplineSet
430.5 710.25 m 1
 312 651 211.5 583.5 148.5 522 c 1
 141 558 l 1
 213.75 620.25 315.75 689.25 423 748.5 c 1
 430.5 710.25 l 1
491.25 640.5 m 1
 481.5 573 l 1
 171.75 379.5 l 1
 294.75 341.25 414 249.75 432 179.25 c 0
 446.25 122.25 409.5 0 281.25 0 c 2
 112.5 0 l 2
 46.5 0 0 35.25 0 90 c 0
 0 130.5 18 171.75 42.75 193.5 c 1
 49.5 190.5 41.25 171 39 147 c 0
 33.75 102.75 68.25 73.5 112.5 73.5 c 0
 212.25 73.5 336 66.75 382.5 92.25 c 1
 442.5 188.25 180.75 317.25 159 312.75 c 1
 137.25 312.75 123 326.25 150.75 402 c 1
 225 498 402 601.5 491.25 640.5 c 1
EndSplineSet
Validated: 524321
Substitution2: "'fina' Terminal Forms lookup 31 subtable" uniFB93
Substitution2: "'medi' Medial Forms lookup 30 subtable" uniFB95
Substitution2: "'init' Initial Forms lookup 29 subtable" uniFB94
AlternateSubs2: "'aalt' Access All Alternates lookup 1 subtable" uniFB94 uniFB95 uniFB93
EndChar

StartChar: uniFB93
Encoding: 64403 64403 141
Width: 525
VWidth: 750
GlyphClass: 2
Flags: HMW
HStem: 0 73.5<90.375 112.5 112.5 162.375 90.375 281.25 516 525>
VStem: 0 45.3225 135.42 36.33 391.335 133.665
AnchorPoint: "Anchor-1" 262.5 792 basechar 0
AnchorPoint: "Anchor-0" 300 -100.5 basechar 0
LayerCount: 2
Fore
SplineSet
423 702 m 1
 304.5 642.75 204 575.25 141 513.75 c 1
 133.5 549.75 l 1
 206.25 612 308.25 681 415.5 740.25 c 1
 423 702 l 1
516 73.5 m 2
 525 73.5 l 1
 525 0 l 1
 516 0 l 2
 493.5 0 468.75 45.75 430.5 116.25 c 1
 416.25 60.75 371.25 0 281.25 0 c 2
 112.5 0 l 2
 46.5 0 0 35.25 0 90 c 0
 0 130.5 18 171.75 42.75 193.5 c 1
 49.5 190.5 41.25 171 39 147 c 0
 33.75 102.75 68.25 73.5 112.5 73.5 c 0
 212.25 73.5 336 66.75 382.5 92.25 c 1
 442.5 188.25 180.75 317.25 159 312.75 c 1
 137.25 312.75 123 326.25 150.75 402 c 1
 225 498 402 601.5 491.25 640.5 c 1
 481.5 573 l 1
 171.75 379.5 l 1
 264 351 354 292.5 400.5 235.5 c 1
 447.75 187.5 498.75 73.5 516 73.5 c 2
EndSplineSet
Validated: 524321
EndChar

StartChar: uniFB95
Encoding: 64405 64405 142
Width: 525
VWidth: 750
GlyphClass: 2
Flags: HMW
HStem: 0 73.5<0 52.5 52.5 102.375 0 221.25 0 52.5 499.5 525>
VStem: 75.42 36.33 331.335 39.165
AnchorPoint: "Anchor-1" 262.5 825 basechar 0
AnchorPoint: "Anchor-0" 315 -82.5 basechar 0
LayerCount: 2
Fore
SplineSet
378 719.25 m 1
 259.5 660 159 592.5 96 531 c 1
 88.5 567 l 1
 161.25 629.25 263.25 698.25 370.5 757.5 c 1
 378 719.25 l 1
499.5 73.5 m 2
 525 73.5 l 1
 525 0 l 1
 496.5 0 l 2
 456.75 0 411.75 46.5 370.5 117 c 1
 357 60.75 312 0 221.25 0 c 2
 0 0 l 1
 0 73.5 l 1
 52.5 73.5 l 2
 152.25 73.5 276 66.75 322.5 92.25 c 1
 382.5 188.25 120.75 317.25 99 312.75 c 1
 77.25 312.75 63 326.25 90.75 402 c 1
 165 498 342 601.5 431.25 640.5 c 1
 421.5 573 l 1
 111.75 379.5 l 1
 219 345.75 324 271.5 360.75 206.25 c 1
 395.25 162 414.75 121.5 437.25 100.5 c 0
 455.25 84 480 73.5 499.5 73.5 c 2
EndSplineSet
Validated: 524321
EndChar

StartChar: uniFB94
Encoding: 64404 64404 143
Width: 525
VWidth: 750
GlyphClass: 2
Flags: HMW
HStem: 0 73.5<0 112.5 112.5 162.375 0 281.25 0 112.5>
VStem: 135.42 36.33 391.335 43.53
AnchorPoint: "Anchor-1" 262.5 825 basechar 0
AnchorPoint: "Anchor-0" 315 -82.5 basechar 0
LayerCount: 2
Fore
SplineSet
430.5 719.25 m 1
 312 660 211.5 592.5 148.5 531 c 1
 141 567 l 1
 213.75 629.25 315.75 698.25 423 757.5 c 1
 430.5 719.25 l 1
491.25 640.5 m 1
 481.5 573 l 1
 171.75 379.5 l 1
 294.75 341.25 414 249.75 432 179.25 c 0
 446.25 122.25 409.5 0 281.25 0 c 2
 0 0 l 1
 0 73.5 l 1
 112.5 73.5 l 2
 212.25 73.5 336 66.75 382.5 92.25 c 1
 442.5 188.25 180.75 317.25 159 312.75 c 1
 137.25 312.75 123 326.25 150.75 402 c 1
 225 498 402 601.5 491.25 640.5 c 1
EndSplineSet
Validated: 524321
EndChar

StartChar: uni0644
Encoding: 1604 1604 144
Width: 525
VWidth: 750
GlyphClass: 2
Flags: HMW
HStem: -197.25 73.5 639 15G<449.25 449.25>
VStem: 64.5 36.75 402 59.25
AnchorPoint: "Anchor-1" 345 712.5 basechar 0
AnchorPoint: "Anchor-0" 277.5 -277.5 basechar 0
LayerCount: 2
Fore
SplineSet
264.75 -197.25 m 0
 152.25 -199.5 68.25 -132 64.5 -10.5 c 0
 62.25 61.5 88.5 141.75 128.25 179.25 c 1
 141 166.5 l 1
 112.5 139.5 94.5 58.5 101.25 -3 c 0
 111.75 -93 174 -125.25 259.5 -123.75 c 0
 351 -122.25 403.5 -81 402 -3.75 c 0
 399 203.25 388.5 421.5 375 565.5 c 1
 449.25 654 l 1
 461.25 54 l 2
 464.25 -93 400.5 -194.25 264.75 -197.25 c 0
EndSplineSet
Validated: 524321
Substitution2: "'fina' Terminal Forms lookup 31 subtable" uniFEDE
Substitution2: "'medi' Medial Forms lookup 30 subtable" uniFEE0
Substitution2: "'init' Initial Forms lookup 29 subtable" uniFEDF
AlternateSubs2: "'aalt' Access All Alternates lookup 1 subtable" uniFEDF uniFEE0 uniFEDE
EndChar

StartChar: uniFEDE
Encoding: 65246 65246 145
Width: 525
VWidth: 750
GlyphClass: 2
Flags: HMW
HStem: -262.5 73.5<146.25 234 146.25 247.875> 0 73.5<483.375 525 496.5 525> 639 15G<370.5 370.5>
VStem: 0 39<-104.25 -24> 324.75 60<-47.25 45.75 -47.25 97.875>
AnchorPoint: "Anchor-1" 345 712.5 basechar 0
AnchorPoint: "Anchor-0" 337.5 -300 basechar 0
LayerCount: 2
Fore
SplineSet
179.25 -262.5 m 0
 72 -262.5 0 -186 0 -64.5 c 0
 0 16.5 26.25 102 67.5 136.5 c 1
 78.75 120 l 1
 59.25 91.5 39 16.5 39 -54.75 c 0
 39 -153.75 102.75 -189 189.75 -189 c 0
 278.25 -189 324.75 -144.75 324.75 38.25 c 0
 324.75 157.5 307.5 477 299.25 578.25 c 1
 370.5 654 l 1
 377.25 508.5 375 136.5 391.5 101.25 c 1
 408.75 72 460.5 73.5 496.5 73.5 c 2
 525 73.5 l 1
 525 0 l 1
 496.5 0 l 2
 470.25 0 411 13.5 384.75 45.75 c 1
 384.75 -140.25 316.5 -262.5 179.25 -262.5 c 0
EndSplineSet
Validated: 524321
EndChar

StartChar: uniFEE0
Encoding: 65248 65248 146
Width: 525
VWidth: 750
GlyphClass: 2
Flags: HMW
HStem: 0 73.5<0 78.75 0 78.75 78.75 116.25 466.125 525> 639 15G<315 322.5 322.5 322.5>
VStem: 294 29.25
AnchorPoint: "Anchor-1" 270 742.5 basechar 0
AnchorPoint: "Anchor-0" 318 -82.5 basechar 0
LayerCount: 2
Fore
SplineSet
0 0 m 1
 0 73.5 l 1
 78.75 73.5 l 2
 246 73.5 269.25 125.25 269.25 204 c 0
 269.25 297 259.5 452.25 245.25 578.25 c 1
 315 654 l 1
 322.5 654 l 1
 323.25 212.25 l 2
 323.25 123.75 372 73.5 525 73.5 c 1
 525 0 l 1
 407.25 0 306.75 21 294 199.5 c 1
 274.5 35.25 211.5 0 116.25 0 c 2
 0 0 l 1
EndSplineSet
Validated: 524289
Substitution2: "Single Substitution lookup 54 subtable" uniFEE0.LamHeh
Substitution2: "Single Substitution lookup 7 subtable" uniFEE0.LamLamInit
Substitution2: "Single Substitution lookup 6 subtable" uniFEE0.Lellah
Substitution2: "Single Substitution lookup 4 subtable" uniFEE0.FaLellah
Substitution2: "'aalt' Access All Alternates lookup 0 subtable" uniFEE0.LamHeh
EndChar

StartChar: uniFEE0.FaLellah
Encoding: 1114226 -1 147
Width: 525
VWidth: 750
GlyphClass: 2
Flags: HMW
HStem: -15 73.5<128.25 207.375> 0 73.5<487.125 525>
VStem: 306 48.75<202.5 202.5 202.5 226.125>
AnchorPoint: "Anchor-1" 336 817.5 basechar 0
AnchorPoint: "Anchor-0" 390 -74.25 basechar 0
LayerCount: 2
Fore
SplineSet
354.75 202.5 m 1x60
 367.5 102.75 380.25 73.5 525 73.5 c 1
 525 0 l 1x60
 449.25 0 382.5 13.5 345 102 c 1
 321 20.25 252.75 -15 162 -15 c 0
 94.5 -15 39 2.25 0 39 c 1
 0 120 l 1
 31.5 78.75 87 58.5 164.25 58.5 c 0xa0
 257.25 58.5 306 88.5 306 200.25 c 0
 306 252 293.25 410.25 276.75 541.5 c 1
 340.5 605.25 l 1
 381 519.75 l 1
 359.25 495.75 354.75 442.5 354.75 297.75 c 2
 354.75 202.5 l 1x60
EndSplineSet
Validated: 524289
EndChar

StartChar: uniFEE0.LamHeh
Encoding: 1114227 -1 148
Width: 525
VWidth: 750
GlyphClass: 2
Flags: HMW
HStem: -204.75 74.25<69 134.625 66 136.5> 0 73.5<396.375 525 468.75 525 468.75 525> 639 15G<236.25 236.25>
VStem: 159.75 76.5<591.75 654> 205.5 44.1975
AnchorPoint: "Anchor-1" 172.5 712.5 basechar 0
AnchorPoint: "Anchor-0" 247.5 -262.5 basechar 0
LayerCount: 2
Fore
SplineSet
84.75 -204.75 m 0xe8
 53.25 -204.75 30.75 -191.25 0 -156.75 c 1
 0 -81 l 1
 21.75 -114 43.5 -130.5 88.5 -130.5 c 0
 180.75 -130.5 213 -55.5 205.5 56.25 c 0xe8
 192.75 247.5 168 531 159.75 591.75 c 1
 236.25 654 l 1
 240 505.5 247.5 259.5 251.25 204 c 0xf0
 258 86.25 326.25 73.5 468.75 73.5 c 2
 525 73.5 l 1
 525 0 l 1
 443.25 0 l 2
 349.5 0 292.5 5.25 243 105 c 1
 275.25 -117 188.25 -204.75 84.75 -204.75 c 0xe8
EndSplineSet
Validated: 524321
EndChar

StartChar: uniFEE0.LamLamInit
Encoding: 1114228 -1 149
Width: 525
VWidth: 750
GlyphClass: 2
Flags: HMW
HStem: 0 73.5<0 135.75 0 135.75 135.75 173.25 508.125 525> 639 15G<399 406.5 406.5 406.5>
VStem: 378 29.25
AnchorPoint: "Anchor-1" 334.5 742.5 basechar 0
AnchorPoint: "Anchor-0" 370.5 -82.5 basechar 0
LayerCount: 2
Fore
SplineSet
0 0 m 1
 0 73.5 l 1
 135.75 73.5 l 2
 330 73.5 353.25 125.25 353.25 204 c 0
 353.25 297 343.5 452.25 329.25 578.25 c 1
 399 654 l 1
 406.5 654 l 1
 407.25 212.25 l 2
 407.25 123.75 456 73.5 525 73.5 c 1
 525 0 l 1
 491.25 0 390.75 21 378 199.5 c 1
 358.5 35.25 255 0 173.25 0 c 2
 0 0 l 1
EndSplineSet
Validated: 524289
Substitution2: "Single Substitution lookup 54 subtable" uniFEE0.LamHeh
Substitution2: "'aalt' Access All Alternates lookup 0 subtable" uniFEE0.LamHeh
EndChar

StartChar: uniFEE0.Lellah
Encoding: 1114229 -1 150
Width: 525
VWidth: 750
GlyphClass: 2
Flags: HMW
HStem: -15 73.5<170.625 297>
VStem: 0 12<120.75 487.5 479.25 487.5> 435.75 57.0975
AnchorPoint: "Anchor-1" 504.75 736.5 basechar 0
AnchorPoint: "Anchor-0" 507.75 -87 basechar 0
LayerCount: 2
Fore
SplineSet
227.25 -15 m 0
 89.25 -15 29.25 55.5 0 120.75 c 1
 0 479.25 l 1
 12 487.5 l 1
 18.75 283.5 23.25 214.5 29.25 181.5 c 0
 46.5 87.75 111 58.5 230.25 58.5 c 0
 369 58.5 435.75 92.25 435.75 230.25 c 0
 435.75 333 429 403.5 420 486 c 1
 493.5 551.25 l 1
 499.5 549.75 l 1
 501.75 451.5 485.25 261.75 497.25 187.5 c 0
 501.75 160.5 511.5 138 525 120 c 1
 525 39 l 1
 494.25 69 474 111 466.5 165.75 c 1
 453 39.75 366.75 -15 227.25 -15 c 0
EndSplineSet
Validated: 524321
MultipleSubs2: "Multiple Substitution lookup 3 subtable" uniFEE0.Lellah uni0651 uni0670
EndChar

StartChar: uniFEDF
Encoding: 65247 65247 151
Width: 525
VWidth: 750
GlyphClass: 2
Flags: HMW
HStem: 0 73.5<0 219 0 204.75> 634.5 15G<328.5 328.5>
VStem: 298.5 51<138.375 146.25 146.25 213.75>
AnchorPoint: "Anchor-1" 321.75 742.5 basechar 0
AnchorPoint: "Anchor-0" 338.25 -82.5 basechar 0
LayerCount: 2
Fore
SplineSet
0 0 m 1
 0 73.5 l 1
 219 73.5 l 2
 285 73.5 298.5 105 298.5 171.75 c 0
 298.5 255.75 280.5 460.5 261.75 581.25 c 1
 328.5 649.5 l 1
 379.5 550.5 l 1
 347.25 499.5 l 1
 347.25 456 349.5 411.75 349.5 297.75 c 2
 349.5 146.25 l 2
 349.5 42 322.5 0 204.75 0 c 2
 0 0 l 1
EndSplineSet
Validated: 524289
Substitution2: "Single Substitution lookup 7 subtable" uniFEDF.LamLamInit
Substitution2: "Single Substitution lookup 5 subtable" uniFEDF.Lellah
EndChar

StartChar: uniFEDF.LamLamInit
Encoding: 1114230 -1 152
Width: 525
VWidth: 750
GlyphClass: 2
Flags: HMW
HStem: 0 73.5<0 219 0 204.75> 634.5 15G<328.5 328.5>
VStem: 298.5 51<138.375 146.25 146.25 213.75>
AnchorPoint: "Anchor-1" 321.75 742.5 basechar 0
AnchorPoint: "Anchor-0" 338.25 -82.5 basechar 0
LayerCount: 2
Fore
SplineSet
0 0 m 1
 0 73.5 l 1
 219 73.5 l 2
 285 73.5 298.5 105 298.5 171.75 c 0
 298.5 255.75 280.5 460.5 261.75 581.25 c 1
 328.5 649.5 l 1
 379.5 550.5 l 1
 347.25 499.5 l 1
 347.25 456 349.5 411.75 349.5 297.75 c 2
 349.5 146.25 l 2
 349.5 42 322.5 0 204.75 0 c 2
 0 0 l 1
EndSplineSet
Validated: 524289
EndChar

StartChar: uniFEDF.Lellah
Encoding: 1114231 -1 153
Width: 525
VWidth: 750
GlyphClass: 2
Flags: HMW
HStem: -15 73.5<128.25 209.25 125.625 219>
VStem: 303 51.75<144.375 175.5 175.5 226.125>
AnchorPoint: "Anchor-1" 336 817.5 basechar 0
AnchorPoint: "Anchor-0" 390 -74.25 basechar 0
LayerCount: 2
Fore
SplineSet
0 120 m 1
 31.5 78.75 87 58.5 164.25 58.5 c 0
 254.25 58.5 303 88.5 303 200.25 c 0
 303 252 290.25 410.25 276.75 541.5 c 1
 340.5 605.25 l 1
 381 519.75 l 1
 359.25 495.75 354.75 442.5 354.75 297.75 c 2
 354.75 175.5 l 2
 354.75 41.25 276 -15 162 -15 c 0
 94.5 -15 39 2.25 0 39 c 1
 0 120 l 1
EndSplineSet
Validated: 524289
EndChar

StartChar: uni0645
Encoding: 1605 1605 154
Width: 525
VWidth: 750
GlyphClass: 2
Flags: HMW
HStem: 0 73.5<212.625 244.5 244.5 417> 252.75 63<316.125 337.125>
VStem: 119.25 6.75<-370.5 -369>
AnchorPoint: "Anchor-1" 300 510 basechar 0
AnchorPoint: "Anchor-0" 285 -375 basechar 0
LayerCount: 2
Fore
SplineSet
337.5 315.75 m 0
 420 315.75 496.5 110.25 496.5 71.25 c 0
 496.5 48.75 479.25 0 417 0 c 2
 244.5 0 l 2
 180.75 0 135 -4.5 135 -42 c 0
 135 -66.75 154.5 -174.75 174 -319.5 c 1
 126 -370.5 l 1
 119.25 -369 l 1
 113.25 -305.25 111.75 -306.75 85.5 -91.5 c 0
 77.25 -23.25 115.5 67.5 204.75 73.5 c 1
 444.75 73.5 l 1
 417 150 351.75 252.75 322.5 252.75 c 0
 279 252.75 237 129 214.5 129 c 0
 207.75 129 202.5 138 202.5 152.25 c 0
 202.5 165.75 208.5 183.75 226.5 221.25 c 0
 251.25 270 294.75 315.75 337.5 315.75 c 0
EndSplineSet
Validated: 524321
Substitution2: "'fina' Terminal Forms lookup 31 subtable" uniFEE2
Substitution2: "'medi' Medial Forms lookup 30 subtable" uniFEE4
Substitution2: "'init' Initial Forms lookup 29 subtable" uniFEE3
AlternateSubs2: "'aalt' Access All Alternates lookup 1 subtable" uniFEE3 uniFEE4 uniFEE2
EndChar

StartChar: uniFEE2
Encoding: 65250 65250 155
Width: 525
VWidth: 750
GlyphClass: 2
Flags: HMW
HStem: -30 74.25 0 73.5<487.125 525 509.25 525 509.25 525> 273 47.4375
VStem: 376.5 25.5
AnchorPoint: "Anchor-1" 277.5 510 basechar 0
AnchorPoint: "Anchor-0" 300 -375 basechar 0
LayerCount: 2
Fore
SplineSet
450.75 96.75 m 0x70
 468 73.5 493.5 73.5 525 73.5 c 1
 525 0 l 1
 498 0 l 2
 476.25 0 456 6.75 432 27 c 0
 419.25 37.5 409.5 48 402 60 c 1x70
 401.25 29.25 382.5 -11.25 366.75 -30 c 1xb0
 283.5 -22.5 213 6.75 151.5 50.25 c 1
 126.75 28.5 105.75 9.75 84 -14.25 c 1
 115.5 -328.5 l 1
 59.25 -368.25 l 1
 53.25 -366.75 l 1
 53.25 -295.5 45 -156 39.75 -66.75 c 0
 35.25 5.25 45 39.75 120.75 86.25 c 0
 142.5 100.5 228.75 283.5 267.75 312 c 0
 281.25 321.75 351.75 324.75 370.5 312 c 0
 411.75 282.75 425.25 139.5 450.75 96.75 c 0x70
185.25 108 m 1xb0
 243 70.5 298.5 48 376.5 44.25 c 1
 377.25 117 356.25 202.5 319.5 273.75 c 1
 291.75 272.25 l 1
 242.25 209.25 210 148.5 185.25 108 c 1xb0
176.25 114 m 1
 185.25 108 l 1
 176.25 114 l 1
EndSplineSet
Validated: 524325
EndChar

StartChar: uniFEE4
Encoding: 65252 65252 156
Width: 525
VWidth: 750
GlyphClass: 2
Flags: HMW
HStem: -30 74.25 0 73.5<0 51.75 0 77.25 509.25 525> 274.125 46.3125
VStem: 361.5 25.5
AnchorPoint: "Anchor-1" 262.5 510 basechar 0
AnchorPoint: "Anchor-0" 360 -82.5 basechar 0
LayerCount: 2
Fore
SplineSet
450.75 96.75 m 1x70
 468 73.5 493.5 73.5 525 73.5 c 1
 525 0 l 1
 495 0 l 2
 461.25 0 441 6.75 417 27 c 0
 404.25 37.5 394.5 48 387 60 c 1x70
 386.25 29.25 367.5 -11.25 351.75 -30 c 1xb0
 268.5 -22.5 198 6.75 136.5 50.25 c 1
 117 9.75 75.75 0 51.75 0 c 2
 0 0 l 1
 0 73.5 l 1
 77.25 73.5 l 2
 108.75 73.5 213.75 282.75 252.75 312 c 0
 265.5 321.75 336.75 324.75 355.5 312 c 0
 396.75 282.75 410.25 139.5 450.75 96.75 c 1x70
161.25 114 m 2xb0
 220.5 72.75 275.25 48 361.5 44.25 c 1
 361.5 118.5 345 195 303 276 c 1
 276.75 272.25 l 1
 227.25 209.25 197.25 152.25 170.25 108 c 1
 161.25 114 l 2xb0
EndSplineSet
Validated: 524321
EndChar

StartChar: uniFEE3
Encoding: 65251 65251 157
Width: 525
VWidth: 750
GlyphClass: 2
Flags: HMW
HStem: -25.5 73.5 0 73.5<0 99.75 0 125.25> 274.5 45.66
VStem: 0 463.5<0 126.75 73.5 126.75> 408 55.5
AnchorPoint: "Anchor-1" 300 510 basechar 0
AnchorPoint: "Anchor-0" 382.5 -82.5 basechar 0
LayerCount: 2
Fore
SplineSet
398.25 312 m 0x70
 435.75 287.25 453.75 195 463.5 126.75 c 1
 463.5 76.5 420.75 -6 395.25 -25.5 c 1xa8
 312.75 -19.5 242.25 7.5 181.5 50.25 c 1
 159.75 9.75 128.25 0 99.75 0 c 2
 0 0 l 1
 0 73.5 l 1
 125.25 73.5 l 2
 156.75 73.5 264.75 287.25 300.75 312 c 0
 315 321 378 324.75 398.25 312 c 0x70
220.5 106.5 m 1xa8
 277.5 69.75 332.25 48 408 48 c 1
 405 105.75 387 201.75 346.5 275.25 c 1
 325.5 273.75 l 1
 280.5 215.25 243.75 150.75 220.5 106.5 c 1xa8
EndSplineSet
Validated: 524321
Substitution2: "'ss01' Style Set 1 lookup 36 subtable" uniFEE3.ss01
Substitution2: "'salt' Stylistic Alternatives lookup 35 subtable" uniFEE3.ss01
Substitution2: "'aalt' Access All Alternates lookup 0 subtable" uniFEE3.ss01
EndChar

StartChar: uniFEE3.ss01
Encoding: 1114232 -1 158
Width: 525
VWidth: 750
GlyphClass: 2
Flags: HMW
HStem: 0 73.5<0 150.75 0 45.75>
VStem: 0 432.533
AnchorPoint: "Anchor-1" 300 510 basechar 0
AnchorPoint: "Anchor-0" 382.5 -82.5 basechar 0
LayerCount: 2
Fore
SplineSet
0 0 m 1
 0 73.5 l 1
 150.75 73.5 l 2
 232.5 73.5 274.5 75.75 324 97.5 c 1
 276.75 110.25 231.75 161.25 232.5 191.25 c 0
 233.25 216 249 237.75 262.5 256.5 c 0
 280.5 280.5 294 292.5 310.5 292.5 c 0
 343.5 292.5 402.75 231.75 432 187.5 c 1
 435.75 129.75 420.75 85.5 394.5 58.5 c 0
 346.5 9.75 234 0 45.75 0 c 2
 0 0 l 1
EndSplineSet
Validated: 524321
EndChar

StartChar: uni0646
Encoding: 1606 1606 159
Width: 525
VWidth: 750
GlyphClass: 2
Flags: HMW
HStem: -139.5 73.5<162 275.625 162 308.25> 435.75 15G<201.75 201.75>
VStem: 24.75 42 447 42.75<48.75 78.75>
AnchorPoint: "Anchor-1" 226.5 600 basechar 0
AnchorPoint: "Anchor-0" 307.5 -240 basechar 0
LayerCount: 2
Fore
SplineSet
201.75 337.5 m 1
 150 394.5 l 1
 201.75 450.75 l 1
 252.75 394.5 l 1
 201.75 337.5 l 1
227.25 -139.5 m 0
 90.75 -139.5 15 -49.5 24.75 81.75 c 0
 29.25 140.25 48.75 196.5 71.25 223.5 c 1
 87.75 212.25 l 1
 82.5 199.5 66.75 138 66.75 87 c 0
 66.75 3.75 109.5 -66 214.5 -66 c 0
 336.75 -66 447 -11.25 447 78.75 c 0
 445.5 119.25 422.25 216 380.25 287.25 c 1
 426 360.75 l 1
 453.75 301.5 487.5 196.5 489.75 121.5 c 0
 489.75 -24 389.25 -139.5 227.25 -139.5 c 0
EndSplineSet
Validated: 524321
Substitution2: "'fina' Terminal Forms lookup 31 subtable" uniFEE6
Substitution2: "'medi' Medial Forms lookup 30 subtable" uniFEE8
Substitution2: "'init' Initial Forms lookup 29 subtable" uniFEE7
AlternateSubs2: "'aalt' Access All Alternates lookup 1 subtable" uniFEE7 uniFEE8 uniFEE6
EndChar

StartChar: uniFEE6
Encoding: 65254 65254 160
Width: 525
VWidth: 750
GlyphClass: 2
Flags: HMW
HStem: -263.25 77.25 0 73.5<507.75 513 513 525>
VStem: 0.75 42 420 36.75
AnchorPoint: "Anchor-1" 225 585.75 basechar 0
AnchorPoint: "Anchor-0" 307.5 -375 basechar 0
LayerCount: 2
Fore
SplineSet
172.5 284.25 m 1
 120.75 341.25 l 1
 172.5 397.5 l 1
 223.5 341.25 l 1
 172.5 284.25 l 1
199.5 -263.25 m 0
 37.5 -256.5 -3.75 -137.25 0.75 -28.5 c 0
 3.75 42 20.25 96 47.25 140.25 c 1
 71.25 124.5 l 1
 54 86.25 42.75 39.75 42.75 -9.75 c 0
 42.75 -125.25 104.25 -180 201.75 -186 c 0
 335.25 -194.25 429.75 -84.75 420 27 c 0
 415.5 86.25 378 163.5 351 206.25 c 1
 399.75 261.75 l 1
 426 205.5 465.75 73.5 507.75 73.5 c 2
 525 73.5 l 1
 525 0 l 1
 513 0 l 2
 497.25 0 482.25 9 456.75 45 c 1
 467.25 -191.25 323.25 -267.75 199.5 -263.25 c 0
EndSplineSet
Validated: 524321
EndChar

StartChar: uniFEE8
Encoding: 65256 65256 161
Width: 525
VWidth: 750
GlyphClass: 2
Flags: HMW
HStem: 0 73.5<0 172.5 172.5 179.25 0 172.5 483.75 525>
VStem: 317.25 62.25<126.75 174>
AnchorPoint: "Anchor-1" 225 675 basechar 0
AnchorPoint: "Anchor-0" 300 -82.5 basechar 0
LayerCount: 2
Fore
SplineSet
192.75 415.5 m 1
 141 472.5 l 1
 192.75 528.75 l 1
 243.75 472.5 l 1
 192.75 415.5 l 1
525 73.5 m 1
 525 0 l 1
 416.25 0 368.25 24.75 339 123 c 1
 310.5 35.25 273 0 179.25 0 c 2
 0 0 l 1
 0 73.5 l 1
 172.5 73.5 l 2
 258.75 73.5 317.25 90 317.25 162.75 c 0
 317.25 185.25 314.25 212.25 309.75 242.25 c 1
 379.5 304.5 l 1
 378 268.5 378 150 379.5 126.75 c 0
 382.5 88.5 442.5 73.5 525 73.5 c 1
EndSplineSet
Validated: 524321
EndChar

StartChar: uniFEE7
Encoding: 65255 65255 162
Width: 525
VWidth: 750
GlyphClass: 2
Flags: HMW
HStem: 0 73.5<0 329.25 0 306.75>
VStem: 432 60.75<139.5 148.875>
AnchorPoint: "Anchor-1" 240 645 basechar 0
AnchorPoint: "Anchor-0" 337.5 -82.5 basechar 0
LayerCount: 2
Fore
SplineSet
237 415.5 m 1
 185.25 472.5 l 1
 237 528.75 l 1
 288 472.5 l 1
 237 415.5 l 1
0 0 m 1
 0 73.5 l 1
 329.25 73.5 l 2
 391.5 73.5 432.75 105 432 139.5 c 0
 432 158.25 417.75 230.25 402 284.25 c 1
 450.75 355.5 l 1
 464.25 312.75 492.75 211.5 492.75 159.75 c 0
 492.75 83.25 432 0 306.75 0 c 2
 0 0 l 1
EndSplineSet
Validated: 524321
EndChar

StartChar: uni06BA
Encoding: 1722 1722 163
Width: 525
VWidth: 750
GlyphClass: 2
Flags: HMW
HStem: -139.5 73.5<162 275.625 162 308.25>
VStem: 24.75 42 447 42.75<48.75 78.75>
AnchorPoint: "Anchor-1" 262.5 525 basechar 0
AnchorPoint: "Anchor-0" 307.5 -240 basechar 0
LayerCount: 2
Fore
SplineSet
227.25 -139.5 m 0
 90.75 -139.5 15 -49.5 24.75 81.75 c 0
 29.25 140.25 48.75 196.5 71.25 223.5 c 1
 87.75 212.25 l 1
 82.5 199.5 66.75 138 66.75 87 c 0
 66.75 3.75 109.5 -66 214.5 -66 c 0
 336.75 -66 447 -11.25 447 78.75 c 0
 445.5 119.25 422.25 216 380.25 287.25 c 1
 426 360.75 l 1
 453.75 301.5 487.5 196.5 489.75 121.5 c 0
 489.75 -24 389.25 -139.5 227.25 -139.5 c 0
EndSplineSet
Validated: 524321
Substitution2: "'fina' Terminal Forms lookup 31 subtable" uniFB9F
Substitution2: "'aalt' Access All Alternates lookup 0 subtable" uniFB9F
EndChar

StartChar: uniFB9F
Encoding: 64415 64415 164
Width: 525
VWidth: 750
GlyphClass: 2
Flags: HMW
HStem: -263.25 77.25 0 73.5<507.75 513 513 525>
VStem: 0.75 42 420 36.75
AnchorPoint: "Anchor-1" 262.5 450 basechar 0
AnchorPoint: "Anchor-0" 315 -375 basechar 0
LayerCount: 2
Fore
SplineSet
199.5 -263.25 m 0
 37.5 -256.5 -3.75 -137.25 0.75 -28.5 c 0
 3.75 42 20.25 96 47.25 140.25 c 1
 71.25 124.5 l 1
 54 86.25 42.75 39.75 42.75 -9.75 c 0
 42.75 -125.25 104.25 -180 201.75 -186 c 0
 335.25 -194.25 429.75 -84.75 420 27 c 0
 415.5 86.25 378 163.5 351 206.25 c 1
 399.75 261.75 l 1
 426 205.5 465.75 73.5 507.75 73.5 c 2
 525 73.5 l 1
 525 0 l 1
 513 0 l 2
 497.25 0 482.25 9 456.75 45 c 1
 467.25 -191.25 323.25 -267.75 199.5 -263.25 c 0
EndSplineSet
Validated: 524321
EndChar

StartChar: uni0647
Encoding: 1607 1607 165
Width: 525
VWidth: 750
GlyphClass: 2
Flags: HMW
HStem: -26.25 67.5<282 343.5 282 345.375> 307.5 15G<224.25 224.25>
VStem: 158.25 54<93 137.25> 437.25 42<111.75 149.625>
AnchorPoint: "Anchor-1" 280.5 510 basechar 0
AnchorPoint: "Anchor-0" 328.5 -90 basechar 0
LayerCount: 2
Fore
SplineSet
431.25 282.75 m 0
 472.5 240.75 479.25 201.75 479.25 169.5 c 0
 479.25 54 393 -26.25 297.75 -26.25 c 0
 220.5 -26.25 158.25 11.25 158.25 96.75 c 0
 158.25 177.75 219 249 306 287.25 c 1
 281.25 298.5 253.5 309.75 224.25 322.5 c 1
 265.5 379.5 l 1
 295.5 366 378.75 336 431.25 282.75 c 0
309.75 41.25 m 0
 377.25 41.25 437.25 72.75 437.25 132.75 c 0
 437.25 166.5 414.75 209.25 385.5 237 c 0
 366.75 254.25 345.75 267.75 322.5 279.75 c 1
 269.25 249.75 212.25 186.75 212.25 122.25 c 0
 212.25 63.75 254.25 41.25 309.75 41.25 c 0
EndSplineSet
Validated: 524289
Substitution2: "'fina' Terminal Forms lookup 31 subtable" uniFEEA
Substitution2: "'medi' Medial Forms lookup 30 subtable" uniFEEC
Substitution2: "'init' Initial Forms lookup 29 subtable" uniFEEB
AlternateSubs2: "'aalt' Access All Alternates lookup 1 subtable" uniFEEB uniFEEC uniFEEA
EndChar

StartChar: uniFEEA
Encoding: 65258 65258 166
Width: 525
VWidth: 750
GlyphClass: 2
Flags: HMW
HStem: 0 73.5<453 462.75 462.75 525> 73.2225 73.0275
VStem: 51.75 55.7175 285 42
AnchorPoint: "Anchor-1" 247.5 600 basechar 0
AnchorPoint: "Anchor-0" 300 -82.5 basechar 0
LayerCount: 2
Fore
SplineSet
453 73.5 m 2xb0
 525 73.5 l 1
 525 0 l 1
 462.75 0 l 2xb0
 368.25 0 321.75 60.75 308.25 132 c 1
 290.25 98.25 l 1
 229.5 58.5 129.75 73.5 90 91.5 c 0
 65.25 103.5 51.75 123 51.75 151.5 c 0x70
 51.75 174.75 59.25 219 125.25 288.75 c 0
 189 355.5 256.5 391.5 285 405 c 1
 274.5 450.75 l 1
 327 472.5 l 1
 334.5 288 334.5 278.25 343.5 175.5 c 0
 348.75 123 378 73.5 453 73.5 c 2xb0
185.25 146.25 m 0x70
 222 146.25 256.5 150.75 301.5 161.25 c 1
 301.5 232.5 299.25 261.75 290.25 356.25 c 1
 238.5 330.75 166.5 272.25 128.25 225 c 0
 87 174 107.25 146.25 185.25 146.25 c 0x70
EndSplineSet
Validated: 524321
Substitution2: "Single Substitution lookup 54 subtable" uniFEEA.LamHeh
Substitution2: "Single Substitution lookup 2 subtable" uniFEEA.Lellah
Substitution2: "'aalt' Access All Alternates lookup 0 subtable" uniFEEA.LamHeh
EndChar

StartChar: uniFEEA.LamHeh
Encoding: 1114233 -1 167
Width: 525
VWidth: 750
GlyphClass: 2
Flags: HMW
HStem: -40.59 72.84
VStem: 197.25 55.3275 450 33
AnchorPoint: "Anchor-1" 300 495 basechar 0
AnchorPoint: "Anchor-0" 367.5 -199.5 basechar 0
LayerCount: 2
Fore
SplineSet
495 84 m 0
 498 18 504 -53.25 525 -81 c 1
 525 -156.75 l 1
 483 -127.5 465.75 -46.5 453.75 18 c 1
 435.75 -15 l 1
 375 -55.5 274.5 -40.5 234.75 -21.75 c 0
 210 -10.5 197.25 9.75 197.25 38.25 c 0
 197.25 60 204.75 105.75 270.75 174.75 c 0
 333 241.5 397.5 276 430.5 291 c 1
 420 336.75 l 1
 483 360.75 l 1
 487.5 235.5 488.25 195 495 84 c 0
330.75 32.25 m 0
 366.75 32.25 406.5 37.5 450 48 c 1
 450 118.5 447.75 147.75 438.75 241.5 c 1
 387.75 217.5 311.25 159 273 111 c 0
 232.5 60.75 252 32.25 330.75 32.25 c 0
EndSplineSet
Validated: 524321
EndChar

StartChar: uniFEEA.Lellah
Encoding: 1114234 -1 168
Width: 525
VWidth: 750
GlyphClass: 2
Flags: HMW
HStem: 81.66 72.84
VStem: 260.25 55.7175 510 15<171 205.875>
AnchorPoint: "Anchor-1" 525 675 basechar 0
AnchorPoint: "Anchor-0" 515.25 -54 basechar 0
LayerCount: 2
Fore
SplineSet
489 459 m 1
 525 479.25 l 1
 525 120.75 l 1
 522 127.5 519 133.5 516.75 139.5 c 1
 498.75 107.25 l 1
 438 66.75 338.25 81.75 298.5 100.5 c 0
 273.75 111.75 260.25 132 260.25 160.5 c 0
 260.25 182.25 267.75 228 333.75 297 c 0
 397.5 363.75 462 399 493.5 413.25 c 1
 489 459 l 1
393.75 154.5 m 0
 431.25 154.5 468 160.5 510 171 c 1
 510 240.75 507.75 270 498.75 363 c 1
 446.25 340.5 372.75 279.75 336.75 233.25 c 0
 295.5 181.5 315.75 154.5 393.75 154.5 c 0
EndSplineSet
Validated: 524321
EndChar

StartChar: uniFEEC
Encoding: 65260 65260 169
Width: 525
VWidth: 750
GlyphClass: 2
Flags: HMW
HStem: -290.25 69<270.375 303.375> 0 72.75 290.25 72<332.625 334.125>
VStem: 125.25 23.25 350.25 38.25<-176.25 -147.75> 368.25 34.5<237.375 250.875>
AnchorPoint: "Anchor-1" 277.5 525 basechar 0
AnchorPoint: "Anchor-0" 292.5 -375 basechar 0
LayerCount: 2
Fore
SplineSet
525 73.5 m 1xf4
 525 0 l 1
 317.25 0 l 1
 366.75 -45 388.5 -89.25 388.5 -136.5 c 0xf8
 388.5 -217.5 326.25 -290.25 280.5 -290.25 c 0
 250.5 -290.25 201 -261 171.75 -220.5 c 0
 163.5 -209.25 126.75 -156 123 -67.5 c 0
 122.25 -45.75 123 -24 125.25 0 c 1
 0 0 l 1
 0 73.5 l 1
 140.25 73.5 l 1
 180 192.75 189 234 233.25 287.25 c 0
 270 330 314.25 362.25 351 362.25 c 0
 388.5 362.25 402.75 329.25 402.75 277.5 c 0
 402.75 197.25 367.5 139.5 296.25 72 c 1
 525 73.5 l 1xf4
250.5 255.75 m 0
 227.25 231 203.25 180 174 73.5 c 1
 216 73.5 239.25 73.5 259.5 75 c 1
 300.75 101.25 368.25 181.5 368.25 235.5 c 0
 368.25 266.25 346.5 290.25 321.75 290.25 c 0
 307.5 290.25 274.5 282.75 250.5 255.75 c 0
350.25 -168 m 0xf8
 350.25 -127.5 326.25 -81 264.75 -20.25 c 1
 231.75 -3 216.75 0 170.25 0 c 1
 159 -12 148.5 -22.5 148.5 -50.25 c 0
 148.5 -144.75 239.25 -221.25 301.5 -221.25 c 0
 342 -221.25 350.25 -184.5 350.25 -168 c 0xf8
EndSplineSet
Validated: 524321
EndChar

StartChar: uniFEEB
Encoding: 65259 65259 170
Width: 525
VWidth: 750
GlyphClass: 2
Flags: HMW
HStem: 0 67.5<0 366.375> 0 73.5<0 72.75 166.125 224.25 0 72.75> 438.75 69.75<331.125 363>
VStem: 72.75 45<112.5 155.25> 284.25 41.25<137.25 165.375> 448.5 52.5<142.125 183.375>
AnchorPoint: "Anchor-1" 285 645 basechar 0
AnchorPoint: "Anchor-0" 307.5 -82.5 basechar 0
LayerCount: 2
Fore
SplineSet
361.5 508.5 m 0x7c
 442.5 508.5 501 269.25 501 193.5 c 0
 501 90.75 394.5 0 316.5 0 c 2
 0 0 l 1
 0 73.5 l 1
 72.75 73.5 l 1
 72.75 237 178.5 280.5 229.5 282 c 1
 254.25 374.25 300.75 508.5 361.5 508.5 c 0x7c
334.5 67.5 m 0xbc
 398.25 67.5 448.5 101.25 448.5 154.5 c 0
 448.5 212.25 388.5 438.75 337.5 438.75 c 0
 305.25 438.75 273.75 351.75 246 281.25 c 1
 293.25 273.75 325.5 228 325.5 158.25 c 0
 325.5 116.25 314.25 96.75 288 72.75 c 1
 308.25 68.25 323.25 67.5 334.5 67.5 c 0xbc
198 73.5 m 0x7c
 250.5 73.5 284.25 89.25 284.25 138.75 c 0
 284.25 192 243 250.5 201.75 250.5 c 0
 157.5 250.5 117.75 185.25 117.75 129 c 0
 117.75 96 134.25 73.5 198 73.5 c 0x7c
EndSplineSet
Validated: 524289
EndChar

StartChar: uni06C1
Encoding: 1729 1729 171
Width: 525
VWidth: 750
GlyphClass: 2
Flags: HMW
HStem: -26.25 67.5<282 343.5 282 345.375> 307.5 15G<224.25 224.25>
VStem: 158.25 54<93 137.25> 437.25 42<111.75 149.625>
AnchorPoint: "Anchor-1" 280.5 510 basechar 0
AnchorPoint: "Anchor-0" 328.5 -90 basechar 0
LayerCount: 2
Fore
SplineSet
431.25 282.75 m 0
 472.5 240.75 479.25 201.75 479.25 169.5 c 0
 479.25 54 393 -26.25 297.75 -26.25 c 0
 220.5 -26.25 158.25 11.25 158.25 96.75 c 0
 158.25 177.75 219 249 306 287.25 c 1
 281.25 298.5 253.5 309.75 224.25 322.5 c 1
 265.5 379.5 l 1
 295.5 366 378.75 336 431.25 282.75 c 0
309.75 41.25 m 0
 377.25 41.25 437.25 72.75 437.25 132.75 c 0
 437.25 166.5 414.75 209.25 385.5 237 c 0
 366.75 254.25 345.75 267.75 322.5 279.75 c 1
 269.25 249.75 212.25 186.75 212.25 122.25 c 0
 212.25 63.75 254.25 41.25 309.75 41.25 c 0
EndSplineSet
Validated: 524289
Substitution2: "'fina' Terminal Forms lookup 31 subtable" uniFBA7
Substitution2: "'medi' Medial Forms lookup 30 subtable" uniFBA9
Substitution2: "'init' Initial Forms lookup 29 subtable" uniFBA8
AlternateSubs2: "'aalt' Access All Alternates lookup 1 subtable" uniFBA8 uniFBA9 uniFBA7
EndChar

StartChar: uniFBA7
Encoding: 64423 64423 172
Width: 525
VWidth: 750
GlyphClass: 2
Flags: HMW
HStem: 0 73.5<383.25 525 486 525 486 525>
VStem: 96.6825 428.317
AnchorPoint: "Anchor-1" 262.5 525 basechar 0
AnchorPoint: "Anchor-0" 330 -82.5 basechar 0
LayerCount: 2
Fore
SplineSet
106.5 -21.75 m 0
 97.5 -21.75 94.5 -6.75 98.25 18.75 c 0
 102 76.5 163.5 269.25 231.75 282.75 c 0
 259.5 288 282.75 263.25 296.25 237.75 c 0
 309.75 213.75 327.75 166.5 344.25 135.75 c 0
 373.5 79.5 411.75 73.5 486 73.5 c 2
 525 73.5 l 1
 525 0 l 1
 437.25 0 l 2
 329.25 0 291.75 85.5 267 140.25 c 0
 256.5 164.25 247.5 186 225.75 183 c 0
 207 180.75 194.25 160.5 187.5 147 c 0
 170.25 110.25 135 -20.25 106.5 -21.75 c 0
EndSplineSet
Validated: 524321
Substitution2: "Single Substitution lookup 2 subtable" uniFEEA.Lellah
EndChar

StartChar: uniFBA9
Encoding: 64425 64425 173
Width: 525
VWidth: 750
GlyphClass: 2
Flags: HMW
HStem: 0 73.5<0 33.75 0 36.75 422.25 454.5 454.5 525>
VStem: 135.75 45.75 153 63
AnchorPoint: "Anchor-1" 262.5 450 basechar 0
AnchorPoint: "Anchor-0" 375 -285 basechar 0
LayerCount: 2
Fore
SplineSet
170.25 -290.25 m 0xc0
 160.5 -290.25 153 -282 147 -246.75 c 0
 139.5 -203.25 135.75 -140.25 135.75 -104.25 c 0xc0
 135.75 -24 153 37.5 153 63 c 0
 153 72 150.75 77.25 146.25 77.25 c 0
 129.75 77.25 84.75 0 33.75 0 c 2
 0 0 l 1
 0 73.5 l 1
 36.75 73.5 l 2
 87 73.5 158.25 180.75 193.5 180.75 c 0xa0
 213 180.75 216.75 158.25 216 141.75 c 0
 213.75 93.75 192.75 6.75 181.5 -162 c 1
 231.75 -35.25 346.5 73.5 422.25 73.5 c 2
 525 73.5 l 1
 525 0 l 1
 454.5 0 l 2
 355.5 0 254.25 -75 220.5 -188.25 c 0
 207 -233.25 199.5 -290.25 170.25 -290.25 c 0xc0
EndSplineSet
Validated: 524321
EndChar

StartChar: uniFBA8
Encoding: 64424 64424 174
Width: 525
VWidth: 750
GlyphClass: 2
Flags: HMW
HStem: 0 73.5<0 306.75 0 329.25>
VStem: 305.175 36.825 432 60.75<139.5 148.875>
AnchorPoint: "Anchor-1" 262.5 487.5 basechar 0
AnchorPoint: "Anchor-0" 375 -330 basechar 0
LayerCount: 2
Fore
SplineSet
492.75 159.75 m 0
 492.75 112.5 469.5 62.25 421.5 31.5 c 1
 376.5 -18.75 342 -62.25 342 -99 c 0
 342 -122.25 354.75 -138 372 -146.25 c 0
 393.75 -156 421.5 -168 418.5 -204 c 0
 416.25 -230.25 398.25 -256.5 361.5 -249 c 0
 307.5 -239.25 299.25 -177 308.25 -126 c 0
 317.25 -77.25 343.5 -30 375 9.75 c 1
 354.75 3.75 332.25 0 306.75 0 c 2
 0 0 l 1
 0 73.5 l 1
 329.25 73.5 l 2
 391.5 73.5 432.75 105 432 139.5 c 0
 432 158.25 417.75 230.25 402 284.25 c 1
 450.75 355.5 l 1
 464.25 312.75 492.75 211.5 492.75 159.75 c 0
EndSplineSet
Validated: 524321
EndChar

StartChar: uni06C2
Encoding: 1730 1730 175
Width: 525
VWidth: 750
GlyphClass: 2
Flags: HMW
HStem: -26.25 67.5<282 343.5 282 345.375> 307.5 15G<224.25 224.25> 662.25 38.25<247.5 259.5>
VStem: 158.25 54<93 137.25> 191.25 24.75<622.5 629.25> 437.25 42<111.75 149.625>
AnchorPoint: "Anchor-1" 276.75 795 basechar 0
AnchorPoint: "Anchor-0" 330 -90 basechar 0
LayerCount: 2
Fore
SplineSet
186.75 489 m 0xf4
 182.25 486.75 180.75 491.25 180 495 c 0
 177.75 501.75 176.25 505.5 176.25 510 c 0
 176.25 514.5 180.75 518.25 188.25 523.5 c 2
 229.5 546.75 l 1
 202.5 558 191.25 579 191.25 603 c 0
 191.25 655.5 223.5 700.5 271.5 700.5 c 0
 299.25 700.5 310.5 679.5 312 658.5 c 0
 313.5 649.5 308.25 644.25 303 644.25 c 0
 299.25 644.25 270 662.25 249 662.25 c 0
 222.75 662.25 216 652.5 216 633 c 0
 216 612 221.25 565.5 279 565.5 c 0xec
 288 565.5 307.5 567 321 567 c 0
 334.5 567 344.25 567.75 349.5 558.75 c 2
 353.25 552 l 2
 357 546 347.25 540.75 339.75 538.5 c 0
 238.5 515.25 232.5 514.5 186.75 489 c 0xf4
431.25 282.75 m 0
 472.5 240.75 479.25 201.75 479.25 169.5 c 0
 479.25 54 393 -26.25 297.75 -26.25 c 0
 220.5 -26.25 158.25 11.25 158.25 96.75 c 0
 158.25 177.75 219 249 306 287.25 c 1
 281.25 298.5 253.5 309.75 224.25 322.5 c 1
 265.5 379.5 l 1
 295.5 366 378.75 336 431.25 282.75 c 0
309.75 41.25 m 0
 377.25 41.25 437.25 72.75 437.25 132.75 c 0
 437.25 166.5 414.75 209.25 385.5 237 c 0
 366.75 254.25 345.75 267.75 322.5 279.75 c 1
 269.25 249.75 212.25 186.75 212.25 122.25 c 0
 212.25 63.75 254.25 41.25 309.75 41.25 c 0
EndSplineSet
Validated: 524289
Substitution2: "'fina' Terminal Forms lookup 31 subtable" uni06C2.fina
Substitution2: "'aalt' Access All Alternates lookup 0 subtable" uni06C2.fina
EndChar

StartChar: uni06C2.fina
Encoding: 1114235 -1 176
Width: 525
VWidth: 750
GlyphClass: 2
Flags: HMW
HStem: 0 73.5<383.25 525 486 525 486 525> 588 38.25<206.25 218.25>
VStem: 150 24.75<548.25 555>
AnchorPoint: "Anchor-1" 276.75 780 basechar 0
AnchorPoint: "Anchor-0" 330 -82.5 basechar 0
LayerCount: 2
Fore
SplineSet
145.5 414.75 m 0
 141 412.5 139.5 417 138.75 420.75 c 0
 136.5 427.5 135 431.25 135 435.75 c 0
 135 440.25 139.5 444 147 449.25 c 2
 188.25 472.5 l 1
 161.25 483.75 150 504.75 150 528.75 c 0
 150 581.25 182.25 626.25 230.25 626.25 c 0
 258 626.25 269.25 605.25 270.75 584.25 c 0
 272.25 575.25 267 570 261.75 570 c 0
 258 570 228.75 588 207.75 588 c 0
 181.5 588 174.75 578.25 174.75 558.75 c 0
 174.75 537.75 180 491.25 237.75 491.25 c 0
 246.75 491.25 266.25 492.75 279.75 492.75 c 0
 293.25 492.75 303 493.5 308.25 484.5 c 2
 312 477.75 l 2
 315.75 471.75 306 466.5 298.5 464.25 c 0
 197.25 441 191.25 440.25 145.5 414.75 c 0
106.5 -21.75 m 0
 97.5 -21.75 94.5 -6.75 98.25 18.75 c 0
 102 76.5 163.5 269.25 231.75 282.75 c 0
 259.5 288 282.75 263.25 296.25 237.75 c 0
 309.75 213.75 327.75 166.5 344.25 135.75 c 0
 373.5 79.5 411.75 73.5 486 73.5 c 2
 525 73.5 l 1
 525 0 l 1
 437.25 0 l 2
 329.25 0 291.75 85.5 267 140.25 c 0
 256.5 164.25 247.5 186 225.75 183 c 0
 207 180.75 194.25 160.5 187.5 147 c 0
 170.25 110.25 135 -20.25 106.5 -21.75 c 0
EndSplineSet
Validated: 524321
EndChar

StartChar: uni06BE
Encoding: 1726 1726 177
Width: 525
VWidth: 750
GlyphClass: 2
Flags: HMW
HStem: -0.75 66.8475 -0.75 70.5<310.5 356.25 281.25 365.625> 37.5 36<159 225.75> 250.5 31.5<193.125 222.375> 438.75 69.75<331.125 363>
VStem: 80.25 37.5<116.25 161.625 116.25 165> 284.25 41.25<137.25 165.375> 448.5 52.5<142.125 183.375>
AnchorPoint: "Anchor-1" 285 645 basechar 0
AnchorPoint: "Anchor-0" 307.5 -82.5 basechar 0
LayerCount: 2
Fore
SplineSet
361.5 508.5 m 0x9f
 442.5 508.5 501 269.25 501 191.25 c 0
 501 93 408.75 -0.75 322.5 -0.75 c 0
 298.5 -0.75 257.25 3.75 222.75 24.75 c 1
 137.25 -22.5 111.75 -39.75 60.75 -70.5 c 0x9f
 37.5 -84 29.25 -87 24 -87 c 0
 13.5 -87 9 -72.75 9 -63.75 c 0
 9 -46.5 30 -30.75 102 7.5 c 2
 159 37.5 l 1x3f
 102 41.25 80.25 77.25 80.25 120.75 c 0
 80.25 209.25 156.75 282 229.5 282 c 1
 254.25 374.25 300.75 508.5 361.5 508.5 c 0x9f
356.25 69.75 m 0x5f
 406.5 78 448.5 105 448.5 154.5 c 0
 448.5 212.25 388.5 438.75 337.5 438.75 c 0
 305.25 438.75 273 351.75 246 280.5 c 1
 294.75 272.25 325.5 227.25 325.5 158.25 c 0
 325.5 116.25 314.25 96.75 281.25 69.75 c 1
 291 66.75 323.25 63 356.25 69.75 c 0x5f
201 73.5 m 0x3f
 250.5 73.5 284.25 90 284.25 138.75 c 0
 284.25 192 243 250.5 201.75 250.5 c 0
 157.5 250.5 117.75 186.75 117.75 136.5 c 0
 117.75 96 143.25 73.5 201 73.5 c 0x3f
EndSplineSet
Validated: 524321
Substitution2: "'fina' Terminal Forms lookup 31 subtable" uniFBAB
Substitution2: "'medi' Medial Forms lookup 30 subtable" uniFBAD
Substitution2: "'init' Initial Forms lookup 29 subtable" uniFBAC
AlternateSubs2: "'aalt' Access All Alternates lookup 1 subtable" uniFBAC uniFBAD uniFBAB
EndChar

StartChar: uniFBAB
Encoding: 64427 64427 178
Width: 525
VWidth: 750
GlyphClass: 2
Flags: HMW
HStem: 0 69.75<336 356.25 281.25 525 336 336> 0 73.5<457.5 525> 37.5 36<159 225.75> 250.5 31.5<193.125 222.375> 438.75 69.75<331.125 363>
VStem: 80.25 37.5<116.25 161.625 116.25 165> 284.25 41.25<137.25 165.375> 448.5 52.5<169.875 183.375>
AnchorPoint: "Anchor-1" 285 645 basechar 0
AnchorPoint: "Anchor-0" 307.5 -82.5 basechar 0
LayerCount: 2
Fore
SplineSet
525 73.5 m 1x5f
 525 0 l 1
 336 0 l 2
 331.5 -0.75 327 -0.75 322.5 -0.75 c 0
 298.5 -0.75 257.25 3.75 222.75 24.75 c 1
 137.25 -22.5 111.75 -39.75 60.75 -70.5 c 0x5f
 37.5 -84 29.25 -87 24 -87 c 0
 13.5 -87 9 -72.75 9 -63.75 c 0
 9 -46.5 30 -30.75 102 7.5 c 2
 159 37.5 l 1x3f
 102 41.25 80.25 77.25 80.25 120.75 c 0
 80.25 209.25 156.75 282 229.5 282 c 1
 254.25 374.25 300.75 508.5 361.5 508.5 c 0
 442.5 508.5 501 269.25 501 191.25 c 0
 501 148.5 483.75 107.25 457.5 73.5 c 1
 525 73.5 l 1x5f
281.25 69.75 m 1x9f
 291 66.75 323.25 63 356.25 69.75 c 0
 406.5 78 448.5 105 448.5 154.5 c 0
 448.5 212.25 388.5 438.75 337.5 438.75 c 0
 305.25 438.75 273 351.75 246 280.5 c 1
 294.75 272.25 325.5 227.25 325.5 158.25 c 0
 325.5 116.25 314.25 96.75 281.25 69.75 c 1x9f
201 73.5 m 0x5f
 250.5 73.5 284.25 90 284.25 138.75 c 0
 284.25 192 243 250.5 201.75 250.5 c 0
 157.5 250.5 117.75 186.75 117.75 136.5 c 0
 117.75 96 143.25 73.5 201 73.5 c 0x5f
EndSplineSet
Validated: 524321
EndChar

StartChar: uniFBAD
Encoding: 64429 64429 179
Width: 525
VWidth: 750
GlyphClass: 2
Flags: HMW
HStem: 0 67.5<0 366.375 316.5 366.375 328.875 366.375 328.875 525> 0 73.5<0 72.75 166.125 224.25 0 72.75 452.25 525> 438.75 69.75<331.125 363>
VStem: 72.75 45<112.5 155.25> 284.25 41.25<137.25 165.375> 448.5 52.5<171.375 183.375>
AnchorPoint: "Anchor-1" 285 645 basechar 0
AnchorPoint: "Anchor-0" 307.5 -82.5 basechar 0
LayerCount: 2
Fore
SplineSet
452.25 73.5 m 1x7c
 525 73.5 l 1
 525 0 l 1
 318 0 l 1
 316.5 0 l 1
 0 0 l 1
 0 73.5 l 1
 72.75 73.5 l 1
 72.75 237 178.5 280.5 229.5 282 c 1
 254.25 374.25 300.75 508.5 361.5 508.5 c 0
 442.5 508.5 501 269.25 501 193.5 c 0
 501 149.25 481.5 107.25 452.25 73.5 c 1x7c
288 72.75 m 1xbc
 308.25 68.25 323.25 67.5 334.5 67.5 c 0
 398.25 67.5 448.5 101.25 448.5 154.5 c 0
 448.5 212.25 388.5 438.75 337.5 438.75 c 0
 305.25 438.75 273.75 351.75 246 281.25 c 1
 293.25 273.75 325.5 228 325.5 158.25 c 0
 325.5 116.25 314.25 96.75 288 72.75 c 1xbc
198 73.5 m 0x7c
 250.5 73.5 284.25 89.25 284.25 138.75 c 0
 284.25 192 243 250.5 201.75 250.5 c 0
 157.5 250.5 117.75 185.25 117.75 129 c 0
 117.75 96 134.25 73.5 198 73.5 c 0x7c
EndSplineSet
Validated: 524289
EndChar

StartChar: uniFBAC
Encoding: 64428 64428 180
Width: 525
VWidth: 750
GlyphClass: 2
Flags: HMW
HStem: 0 67.5<0 366.375> 0 73.5<0 72.75 166.125 224.25 0 72.75> 438.75 69.75<331.125 363>
VStem: 72.75 45<112.5 155.25> 284.25 41.25<137.25 165.375> 448.5 52.5<142.125 183.375>
AnchorPoint: "Anchor-1" 285 645 basechar 0
AnchorPoint: "Anchor-0" 307.5 -82.5 basechar 0
LayerCount: 2
Fore
SplineSet
361.5 508.5 m 0x7c
 442.5 508.5 501 269.25 501 193.5 c 0
 501 90.75 394.5 0 316.5 0 c 2
 0 0 l 1
 0 73.5 l 1
 72.75 73.5 l 1
 72.75 237 178.5 280.5 229.5 282 c 1
 254.25 374.25 300.75 508.5 361.5 508.5 c 0x7c
334.5 67.5 m 0xbc
 398.25 67.5 448.5 101.25 448.5 154.5 c 0
 448.5 212.25 388.5 438.75 337.5 438.75 c 0
 305.25 438.75 273.75 351.75 246 281.25 c 1
 293.25 273.75 325.5 228 325.5 158.25 c 0
 325.5 116.25 314.25 96.75 288 72.75 c 1
 308.25 68.25 323.25 67.5 334.5 67.5 c 0xbc
198 73.5 m 0x7c
 250.5 73.5 284.25 89.25 284.25 138.75 c 0
 284.25 192 243 250.5 201.75 250.5 c 0
 157.5 250.5 117.75 185.25 117.75 129 c 0
 117.75 96 134.25 73.5 198 73.5 c 0x7c
EndSplineSet
Validated: 524289
EndChar

StartChar: uni0629
Encoding: 1577 1577 181
Width: 525
VWidth: 750
GlyphClass: 2
Flags: HMW
HStem: -26.25 67.5<282 343.5 282 345.375> 307.5 15G<224.25 224.25>
VStem: 158.25 54<93 137.25> 437.25 42<111.75 149.625>
AnchorPoint: "Anchor-1" 276.75 675 basechar 0
AnchorPoint: "Anchor-0" 330 -90 basechar 0
LayerCount: 2
Fore
SplineSet
408.75 512.25 m 1
 359.25 455.25 l 1
 306.75 510.75 l 1
 357 567 l 1
 408.75 512.25 l 1
267 510.75 m 1
 218.25 453 l 1
 165.75 508.5 l 1
 215.25 564.75 l 1
 267 510.75 l 1
431.25 282.75 m 0
 472.5 240.75 479.25 201.75 479.25 169.5 c 0
 479.25 54 393 -26.25 297.75 -26.25 c 0
 220.5 -26.25 158.25 11.25 158.25 96.75 c 0
 158.25 177.75 219 249 306 287.25 c 1
 281.25 298.5 253.5 309.75 224.25 322.5 c 1
 265.5 379.5 l 1
 295.5 366 378.75 336 431.25 282.75 c 0
309.75 41.25 m 0
 377.25 41.25 437.25 72.75 437.25 132.75 c 0
 437.25 166.5 414.75 209.25 385.5 237 c 0
 366.75 254.25 345.75 267.75 322.5 279.75 c 1
 269.25 249.75 212.25 186.75 212.25 122.25 c 0
 212.25 63.75 254.25 41.25 309.75 41.25 c 0
EndSplineSet
Validated: 524289
Substitution2: "'fina' Terminal Forms lookup 31 subtable" uniFE94
Substitution2: "'aalt' Access All Alternates lookup 0 subtable" uniFE94
EndChar

StartChar: uniFE94
Encoding: 65172 65172 182
Width: 525
VWidth: 750
GlyphClass: 2
Flags: HMW
HStem: 0 73.5<453 462.75 462.75 525> 73.2225 73.0275
VStem: 51.75 55.7175 285 42
AnchorPoint: "Anchor-1" 240 822 basechar 0
AnchorPoint: "Anchor-0" 300 -82.5 basechar 0
LayerCount: 2
Fore
SplineSet
374.25 612 m 1xb0
 324.75 555 l 1
 272.25 610.5 l 1
 322.5 666.75 l 1
 374.25 612 l 1xb0
232.5 610.5 m 1
 183.75 552.75 l 1
 131.25 608.25 l 1
 180.75 664.5 l 1
 232.5 610.5 l 1
453 73.5 m 2
 525 73.5 l 1
 525 0 l 1
 462.75 0 l 2xb0
 368.25 0 321.75 60.75 308.25 132 c 1
 290.25 98.25 l 1
 229.5 58.5 129.75 73.5 90 91.5 c 0
 65.25 103.5 51.75 123 51.75 151.5 c 0x70
 51.75 174.75 59.25 219 125.25 288.75 c 0
 189 355.5 256.5 391.5 285 405 c 1
 274.5 450.75 l 1
 327 472.5 l 1
 334.5 288 334.5 278.25 343.5 175.5 c 0
 348.75 123 378 73.5 453 73.5 c 2
185.25 146.25 m 0x70
 222 146.25 256.5 150.75 301.5 161.25 c 1
 301.5 232.5 299.25 261.75 290.25 356.25 c 1
 238.5 330.75 166.5 272.25 128.25 225 c 0
 87 174 107.25 146.25 185.25 146.25 c 0x70
EndSplineSet
Validated: 524321
Substitution2: "Single Substitution lookup 54 subtable" uniFE94.LamHeh
Substitution2: "'aalt' Access All Alternates lookup 0 subtable" uniFE94.LamHeh
EndChar

StartChar: uniFE94.LamHeh
Encoding: 1114236 -1 183
Width: 525
VWidth: 750
GlyphClass: 2
Flags: HMW
HStem: -40.59 72.84
VStem: 197.25 55.3275 450 33
AnchorPoint: "Anchor-1" 339 717 basechar 0
AnchorPoint: "Anchor-0" 367.5 -202.5 basechar 0
LayerCount: 2
Fore
SplineSet
510.75 519.75 m 1
 461.25 462.75 l 1
 408.75 518.25 l 1
 459 574.5 l 1
 510.75 519.75 l 1
369 518.25 m 1
 320.25 460.5 l 1
 267.75 516 l 1
 317.25 572.25 l 1
 369 518.25 l 1
495 84 m 0
 498 18 504 -53.25 525 -81 c 1
 525 -156.75 l 1
 483 -127.5 465.75 -46.5 453.75 18 c 1
 435.75 -15 l 1
 375 -55.5 274.5 -40.5 234.75 -21.75 c 0
 210 -10.5 197.25 9.75 197.25 38.25 c 0
 197.25 60 204.75 105.75 270.75 174.75 c 0
 333 241.5 397.5 276 430.5 291 c 1
 420 336.75 l 1
 483 360.75 l 1
 487.5 235.5 488.25 195 495 84 c 0
330.75 32.25 m 0
 366.75 32.25 406.5 37.5 450 48 c 1
 450 118.5 447.75 147.75 438.75 241.5 c 1
 387.75 217.5 311.25 159 273 111 c 0
 232.5 60.75 252 32.25 330.75 32.25 c 0
EndSplineSet
Validated: 524321
EndChar

StartChar: uni06C3
Encoding: 1731 1731 184
Width: 525
VWidth: 750
GlyphClass: 2
Flags: HMW
HStem: -26.25 67.5<282 343.5 282 345.375> 307.5 15G<224.25 224.25>
VStem: 158.25 54<93 137.25> 437.25 42<111.75 149.625>
AnchorPoint: "Anchor-1" 276.75 720 basechar 0
AnchorPoint: "Anchor-0" 328.5 -90 basechar 0
LayerCount: 2
Fore
SplineSet
402 518.25 m 1
 352.5 461.25 l 1
 300 516.75 l 1
 350.25 573 l 1
 402 518.25 l 1
260.25 516.75 m 1
 211.5 459 l 1
 159 514.5 l 1
 208.5 570.75 l 1
 260.25 516.75 l 1
431.25 282.75 m 0
 472.5 240.75 479.25 201.75 479.25 169.5 c 0
 479.25 54 393 -26.25 297.75 -26.25 c 0
 220.5 -26.25 158.25 11.25 158.25 96.75 c 0
 158.25 177.75 219 249 306 287.25 c 1
 281.25 298.5 253.5 309.75 224.25 322.5 c 1
 265.5 379.5 l 1
 295.5 366 378.75 336 431.25 282.75 c 0
309.75 41.25 m 0
 377.25 41.25 437.25 72.75 437.25 132.75 c 0
 437.25 166.5 414.75 209.25 385.5 237 c 0
 366.75 254.25 345.75 267.75 322.5 279.75 c 1
 269.25 249.75 212.25 186.75 212.25 122.25 c 0
 212.25 63.75 254.25 41.25 309.75 41.25 c 0
EndSplineSet
Validated: 524289
Substitution2: "'fina' Terminal Forms lookup 31 subtable" uni06C3.fina
Substitution2: "'aalt' Access All Alternates lookup 0 subtable" uni06C3.fina
EndChar

StartChar: uni06C3.fina
Encoding: 1114237 -1 185
Width: 525
VWidth: 750
GlyphClass: 2
Flags: HMW
HStem: 0 73.5<383.25 525 486 525 486 525>
VStem: 96.6825 428.317
AnchorPoint: "Anchor-1" 276 690 basechar 0
AnchorPoint: "Anchor-0" 330 -82.5 basechar 0
LayerCount: 2
Fore
SplineSet
306 438.75 m 1
 253.5 494.25 l 1
 303.75 550.5 l 1
 355.5 495.75 l 1
 306 438.75 l 1
165 436.5 m 1
 112.5 492 l 1
 162 548.25 l 1
 213.75 494.25 l 1
 165 436.5 l 1
106.5 -21.75 m 0
 97.5 -21.75 94.5 -6.75 98.25 18.75 c 0
 102 76.5 163.5 269.25 231.75 282.75 c 0
 259.5 288 282.75 263.25 296.25 237.75 c 0
 309.75 213.75 327.75 166.5 344.25 135.75 c 0
 373.5 79.5 411.75 73.5 486 73.5 c 2
 525 73.5 l 1
 525 0 l 1
 437.25 0 l 2
 329.25 0 291.75 85.5 267 140.25 c 0
 256.5 164.25 247.5 186 225.75 183 c 0
 207 180.75 194.25 160.5 187.5 147 c 0
 170.25 110.25 135 -20.25 106.5 -21.75 c 0
EndSplineSet
Validated: 524321
EndChar

